<?xml version="1.0" encoding="utf-8"?>
<!-- Generator: Adobe Illustrator 24.3.0, SVG Export Plug-In . SVG Version: 6.00 Build 0)  -->
<svg version="1.1" id="Layer_1" xmlns="http://www.w3.org/2000/svg" xmlns:xlink="http://www.w3.org/1999/xlink" x="0px" y="0px"
	 viewBox="0 0 200 200" style="enable-background:new 0 0 200 200;" xml:space="preserve">
<style type="text/css">
	.st0{fill:none;stroke:#C82828;stroke-width:3;stroke-miterlimit:10;}
	.st1{fill:none;stroke:#282828;stroke-width:3;stroke-linecap:round;stroke-miterlimit:10;}
</style>
<image style="overflow:visible;" width="745" height="568" xlink:href="F2DE08B7.jpg"  transform="matrix(1 0 0 1 -7652 -7652)">
</image>
<path class="st0" d="M178.7,91.9c-8.3,3.7-161.5,71.9-165.6,73.7c-4.1,1.8-7.1-0.8-7.5-3.1c-0.4-2.3,0.4-6.3,1-9.5
	c0.6-3.2,0.3-13.3-1.1-22.4s-1.6-10.1-1.7-11.8s0.8-3.1,5.5-6.3C14,109.5,31.7,99,35.4,96.9s6.3-1.2,8.4,2s3.2,5.4-3.2,10.4
	c-6.3,5-16,11.2-18.3,12.8c-2.3,1.6-5.4,8.4-1,11.5c4.4,3.1,6.2,4,13.5-1.6s29.9-22.5,31.2-23.4s3.2-1.7,5.8-2s80.8-13.5,83.8-14.4
	c3-0.9,7.1-5.4,4.3-11.7c-2.8-6.3-7.4-9.4-16.3-8c-8.9,1.4-56.4,9.2-58.8,9.7c-2.4,0.5-5.8,0-8-5.3c-2.2-5.3,2.7-10.5,4.5-13
	c1.8-2.5,8.4-13.1,10-14.7c1.6-1.6,5.8-2.2,9.4-1.9s10.9,0.2,13.1,0c2.2-0.2,4.9-1.3,3-4.9c-1.9-3.6-2.4-6.7,1.3-8.1
	c3.7-1.3,10.1-0.7,16.2,3s8.1,5.6,10.6,9.4c2.5,3.8,3.2,8,5.9,9.1c2.7,1.1,5.2,0.9,9.3-1.4c4.1-2.3,21.4-12.4,33.2,5.7
	C205,78.4,178.7,91.9,178.7,91.9z"/>
<line class="st1" x1="68.6" y1="145.9" x2="65.1" y2="137.6"/>
</svg>
