<?xml version="1.0" encoding="utf-8"?>
<!-- Generator: Adobe Illustrator 24.1.1, SVG Export Plug-In . SVG Version: 6.00 Build 0)  -->
<svg version="1.1" id="Layer_1" xmlns="http://www.w3.org/2000/svg" xmlns:xlink="http://www.w3.org/1999/xlink" x="0px" y="0px"
	 viewBox="0 0 200 140" style="enable-background:new 0 0 200 140;" xml:space="preserve">
<style type="text/css">
	.st0{fill:none;stroke:#C82828;stroke-width:2;stroke-miterlimit:10;}
	.st1{fill:none;stroke:#282828;stroke-width:3;stroke-linecap:round;stroke-miterlimit:10;}
</style>
<g>
	<path class="st0" d="M66.2,112.5c-29.3,13-53.1,23.6-54.7,24.3c-4.2,1.8-7.2-0.8-7.6-3.2s0.4-6.4,1-9.7s0.3-13.5-1.1-22.8
		S2.1,90.9,2,89.2c-0.1-1.7,0.8-3.2,5.6-6.4c4.8-3.1,22.8-13.7,26.6-15.9c3.8-2.1,6.4-1.2,8.6,2c2.1,3.3,3.3,5.5-3.3,10.6
		c-6.4,5.1-16.3,11.4-18.6,13c-2.3,1.6-5.5,8.6-1,11.7s6.3,4.1,13.7-1.6C41,96.9,64,79.7,65.3,78.8c1.3-0.9,3.3-1.7,5.9-2
		c2.6-0.3,82.3-13.7,85.3-14.7c3.1-0.9,7.2-5.5,4.4-11.9s-7.5-9.6-16.6-8.1c-9.1,1.4-57.4,9.4-59.9,9.9c-2.4,0.5-5.9,0-8.1-5.4
		c-2.2-5.4,2.7-10.7,4.6-13.2s8.6-13.3,10.2-15c1.6-1.6,5.9-2.2,9.6-1.9s11.1,0.2,13.3,0c2.2-0.2,5-1.3,3.1-5
		c-1.9-3.7-2.4-6.8,1.3-8.2c3.8-1.3,10.3-0.7,16.5,3.1s8.2,5.7,10.8,9.6c2.5,3.9,3.3,8.1,6,9.3c2.7,1.1,5.3,0.9,9.5-1.4
		c4.2-2.3,21.8-12.6,33.8,5.8c11.9,18.6-14.9,32.4-14.9,32.4C174.9,64.1,113.4,91.5,66.2,112.5"/>
	<line class="st1" x1="68" y1="116.8" x2="64.4" y2="108.3"/>
</g>
</svg>
