<?xml version="1.0" encoding="utf-8"?>
<!-- Generator: Adobe Illustrator 24.3.0, SVG Export Plug-In . SVG Version: 6.00 Build 0)  -->
<svg version="1.1" id="Layer_1" xmlns="http://www.w3.org/2000/svg" xmlns:xlink="http://www.w3.org/1999/xlink" x="0px" y="0px"
	 viewBox="0 0 48 32" style="enable-background:new 0 0 48 32;" xml:space="preserve">
<style type="text/css">
	.st0{fill:#012169;}
	.st1{fill:#FFFFFF;}
	.st2{fill:#C8102E;}
</style>
<rect y="0" class="st0" width="48" height="32"/>
<polygon class="st1" points="29.3,32 29.3,23.2 42.6,32 48,32 48,32 48,28.4 37.4,21.3 48,21.3 48,10.7 37.4,10.7 48,3.6 48,0 
	42.6,0 29.3,8.9 29.3,0 27.2,0 20,0 20,0 18.7,0 18.7,8.8 5.4,0 0,0 0,3.6 10.6,10.7 0,10.7 0,21.3 10.6,21.3 0,28.4 0,32 0,32 
	5.4,32 18.7,23.1 18.7,32 20.8,32 28,32 28,32 "/>
<g>
	<g>
		<g>
			<defs>
				<rect id="SVGID_1_" width="48" height="32"/>
			</defs>
			<clipPath id="SVGID_2_">
				<use xlink:href="#SVGID_1_"  style="overflow:visible;"/>
			</clipPath>
		</g>
	</g>
</g>
<g>
	<polygon class="st2" points="12.5,21.3 0,29.6 0,32 0,32 3.6,32 19.6,21.3 	"/>
	<polygon class="st2" points="19.6,10.7 3.6,0 0,0 0,0 0,2.4 12.5,10.7 	"/>
	<polygon class="st2" points="44.4,0 28.4,10.7 35.5,10.7 48,2.4 48,0 	"/>
</g>
<g>
	<polygon class="st2" points="28.4,21.3 44.4,32 48,32 48,32 48,29.6 35.5,21.3 	"/>
	<polygon class="st2" points="32.4,12.8 27.2,12.8 27.2,11.5 27.2,10.7 27.2,0 26.4,0 21.6,0 20.8,0 20.8,10.7 20.8,11.5 20.8,12.8 
		15.6,12.8 0,12.8 0,19.2 15.6,19.2 20.8,19.2 20.8,20.5 20.8,21.3 20.8,32 21.6,32 26.4,32 27.2,32 27.2,21.3 27.2,20.5 27.2,19.2 
		32.4,19.2 48,19.2 48,12.8 	"/>
</g>
</svg>
