<?xml version="1.0" encoding="utf-8"?>
<!-- Generator: Adobe Illustrator 24.3.0, SVG Export Plug-In . SVG Version: 6.00 Build 0)  -->
<svg version="1.1" id="Layer_1" xmlns="http://www.w3.org/2000/svg" xmlns:xlink="http://www.w3.org/1999/xlink" x="0px" y="0px"
	 viewBox="0 0 48 32" style="enable-background:new 0 0 48 32;" xml:space="preserve">
<style type="text/css">
	.st0{fill-rule:evenodd;clip-rule:evenodd;fill:#FFFFFF;}
	.st1{fill-rule:evenodd;clip-rule:evenodd;fill:#CF4044;}
</style>
<rect x="10.9" class="st0" width="26.3" height="32"/>
<g>
	<path class="st1" d="M10.9,32V0H0v32H10.9z M48,32V0H37.2v32H48z M23.9,26.4H23V22l-4.9,0.5l0.9-1.8l-5.3-3.9l1.4-0.8l-1.4-3.7
		l2.9,0.7l1.1-1.5l3.7,3.7l-2-7.1l2.3,1.3l2.1-3.8L26,9.4l2.4-1.3l-2,7.1l3.8-3.7l1.1,1.5l2.9-0.7L32.7,16l1.5,0.8l-5.4,3.9l1,1.8
		L24.8,22v4.4H23.9L23.9,26.4z"/>
</g>
</svg>
