<?xml version="1.0" encoding="utf-8"?>
<!-- Generator: Adobe Illustrator 24.3.0, SVG Export Plug-In . SVG Version: 6.00 Build 0)  -->
<svg version="1.1" id="Layer_1" xmlns="http://www.w3.org/2000/svg" xmlns:xlink="http://www.w3.org/1999/xlink" x="0px" y="0px"
	 viewBox="0 0 48 32" style="enable-background:new 0 0 48 32;" xml:space="preserve">
<style type="text/css">
	.st0{fill:#B22234;}
	.st1{fill:#FFFFFF;}
	.st2{fill:#3C3B6E;}
</style>
<g>
	<g>
		<rect x="0" class="st0" width="48" height="32"/>
	</g>
	<g>
		<path d="M0,3.7h48 M48,8.6H0 M0,13.5h48 M48,18.5H0 M0,23.4h48 M48,28.3H0"/>
		<path class="st1" d="M48,29.5H0v-2.5h48V29.5z M48,24.6H0v-2.5h48V24.6z M48,19.7H0v-2.5h48V19.7z M48,14.8H0v-2.5h48V14.8z
			 M48,9.8H0V7.4h48V9.8z M48,4.9H0V2.5h48V4.9z"/>
	</g>
	<g>
		<rect x="0" class="st2" width="24.3" height="17.2"/>
	</g>
	<g>
		<g id="s18">
			<g id="s9">
				<g id="s5">
					<g id="s4">
						<g id="s">
							<path class="st1" d="M2,0.7l0.6,1.8L1.1,1.4H3L1.5,2.5L2,0.7z"/>
						</g>
						<g>
							<g id="s_1_">
								<path class="st1" d="M2,4.2L2.6,6L1.1,4.9H3L1.5,6L2,4.2z"/>
							</g>
						</g>
						<g>
							<g id="s_2_">
								<path class="st1" d="M2,7.6l0.6,1.8L1.1,8.3H3L1.5,9.4L2,7.6z"/>
							</g>
						</g>
						<g>
							<g id="s_3_">
								<path class="st1" d="M2,11.1l0.6,1.8l-1.5-1.1H3l-1.5,1.1L2,11.1z"/>
							</g>
						</g>
					</g>
					<g>
						<g id="s_4_">
							<path class="st1" d="M2,14.5l0.6,1.8l-1.5-1.1H3l-1.5,1.1L2,14.5z"/>
						</g>
					</g>
				</g>
				<g>
					<g id="s4_1_">
						<g id="s_5_">
							<path class="st1" d="M4.1,2.5l0.6,1.8L3.1,3.1H5L3.5,4.2L4.1,2.5z"/>
						</g>
						<g>
							<g id="s_6_">
								<path class="st1" d="M4.1,5.9l0.6,1.8L3.1,6.6H5L3.5,7.7L4.1,5.9z"/>
							</g>
						</g>
						<g>
							<g id="s_7_">
								<path class="st1" d="M4.1,9.4l0.6,1.8L3.1,10H5l-1.5,1.1L4.1,9.4z"/>
							</g>
						</g>
						<g>
							<g id="s_8_">
								<path class="st1" d="M4.1,12.8l0.6,1.8l-1.5-1.1H5l-1.5,1.1L4.1,12.8z"/>
							</g>
						</g>
					</g>
				</g>
			</g>
			<g>
				<g id="s9_1_">
					<g id="s5_1_">
						<g id="s4_2_">
							<g id="s_9_">
								<path class="st1" d="M6.1,0.7l0.6,1.8L5.1,1.4H7L5.5,2.5L6.1,0.7z"/>
							</g>
							<g>
								<g id="s_10_">
									<path class="st1" d="M6.1,4.2L6.7,6L5.1,4.9H7L5.5,6L6.1,4.2z"/>
								</g>
							</g>
							<g>
								<g id="s_11_">
									<path class="st1" d="M6.1,7.6l0.6,1.8L5.1,8.3H7L5.5,9.4L6.1,7.6z"/>
								</g>
							</g>
							<g>
								<g id="s_12_">
									<path class="st1" d="M6.1,11.1l0.6,1.8l-1.5-1.1H7l-1.5,1.1L6.1,11.1z"/>
								</g>
							</g>
						</g>
						<g>
							<g id="s_13_">
								<path class="st1" d="M6.1,14.5l0.6,1.8l-1.5-1.1H7l-1.5,1.1L6.1,14.5z"/>
							</g>
						</g>
					</g>
					<g>
						<g id="s4_3_">
							<g id="s_14_">
								<path class="st1" d="M8.1,2.5l0.6,1.8L7.2,3.1H9L7.5,4.2L8.1,2.5z"/>
							</g>
							<g>
								<g id="s_15_">
									<path class="st1" d="M8.1,5.9l0.6,1.8L7.2,6.6H9L7.5,7.7L8.1,5.9z"/>
								</g>
							</g>
							<g>
								<g id="s_16_">
									<path class="st1" d="M8.1,9.4l0.6,1.8L7.2,10H9l-1.5,1.1L8.1,9.4z"/>
								</g>
							</g>
							<g>
								<g id="s_17_">
									<path class="st1" d="M8.1,12.8l0.6,1.8l-1.5-1.1H9l-1.5,1.1L8.1,12.8z"/>
								</g>
							</g>
						</g>
					</g>
				</g>
			</g>
		</g>
		<g>
			<g id="s18_1_">
				<g id="s9_2_">
					<g id="s5_2_">
						<g id="s4_4_">
							<g id="s_18_">
								<path class="st1" d="M10.1,0.7l0.6,1.8L9.2,1.4h1.9L9.6,2.5L10.1,0.7z"/>
							</g>
							<g>
								<g id="s_19_">
									<path class="st1" d="M10.1,4.2L10.7,6L9.2,4.9h1.9L9.6,6L10.1,4.2z"/>
								</g>
							</g>
							<g>
								<g id="s_20_">
									<path class="st1" d="M10.1,7.6l0.6,1.8L9.2,8.3h1.9L9.6,9.4L10.1,7.6z"/>
								</g>
							</g>
							<g>
								<g id="s_21_">
									<path class="st1" d="M10.1,11.1l0.6,1.8l-1.5-1.1h1.9l-1.5,1.1L10.1,11.1z"/>
								</g>
							</g>
						</g>
						<g>
							<g id="s_22_">
								<path class="st1" d="M10.1,14.5l0.6,1.8l-1.5-1.1h1.9l-1.5,1.1L10.1,14.5z"/>
							</g>
						</g>
					</g>
					<g>
						<g id="s4_5_">
							<g id="s_23_">
								<path class="st1" d="M12.2,2.5l0.6,1.8l-1.5-1.1h1.9l-1.5,1.1L12.2,2.5z"/>
							</g>
							<g>
								<g id="s_24_">
									<path class="st1" d="M12.2,5.9l0.6,1.8l-1.5-1.1h1.9l-1.5,1.1L12.2,5.9z"/>
								</g>
							</g>
							<g>
								<g id="s_25_">
									<path class="st1" d="M12.2,9.4l0.6,1.8L11.2,10h1.9l-1.5,1.1L12.2,9.4z"/>
								</g>
							</g>
							<g>
								<g id="s_26_">
									<path class="st1" d="M12.2,12.8l0.6,1.8l-1.5-1.1h1.9l-1.5,1.1L12.2,12.8z"/>
								</g>
							</g>
						</g>
					</g>
				</g>
				<g>
					<g id="s9_3_">
						<g id="s5_3_">
							<g id="s4_6_">
								<g id="s_27_">
									<path class="st1" d="M14.2,0.7l0.6,1.8l-1.5-1.1h1.9l-1.5,1.1L14.2,0.7z"/>
								</g>
								<g>
									<g id="s_28_">
										<path class="st1" d="M14.2,4.2L14.8,6l-1.5-1.1h1.9L13.6,6L14.2,4.2z"/>
									</g>
								</g>
								<g>
									<g id="s_29_">
										<path class="st1" d="M14.2,7.6l0.6,1.8l-1.5-1.1h1.9l-1.5,1.1L14.2,7.6z"/>
									</g>
								</g>
								<g>
									<g id="s_30_">
										<path class="st1" d="M14.2,11.1l0.6,1.8l-1.5-1.1h1.9l-1.5,1.1L14.2,11.1z"/>
									</g>
								</g>
							</g>
							<g>
								<g id="s_31_">
									<path class="st1" d="M14.2,14.5l0.6,1.8l-1.5-1.1h1.9l-1.5,1.1L14.2,14.5z"/>
								</g>
							</g>
						</g>
						<g>
							<g id="s4_7_">
								<g id="s_32_">
									<path class="st1" d="M16.2,2.5l0.6,1.8l-1.5-1.1h1.9l-1.5,1.1L16.2,2.5z"/>
								</g>
								<g>
									<g id="s_33_">
										<path class="st1" d="M16.2,5.9l0.6,1.8l-1.5-1.1h1.9l-1.5,1.1L16.2,5.9z"/>
									</g>
								</g>
								<g>
									<g id="s_34_">
										<path class="st1" d="M16.2,9.4l0.6,1.8L15.3,10h1.9l-1.5,1.1L16.2,9.4z"/>
									</g>
								</g>
								<g>
									<g id="s_35_">
										<path class="st1" d="M16.2,12.8l0.6,1.8l-1.5-1.1h1.9l-1.5,1.1L16.2,12.8z"/>
									</g>
								</g>
							</g>
						</g>
					</g>
				</g>
			</g>
		</g>
		<g>
			<g id="s9_4_">
				<g id="s5_4_">
					<g id="s4_8_">
						<g id="s_36_">
							<path class="st1" d="M18.2,0.7l0.6,1.8l-1.5-1.1h1.9l-1.5,1.1L18.2,0.7z"/>
						</g>
						<g>
							<g id="s_37_">
								<path class="st1" d="M18.2,4.2L18.8,6l-1.5-1.1h1.9L17.7,6L18.2,4.2z"/>
							</g>
						</g>
						<g>
							<g id="s_38_">
								<path class="st1" d="M18.2,7.6l0.6,1.8l-1.5-1.1h1.9l-1.5,1.1L18.2,7.6z"/>
							</g>
						</g>
						<g>
							<g id="s_39_">
								<path class="st1" d="M18.2,11.1l0.6,1.8l-1.5-1.1h1.9l-1.5,1.1L18.2,11.1z"/>
							</g>
						</g>
					</g>
					<g>
						<g id="s_40_">
							<path class="st1" d="M18.2,14.5l0.6,1.8l-1.5-1.1h1.9l-1.5,1.1L18.2,14.5z"/>
						</g>
					</g>
				</g>
				<g>
					<g id="s4_9_">
						<g id="s_41_">
							<path class="st1" d="M20.3,2.5l0.6,1.8l-1.5-1.1h1.9l-1.5,1.1L20.3,2.5z"/>
						</g>
						<g>
							<g id="s_42_">
								<path class="st1" d="M20.3,5.9l0.6,1.8l-1.5-1.1h1.9l-1.5,1.1L20.3,5.9z"/>
							</g>
						</g>
						<g>
							<g id="s_43_">
								<path class="st1" d="M20.3,9.4l0.6,1.8L19.3,10h1.9l-1.5,1.1L20.3,9.4z"/>
							</g>
						</g>
						<g>
							<g id="s_44_">
								<path class="st1" d="M20.3,12.8l0.6,1.8l-1.5-1.1h1.9l-1.5,1.1L20.3,12.8z"/>
							</g>
						</g>
					</g>
				</g>
			</g>
		</g>
		<g>
			<g id="s5_5_">
				<g id="s4_10_">
					<g id="s_45_">
						<path class="st1" d="M22.3,0.7l0.6,1.8l-1.5-1.1h1.9l-1.5,1.1L22.3,0.7z"/>
					</g>
					<g>
						<g id="s_46_">
							<path class="st1" d="M22.3,4.2L22.9,6l-1.5-1.1h1.9L21.7,6L22.3,4.2z"/>
						</g>
					</g>
					<g>
						<g id="s_47_">
							<path class="st1" d="M22.3,7.6l0.6,1.8l-1.5-1.1h1.9l-1.5,1.1L22.3,7.6z"/>
						</g>
					</g>
					<g>
						<g id="s_48_">
							<path class="st1" d="M22.3,11.1l0.6,1.8l-1.5-1.1h1.9l-1.5,1.1L22.3,11.1z"/>
						</g>
					</g>
				</g>
				<g>
					<g id="s_49_">
						<path class="st1" d="M22.3,14.5l0.6,1.8l-1.5-1.1h1.9l-1.5,1.1L22.3,14.5z"/>
					</g>
				</g>
			</g>
		</g>
	</g>
</g>
</svg>
