<?xml version="1.0" encoding="utf-8"?>
<!-- Generator: Adobe Illustrator 24.3.0, SVG Export Plug-In . SVG Version: 6.00 Build 0)  -->
<svg version="1.1" id="Layer_1" xmlns="http://www.w3.org/2000/svg" xmlns:xlink="http://www.w3.org/1999/xlink" x="0px" y="0px"
	 viewBox="0 0 48 32" style="enable-background:new 0 0 48 32;" xml:space="preserve">
<style type="text/css">
	.st0{clip-path:url(#SVGID_2_);}
	.st1{fill:#FF0000;}
	.st2{fill:#006600;}
	.st3{fill-rule:evenodd;clip-rule:evenodd;fill:#FFFF00;}
	.st4{fill-rule:evenodd;clip-rule:evenodd;fill:#FFFFFF;}
	.st5{fill-rule:evenodd;clip-rule:evenodd;fill:#FF0000;}
	.st6{fill:#003399;}
	.st7{fill-rule:evenodd;clip-rule:evenodd;}
	.st8{fill:#FFFFFF;}
	.st9{fill:#FFFF00;}
</style>
<g>
	<g id="_x32_52">
		<defs>
			<rect id="SVGID_1_" width="48" height="32"/>
		</defs>
		<clipPath id="SVGID_2_">
			<use xlink:href="#SVGID_1_"  style="overflow:visible;"/>
		</clipPath>
		<g id="_x32_54" class="st0">
			<rect x="19.2" class="st1" width="28.8" height="32"/>
		</g>
	</g>
	<g id="_x32_51">
		<rect class="st2" width="19.2" height="32"/>
	</g>
	<g id="_x32_50">
		<path class="st3" d="M25.5,21C23,20.9,12,14,11.9,12.9l0.6-1c1.1,1.6,12.4,8.3,13.5,8.1L25.5,21"/>
	</g>
	<g id="_x32_49">
		<path class="st3" d="M12.4,11.7c-0.2,0.6,2.9,2.5,6.6,4.8c3.7,2.3,7,3.7,7.2,3.5c0,0,0.1-0.2,0.1-0.2c0,0.1-0.2,0.1-0.3,0
			c-1-0.3-3.6-1.5-6.9-3.5c-3.3-2-6.1-3.8-6.5-4.6c0-0.1-0.1-0.2,0-0.2h0L12.4,11.7L12.4,11.7z M25.5,21c0,0.1-0.1,0.1-0.3,0.1
			c-0.9-0.1-3.6-1.4-6.9-3.4c-3.8-2.3-6.9-4.3-6.6-4.9l0.1-0.2l0,0c-0.3,0.9,6.2,4.6,6.5,4.8c3.7,2.3,6.9,3.7,7.2,3.3L25.5,21"/>
	</g>
	<g id="_x32_48">
		<path d="M25.4,21.1c0,0-0.1,0-0.1,0c-0.9-0.1-3.7-1.5-6.9-3.4c-4.3-2.6-6.4-4.1-6.6-4.7c0-0.1,0-0.1,0-0.2l0.1-0.2c0,0,0,0,0,0
			l0,0c0,0,0,0,0,0c0,0,0,0,0,0c-0.1,0.3,0.6,1.3,6.3,4.7c0.1,0.1,0.2,0.1,0.3,0.1c3.7,2.3,6.9,3.7,7.1,3.3c0,0,0,0,0,0c0,0,0,0,0,0
			L25.5,21c0,0,0,0,0,0C25.5,21.1,25.4,21.1,25.4,21.1z M11.9,12.7l-0.1,0.1c0,0,0,0.1,0,0.1c0.1,0.6,2.3,2.1,6.6,4.7
			c3.2,1.9,6,3.3,6.9,3.4c0.1,0,0.2,0,0.2,0c0,0,0,0,0,0l0.1-0.1C25,21,22,19.7,18.4,17.5c0,0-0.1-0.1-0.3-0.1
			C14.1,14.9,11.9,13.3,11.9,12.7z M26.1,20c-0.6,0-3.6-1.4-7.1-3.5c-4-2.4-6.9-4.2-6.6-4.8c0,0,0,0,0,0l0,0l0.1-0.2c0,0,0,0,0,0
			l0,0c0,0,0,0,0,0c0,0,0,0,0,0c0,0.1,0,0.2,0,0.2c0.5,0.8,3.7,2.9,6.5,4.6c3.1,1.9,5.8,3.2,6.9,3.5c0.1,0,0.3,0,0.3,0c0,0,0,0,0,0
			c0,0,0,0,0,0C26.3,19.8,26.3,19.8,26.1,20C26.2,20,26.2,20,26.1,20C26.2,20,26.2,20,26.1,20z M12.4,11.7c-0.2,0.6,3.4,2.8,6.6,4.8
			c3.8,2.3,6.9,3.7,7.2,3.5c0,0,0-0.1,0.1-0.1c-0.1,0-0.2,0-0.3,0c-1.1-0.3-3.8-1.6-6.9-3.5c-2.8-1.7-6.1-3.8-6.6-4.6
			c0,0,0-0.1,0-0.2L12.4,11.7z"/>
	</g>
	<g id="_x32_47">
		<path class="st3" d="M19.2,13.5c2.4,0,5.4-0.3,7.1-1L26,11.9c-1,0.6-4,0.9-6.8,1c-3.3,0-5.6-0.3-6.7-1.1l-0.3,0.6
			C14.3,13.3,16.4,13.5,19.2,13.5"/>
	</g>
	<g id="_x32_46">
		<path class="st3" d="M26.4,12.5c-0.1,0.1-1.2,0.5-2.8,0.8c-1.1,0.2-2.6,0.3-4.4,0.3c-1.7,0-3.1-0.1-4.2-0.3
			c-1.7-0.3-2.6-0.6-3-0.8c0-0.1,0.1-0.1,0.1-0.2c1,0.4,1.9,0.6,2.9,0.8c1.1,0.1,2.5,0.3,4.2,0.3c1.8,0,3.3-0.2,4.4-0.3
			c1.7-0.3,2.6-0.6,2.7-0.8L26.4,12.5z M26.1,11.9c-0.2,0.1-1.1,0.5-2.7,0.7c-1.1,0.2-2.4,0.3-4.2,0.3c-1.7,0-3-0.1-4-0.3
			c-1.6-0.2-2.5-0.6-2.8-0.7c0-0.1,0.1-0.1,0.1-0.2c0.2,0.1,1.1,0.5,2.7,0.7c1,0.1,2.4,0.3,4,0.2c1.7,0,3.1-0.1,4.2-0.3
			c1.6-0.2,2.5-0.6,2.6-0.7L26.1,11.9"/>
	</g>
	<g id="_x32_45">
		<path d="M19.2,13.6c-1.5,0-2.9-0.1-4.2-0.3c-1.7-0.3-2.6-0.6-2.9-0.8l0,0c0,0,0,0,0,0c0,0,0,0,0,0c0,0,0,0,0-0.1c0,0,0-0.1,0-0.1
			c0,0,0,0,0,0c0.9,0.4,1.8,0.6,2.9,0.8c1.3,0.2,2.7,0.3,4.1,0.3c0,0,0,0,0,0c1.5,0,2.9-0.1,4.4-0.3c1.7-0.3,2.6-0.6,2.7-0.8
			c0,0,0,0,0,0c0,0,0,0,0,0l0.1,0.2c0,0,0,0,0,0c0,0,0,0,0,0c-0.1,0.1-1.2,0.5-2.8,0.8C22.2,13.5,20.8,13.6,19.2,13.6
			C19.2,13.6,19.2,13.6,19.2,13.6z M12.1,12.6L12.1,12.6c0.4,0.1,1.3,0.5,2.9,0.8c1.3,0.2,2.7,0.3,4.2,0.3c0,0,0,0,0,0
			c1.5,0,3-0.1,4.4-0.3c1.6-0.3,2.7-0.7,2.8-0.7l-0.1-0.2c-0.2,0.2-1,0.5-2.7,0.8c-1.5,0.2-2.9,0.3-4.4,0.3c-1.5,0-2.9-0.1-4.2-0.3
			c-1.1-0.2-2-0.4-2.9-0.8C12.1,12.5,12.1,12.5,12.1,12.6C12.1,12.5,12.1,12.5,12.1,12.6z M19.2,13c-1.5,0-2.8-0.1-4-0.3
			c-1.4-0.2-2.3-0.5-2.7-0.7c-0.1,0-0.1,0-0.1,0c0,0,0,0,0,0c0,0,0,0,0,0c0-0.1,0.1-0.1,0.1-0.2c0,0,0,0,0,0
			c0.1,0.1,0.9,0.4,2.7,0.7c0.8,0.1,2.1,0.3,4,0.3c0,0,0,0,0,0c1.9,0,3.3-0.2,4.1-0.3c1.5-0.2,2.5-0.6,2.6-0.7c0,0,0,0,0,0
			c0,0,0,0,0,0l0.1,0.2c0,0,0,0,0,0c-0.2,0.1-1.1,0.5-2.7,0.7C22,12.9,20.7,13,19.2,13C19.2,13,19.2,13,19.2,13z M12.4,12
			c0,0,0.1,0,0.1,0c0.4,0.2,1.2,0.5,2.7,0.7c1.2,0.2,2.6,0.3,4,0.3c0,0,0,0,0,0c1.4,0,2.8-0.1,4.2-0.3c1.6-0.3,2.5-0.6,2.7-0.7
			L26,11.8c-0.2,0.1-1,0.5-2.6,0.7c-0.9,0.1-2.3,0.3-4.2,0.3c0,0,0,0,0,0c-1.8,0-3.2-0.1-4-0.3c-1.7-0.2-2.5-0.6-2.7-0.7
			C12.4,11.9,12.4,11.9,12.4,12z"/>
	</g>
	<g id="_x32_44">
		<path class="st3" d="M11.3,16.5c1.5,0.8,4.8,1.2,7.9,1.2c2.8,0,6.6-0.4,7.9-1.2l0-0.8c-0.4,0.7-4.4,1.3-7.9,1.3
			c-3.5,0-6.8-0.6-7.9-1.3L11.3,16.5"/>
	</g>
	<g id="_x32_43">
		<path class="st3" d="M27.2,16.3v0.2c-0.2,0.2-1.5,0.6-3.2,0.9c-1.2,0.2-2.9,0.3-4.9,0.3c-1.9,0-3.5-0.1-4.7-0.3
			c-1.9-0.3-3.1-0.8-3.3-0.9l0-0.2c0.7,0.5,2.7,0.8,3.4,0.9c1.2,0.2,2.7,0.3,4.6,0.3c2,0,3.6-0.1,4.9-0.3
			C25.2,17.1,26.9,16.6,27.2,16.3L27.2,16.3z M27.2,15.7v0.2c-0.2,0.2-1.5,0.6-3.2,0.9c-1.2,0.2-2.9,0.3-4.9,0.3
			c-1.9,0-3.5-0.1-4.7-0.3c-1.9-0.3-3.1-0.8-3.3-0.9l0-0.2c0.7,0.5,2.7,0.8,3.4,0.9c1.2,0.2,2.7,0.3,4.6,0.3c2,0,3.6-0.1,4.9-0.3
			C25.2,16.4,26.9,16,27.2,15.7"/>
	</g>
	<g id="_x32_42">
		<path d="M19.2,17.8c-1.7,0-3.3-0.1-4.7-0.3c-1.8-0.3-3-0.7-3.3-0.9c0,0,0,0,0,0l0-0.2c0,0,0,0,0,0c0,0,0,0,0,0
			c0.7,0.5,2.7,0.8,3.3,0.9c1.4,0.2,2.9,0.3,4.6,0.3c1.8,0,3.4-0.1,4.9-0.3c1.2-0.2,2.8-0.6,3.2-0.9c0,0,0,0,0,0v0.2c0,0,0,0,0,0
			c-0.2,0.3-1.5,0.6-3.2,0.9C22.6,17.7,21,17.8,19.2,17.8z M11.2,16.5c0.2,0.1,1.4,0.6,3.3,0.9c1.4,0.2,2.9,0.3,4.6,0.3
			c1.8,0,3.4-0.1,4.9-0.3c1.6-0.3,2.9-0.6,3.1-0.9v-0.1c-0.4,0.3-2,0.7-3.2,0.9c-1.4,0.2-3.1,0.3-4.9,0.3c-1.7,0-3.3-0.1-4.6-0.3
			c-0.6-0.1-2.6-0.4-3.3-0.9L11.2,16.5z M19.2,17.1c-1.7,0-3.3-0.1-4.7-0.3c-1.8-0.3-3-0.7-3.3-0.9c0,0,0,0,0,0l0-0.2c0,0,0,0,0,0
			c0,0,0,0,0,0c0.7,0.5,2.7,0.8,3.3,0.9c1.4,0.2,2.9,0.3,4.6,0.3c1.8,0,3.4-0.1,4.9-0.3c1.2-0.2,2.8-0.6,3.2-0.9c0,0,0,0,0,0v0.2
			c0,0,0,0,0,0c-0.2,0.3-1.5,0.6-3.2,0.9C22.6,17,21,17.1,19.2,17.1z M11.2,15.8c0.2,0.1,1.4,0.6,3.3,0.9c1.4,0.2,2.9,0.3,4.6,0.3
			c1.8,0,3.4-0.1,4.9-0.3c1.6-0.3,2.9-0.6,3.1-0.9v-0.1c-0.4,0.3-2,0.7-3.2,0.9c-1.4,0.2-3.1,0.3-4.9,0.3c-1.7,0-3.3-0.1-4.6-0.3
			c-0.6-0.1-2.6-0.4-3.3-0.9L11.2,15.8z"/>
	</g>
	<g id="_x32_41">
		<path class="st3" d="M19.2,20.8c-3.4,0-6.4-0.9-7-1.1l0.5,0.7c1.1,0.5,4,1.1,6.6,1.1c2.6-0.1,4.9-0.3,6.5-1.1l0.5-0.7
			C25.1,20.2,21.3,20.8,19.2,20.8"/>
	</g>
	<g id="_x32_40">
		<path class="st3" d="M25.9,20.3c-0.1,0.1-0.1,0.2-0.2,0.3c-0.8,0.3-1.9,0.5-2.4,0.6c-1,0.2-2.6,0.4-4,0.4c-3,0-5.5-0.6-6.7-1.1
			l-0.1-0.2l0,0l0.2,0.1c2.1,0.7,4.4,1,6.6,1.1c1.4,0,2.8-0.2,3.9-0.4C24.9,20.7,25.6,20.4,25.9,20.3L25.9,20.3L25.9,20.3z
			 M26.3,19.6C26.3,19.6,26.3,19.6,26.3,19.6c0,0.1-0.1,0.2-0.2,0.3c-0.4,0.1-1.5,0.5-3.1,0.7c-1.1,0.1-1.7,0.3-3.8,0.3
			c-3.9-0.1-6.5-0.9-7.1-1.1l-0.1-0.2c2.3,0.6,4.6,1,7.2,1c1.9,0,2.7-0.2,3.8-0.3c1.9-0.3,2.8-0.6,3.1-0.7c0,0,0,0,0,0L26.3,19.6"/>
	</g>
	<g id="_x32_39">
		<path d="M19.2,21.6c-3.1,0-5.5-0.6-6.7-1.1c0,0,0,0,0,0l-0.1-0.2c0,0,0,0,0,0l0,0c0,0,0,0,0,0l0.2,0.1c1.9,0.7,4.1,1,6.6,1.1
			c1.5,0,3-0.2,3.9-0.4c1.9-0.4,2.5-0.7,2.7-0.7l0.1,0c0,0,0,0,0,0c0,0,0,0,0,0c-0.1,0.1-0.1,0.2-0.2,0.3c0,0,0,0,0,0
			c-0.8,0.3-1.9,0.5-2.5,0.6C22.1,21.5,20.5,21.6,19.2,21.6z M12.5,20.4c1.2,0.5,3.8,1.1,6.7,1.1c1.3,0,3-0.1,4-0.4
			c0.5-0.1,1.7-0.4,2.4-0.6c0.1-0.1,0.1-0.1,0.2-0.2c-0.2,0.1-0.8,0.3-2.6,0.7c-0.9,0.2-2.4,0.4-3.9,0.4c0,0,0,0-0.1,0
			C16.7,21.4,14.4,21,12.5,20.4l-0.1-0.1L12.5,20.4z M19.2,20.9c-3.5-0.1-5.9-0.7-7.1-1.1c0,0,0,0,0,0l-0.1-0.2c0,0,0,0,0,0
			c0,0,0,0,0,0c2.6,0.7,4.9,1,7.1,1c1.7,0,2.5-0.2,3.4-0.3c0.1,0,0.2,0,0.3,0c1.8-0.3,2.7-0.6,3-0.7l0,0c0,0,0,0,0,0c0,0,0,0,0,0
			l0.2-0.1l0,0c0,0,0,0,0,0h0c0,0,0,0,0,0c0,0,0,0,0,0c0,0,0,0,0,0c-0.1,0.1-0.1,0.2-0.2,0.3c0,0,0,0,0,0c-0.5,0.2-1.7,0.5-3.1,0.7
			c-0.2,0-0.3,0-0.4,0.1C21.7,20.8,21,20.9,19.2,20.9z M12.2,19.8c1.1,0.4,3.6,1,7,1.1c1.8,0,2.5-0.1,3.4-0.3c0.1,0,0.3,0,0.4-0.1
			c1.4-0.2,2.5-0.5,3.1-0.7c0-0.1,0.1-0.1,0.1-0.2l-0.1,0c0,0,0,0,0,0c0,0,0,0,0,0l0,0c-0.3,0.1-1.3,0.4-3.1,0.7c-0.1,0-0.2,0-0.3,0
			c-0.9,0.1-1.7,0.2-3.4,0.3c-2.3,0-4.5-0.4-7.1-1L12.2,19.8z"/>
	</g>
	<g id="_x32_38">
		<path class="st3" d="M26.3,15.8c0,2.3-1.1,4.3-2.1,5.2c-1.3,1.3-3.1,2.1-5.1,2.1c-2.3,0-4.4-1.4-5-2.1c-1.1-1.3-2-2.9-2.1-5.1
			c0.1-2.5,1.1-4.2,2.5-5.3c1.4-1.2,3.3-1.7,4.8-1.7c1.8,0,3.9,0.9,5.3,2.7C25.7,12.7,26.1,13.9,26.3,15.8L26.3,15.8z M19.2,8.1
			c4.4,0,7.9,3.5,7.9,7.9c0,4.3-3.6,7.9-7.9,7.9c-4.4,0-7.9-3.5-7.9-7.9C11.3,11.7,14.8,8.1,19.2,8.1"/>
	</g>
	<g id="_x32_37">
		<path d="M19.2,24c-4.4,0-7.9-3.6-7.9-7.9c0-4.4,3.6-7.9,7.9-7.9c4.4,0,7.9,3.6,7.9,7.9C27.1,20.4,23.6,24,19.2,24z M19.2,8.1
			c-4.4,0-7.9,3.5-7.9,7.9c0,4.4,3.5,7.9,7.9,7.9c4.4,0,7.9-3.5,7.9-7.9C27.1,11.7,23.5,8.1,19.2,8.1z M19.2,23.8
			c-2.1,0-4-0.8-5.5-2.3c-1.5-1.5-2.3-3.4-2.3-5.5s0.8-4,2.3-5.5c1.5-1.5,3.4-2.3,5.5-2.3c2.1,0,4,0.8,5.5,2.3
			C26.2,12,27,13.9,27,16s-0.8,4-2.3,5.5C23.2,23,21.3,23.8,19.2,23.8z M19.2,8.3c-4.3,0-7.7,3.5-7.7,7.7c0,4.3,3.5,7.7,7.7,7.7
			c4.3,0,7.7-3.5,7.7-7.7C26.9,11.7,23.5,8.3,19.2,8.3z M19.2,23.3c-1.9,0-3.8-0.8-5.1-2.1c-1.4-1.4-2.1-3.2-2.1-5.1
			c0-1.9,0.8-3.8,2.1-5.1c1.4-1.4,3.2-2.1,5.1-2.1c1.9,0,3.8,0.8,5.1,2.1c1.4,1.4,2.1,3.2,2.1,5.1c0,1.9-0.8,3.8-2.1,5.1
			C23,22.5,21.1,23.3,19.2,23.3z M19.2,8.8c-4,0-7.2,3.2-7.2,7.2c0,4,3.2,7.2,7.2,7.2c4,0,7.2-3.2,7.2-7.2
			C26.4,12,23.2,8.8,19.2,8.8z M19.2,23.1c-1.9,0-3.7-0.7-5-2.1c-1.3-1.3-2.1-3.1-2.1-5c0-1.9,0.7-3.7,2.1-5c1.3-1.3,3.1-2.1,5-2.1
			c1.9,0,3.7,0.7,5,2.1c1.3,1.3,2.1,3.1,2.1,5c0,1.9-0.7,3.7-2.1,5C22.9,22.4,21.1,23.1,19.2,23.1z M19.2,8.9
			c-3.9,0-7.1,3.2-7.1,7.1c0,3.9,3.2,7.1,7.1,7.1c3.9,0,7.1-3.2,7.1-7.1C26.3,12.1,23.1,8.9,19.2,8.9z"/>
	</g>
	<g id="_x32_36">
		<polygon class="st3" points="19.4,8 19.4,8 18.9,8 18.9,8 18.8,8 18.8,24.1 18.9,24.1 18.9,24 19.5,24 19.5,24.1 19.6,24.1 
			19.6,8 		"/>
	</g>
	<g id="_x32_35">
		<path d="M19.4,24H19c0,0,0,0,0,0c0,0,0,0,0,0L19.4,24C19.5,23.9,19.5,24,19.4,24C19.5,24,19.5,24,19.4,24z M19.4,8.1H19
			c0,0,0,0,0,0s0,0,0,0L19.4,8.1C19.5,8,19.5,8,19.4,8.1C19.5,8.1,19.5,8.1,19.4,8.1z"/>
	</g>
	<g id="_x32_34">
		<path d="M19.6,24.1h-0.2c0,0,0,0,0,0l0-16.1c0,0,0,0,0,0c0,0,0,0,0,0h0.2c0,0,0,0,0,0L19.6,24.1C19.6,24.1,19.6,24.1,19.6,24.1
			C19.6,24.1,19.6,24.1,19.6,24.1z M19.5,24h0.1l0-16.1h-0.1L19.5,24z M19,24.1h-0.2c0,0,0,0,0,0V8c0,0,0,0,0,0c0,0,0,0,0,0H19
			c0,0,0,0,0,0L19,24.1C19,24.1,19,24.1,19,24.1C19,24.1,19,24.1,19,24.1z M18.8,24h0.1l0-16.1h-0.1V24z"/>
	</g>
	<g id="_x32_33">
		<path class="st3" d="M11.2,15.7c1-0.9,4.7-1.5,7.9-1.5c3.3,0,7.1,0.7,7.9,1.5l0,0.7c-0.7-0.7-3.7-1.4-7.9-1.5
			c-4.2,0-7.3,0.8-7.9,1.5L11.2,15.7"/>
	</g>
	<g id="_x32_32">
		<path d="M27.1,16.3C27.1,16.3,27.1,16.3,27.1,16.3l0-0.6c0,0,0,0,0,0c0,0,0,0,0,0L27.1,16.3C27.1,16.3,27.1,16.3,27.1,16.3z
			 M11.2,16.3C11.2,16.3,11.2,16.3,11.2,16.3l0-0.6c0,0,0,0,0,0s0,0,0,0L11.2,16.3C11.3,16.3,11.3,16.3,11.2,16.3z"/>
	</g>
	<g id="_x32_31">
		<path class="st3" d="M19.2,14.8c1.9,0,3.7,0.2,5.1,0.5c1.5,0.3,2.5,0.7,2.9,1.1l0,0.2c-0.4-0.5-1.8-0.9-2.9-1.1
			c-1.4-0.3-3.2-0.5-5.1-0.5c-2,0-3.8,0.2-5.2,0.5c-1.1,0.2-2.6,0.7-2.8,1.1v-0.2c0.1-0.3,1.2-0.8,2.8-1.1
			C15.4,15,17.2,14.8,19.2,14.8L19.2,14.8z M19.2,14.1c1.9,0,3.7,0.2,5.1,0.5c1.5,0.3,2.5,0.7,2.9,1.1l0,0.2
			c-0.4-0.5-1.8-0.9-2.9-1.1c-1.4-0.3-3.2-0.5-5.1-0.5c-2,0-3.8,0.2-5.2,0.5c-1.1,0.2-2.7,0.7-2.8,1.1v-0.2c0.1-0.3,1.2-0.8,2.8-1.1
			C15.4,14.3,17.2,14.1,19.2,14.1"/>
	</g>
	<g id="_x32_30">
		<path d="M11.2,16.6C11.2,16.6,11.2,16.6,11.2,16.6C11.2,16.6,11.2,16.5,11.2,16.6l0-0.2c0,0,0,0,0,0c0.1-0.3,1.3-0.8,2.8-1.1
			c1.5-0.3,3.4-0.5,5.2-0.5l0,0c0,0,0,0,0.1,0c1.8,0,3.6,0.2,5.1,0.5c1.6,0.3,2.6,0.7,2.9,1.1c0,0,0,0,0,0l0,0.2c0,0,0,0,0,0
			c0,0,0,0,0,0c-0.5-0.5-2-0.9-2.9-1.1c-1.5-0.3-3.3-0.5-5-0.5c0,0,0,0-0.1,0c-1.8,0-3.7,0.2-5.2,0.5C12.8,15.7,11.4,16.1,11.2,16.6
			C11.2,16.6,11.2,16.6,11.2,16.6z M19.3,14.9c1.7,0,3.5,0.2,5,0.5c0.9,0.2,2.4,0.5,2.9,1.1l0-0.1c-0.3-0.4-1.3-0.8-2.9-1.1
			c-1.5-0.3-3.3-0.5-5.1-0.5c0,0,0,0-0.1,0l0,0c-1.9,0-3.7,0.2-5.2,0.5c-1.7,0.3-2.7,0.8-2.8,1.1v0.1c0.3-0.5,1.9-0.9,2.8-1
			C15.5,15.1,17.4,14.9,19.3,14.9C19.2,14.9,19.2,14.9,19.3,14.9z M19.2,14.8L19.2,14.8L19.2,14.8z M11.2,15.9
			C11.2,15.9,11.2,15.9,11.2,15.9C11.2,15.9,11.2,15.9,11.2,15.9l0-0.2c0,0,0,0,0,0c0.1-0.3,1.3-0.8,2.8-1.1
			c1.5-0.3,3.4-0.5,5.2-0.5l0,0l0,0c0,0,0,0,0.1,0c1.8,0,3.6,0.2,5.1,0.5c1.6,0.3,2.6,0.7,2.9,1.1c0,0,0,0,0,0l0,0.2c0,0,0,0,0,0
			c0,0,0,0,0,0c-0.5-0.5-2-0.9-2.9-1.1c-1.5-0.3-3.3-0.5-5-0.5c0,0,0,0-0.1,0c-1.8,0-3.7,0.2-5.2,0.5C12.8,15,11.4,15.5,11.2,15.9
			C11.2,15.9,11.2,15.9,11.2,15.9z M19.3,14.3c1.7,0,3.5,0.2,5,0.5c0.9,0.2,2.4,0.5,2.9,1.1l0-0.1c-0.3-0.4-1.3-0.8-2.9-1.1
			c-1.5-0.3-3.3-0.5-5.1-0.5c0,0,0,0-0.1,0l0,0c-1.9,0-3.7,0.2-5.2,0.5c-1.6,0.3-2.7,0.8-2.8,1.1v0.1c0.3-0.4,1.8-0.9,2.8-1
			C15.5,14.4,17.4,14.3,19.3,14.3C19.2,14.3,19.2,14.3,19.3,14.3z"/>
	</g>
	<g id="_x32_29">
		<path class="st3" d="M19.2,10.6c2.9,0,5.5,0.4,6.7,1l0.4,0.7c-1-0.6-3.8-1.1-7.1-1c-2.7,0-5.6,0.3-7.1,1.1l0.5-0.9
			C13.8,11,16.6,10.6,19.2,10.6"/>
	</g>
	<g id="_x32_28">
		<path d="M26.2,12.3C26.2,12.3,26.2,12.3,26.2,12.3l-0.3-0.5c0,0,0,0,0,0c0,0,0,0,0,0L26.2,12.3C26.2,12.2,26.2,12.3,26.2,12.3
			C26.2,12.3,26.2,12.3,26.2,12.3z"/>
	</g>
	<g id="_x32_27">
		<path class="st3" d="M19.2,11.2c1.7,0,3.3,0.1,4.6,0.3c1.2,0.2,2.4,0.6,2.5,0.7l0.1,0.2C26,12.3,25,12,23.8,11.7
			c-1.3-0.2-2.9-0.3-4.6-0.3c-1.9,0-3.4,0.1-4.6,0.3c-1.3,0.3-2.3,0.6-2.5,0.8l0.1-0.2c0.4-0.2,1.2-0.5,2.3-0.7
			C15.8,11.3,17.3,11.3,19.2,11.2L19.2,11.2z M19.2,10.6c1.6,0,3.2,0.1,4.4,0.3c1,0.2,1.9,0.5,2.3,0.8l0.2,0.3
			c-0.3-0.4-1.5-0.7-2.6-0.9c-1.2-0.2-2.8-0.3-4.4-0.3c-1.7,0-3.2,0.1-4.5,0.3c-1.2,0.2-1.9,0.5-2.2,0.7l0.2-0.2
			c0.4-0.2,1.1-0.4,2-0.6C15.9,10.7,17.5,10.6,19.2,10.6"/>
	</g>
	<g id="_x32_26">
		<path d="M26.4,12.6C26.4,12.6,26.4,12.6,26.4,12.6c-0.4-0.3-1.4-0.5-2.7-0.8c-1.1-0.2-2.6-0.3-4.4-0.3c-0.1,0-0.2,0-0.3,0
			c-1.8,0-3.2,0.1-4.5,0.3c-1.3,0.2-2.3,0.6-2.5,0.8c0,0,0,0,0,0c0,0,0,0,0,0l0.1-0.2c0,0,0,0,0,0c0.6-0.3,1.4-0.5,2.3-0.7
			c1.2-0.2,2.5-0.3,4.7-0.3c0,0,0,0,0,0c1.8,0,3.4,0.1,4.6,0.3c1.2,0.2,2.4,0.6,2.5,0.7L26.4,12.6C26.5,12.5,26.5,12.5,26.4,12.6
			C26.4,12.6,26.4,12.6,26.4,12.6z M19.3,11.4c1.8,0,3.3,0.1,4.5,0.3c1.2,0.2,2.2,0.5,2.6,0.8l-0.1-0.1c-0.2-0.2-1.3-0.5-2.5-0.7
			c-1.2-0.2-2.8-0.3-4.6-0.3h0c-2.1,0-3.5,0.1-4.7,0.3c-1,0.2-1.7,0.4-2.3,0.7l-0.1,0.2c0.3-0.2,1.2-0.5,2.4-0.7
			c1.2-0.2,2.7-0.3,4.5-0.3c0.1,0,0.1,0,0.2,0C19.2,11.4,19.3,11.4,19.3,11.4z M26.1,11.9C26.1,11.9,26.1,11.9,26.1,11.9
			c-0.3-0.4-1.6-0.7-2.6-0.9c-1.1-0.2-2.5-0.3-4.4-0.3c-1.8,0-3.3,0.1-4.5,0.3c-1,0.2-1.8,0.4-2.2,0.7c0,0,0,0,0,0c0,0,0,0,0,0
			l0.2-0.2c0,0,0,0,0,0c0.4-0.2,1.1-0.4,2-0.6c1.2-0.2,2.7-0.3,4.5-0.3l0,0c0,0,0.1,0,0.1,0c1.7,0,3.2,0.1,4.3,0.3
			c1,0.2,2,0.5,2.3,0.8c0,0,0,0,0,0L26.1,11.9C26.1,11.9,26.1,11.9,26.1,11.9C26.1,11.9,26.1,11.9,26.1,11.9z M19.2,10.7
			c1.8,0,3.2,0.1,4.4,0.3c0.9,0.2,2,0.4,2.5,0.8l-0.1-0.2c-0.3-0.2-1.2-0.5-2.3-0.7c-1.1-0.2-2.7-0.3-4.4-0.3l0,0
			c-1.8,0-3.3,0.1-4.5,0.3c-0.9,0.2-1.6,0.4-2,0.6l-0.1,0.2c0.4-0.2,1.2-0.5,2.1-0.6C15.9,10.8,17.4,10.7,19.2,10.7z"/>
	</g>
	<g id="_x32_25">
		<path class="st3" d="M23.1,19.3C21.7,19,20.2,19,19.2,19c-4.9,0.1-6.5,1-6.7,1.3l-0.4-0.6c1.3-0.9,3.9-1.4,7.1-1.4
			c1.6,0,3.1,0.1,4.2,0.4L23.1,19.3"/>
	</g>
	<g id="_x32_24">
		<path d="M12.5,20.2C12.4,20.2,12.4,20.2,12.5,20.2l-0.3-0.4c0,0,0,0,0,0c0,0,0,0,0,0L12.5,20.2C12.5,20.2,12.5,20.2,12.5,20.2
			C12.5,20.2,12.5,20.2,12.5,20.2z"/>
	</g>
	<g id="_x32_23">
		<path class="st3" d="M19.2,18.9c1.4,0,2.7,0.1,4,0.3l-0.1,0.2c-1.2-0.2-2.5-0.3-3.9-0.3c-1.8,0-3.6,0.2-5.2,0.6
			c-0.5,0.1-1.3,0.5-1.4,0.7l-0.1-0.2c0-0.2,0.5-0.5,1.5-0.8C15.7,19,17.4,18.9,19.2,18.9L19.2,18.9z M19.2,18.2
			c1.4,0,2.9,0.1,4.3,0.4l-0.1,0.2c-1.3-0.3-2.5-0.3-4.2-0.4c-1.8,0-3.7,0.1-5.5,0.6c-0.6,0.2-1.5,0.5-1.6,0.8l-0.1-0.2
			c0-0.3,0.9-0.6,1.6-0.8C15.5,18.4,17.4,18.2,19.2,18.2"/>
	</g>
	<g id="_x32_22">
		<path d="M12.5,20.5C12.5,20.5,12.5,20.5,12.5,20.5l-0.1-0.2c0,0,0,0,0,0c0-0.2,0.6-0.5,1.5-0.8c1.7-0.5,3.4-0.6,5.3-0.6
			c0,0,0,0,0,0c1.3,0,2.7,0.1,4,0.3c0,0,0,0,0,0c0,0,0,0,0,0l-0.1,0.2c0,0,0,0,0,0c-1.1-0.2-2.4-0.3-3.9-0.3c-2,0-3.8,0.2-5.2,0.6
			C13.4,19.9,12.6,20.2,12.5,20.5C12.5,20.5,12.5,20.5,12.5,20.5C12.5,20.5,12.5,20.5,12.5,20.5z M12.4,20.3l0.1,0.1
			c0.2-0.3,0.9-0.6,1.4-0.7c1.5-0.4,3.2-0.6,5.2-0.6c1.5,0,2.8,0.1,3.9,0.3l0.1-0.1c-1.3-0.2-2.7-0.3-4-0.3c-1.9,0-3.5,0.1-5.3,0.6
			C13,19.8,12.5,20.1,12.4,20.3z M12.2,19.9C12.2,19.9,12.1,19.9,12.2,19.9L12,19.7c0,0,0,0,0,0c0-0.3,1.3-0.7,1.6-0.8
			c1.5-0.4,3.3-0.6,5.5-0.7c0,0,0,0,0,0c1.4,0,2.9,0.1,4.3,0.4c0,0,0,0,0,0c0,0,0,0,0,0l-0.1,0.2c0,0,0,0,0,0
			c-1.4-0.3-2.7-0.3-4.2-0.4c-2.3,0-4,0.2-5.5,0.6C13,19.3,12.2,19.6,12.2,19.9C12.2,19.9,12.2,19.9,12.2,19.9
			C12.2,19.9,12.2,19.9,12.2,19.9z M12.1,19.7l0.1,0.1c0.2-0.3,1.4-0.7,1.6-0.8c1.5-0.4,3.2-0.6,5.5-0.6c1.5,0,2.8,0.1,4.2,0.4
			l0.1-0.1c-1.4-0.3-2.9-0.3-4.3-0.4c-2.3,0-4,0.2-5.5,0.6C12.7,19.2,12.1,19.5,12.1,19.7z"/>
	</g>
	<g id="_x32_21">
		<path class="st3" d="M12.6,11.6c2.4,0,13.7,6.9,13.7,8.1l-0.7,1.1c-0.3-1.5-11.7-8.2-13.6-8.1L12.6,11.6"/>
	</g>
	<g id="_x32_20">
		<path d="M25.6,20.7C25.6,20.7,25.6,20.7,25.6,20.7C25.6,20.7,25.6,20.7,25.6,20.7l0.6-1c0,0,0,0,0,0c0,0,0,0,0,0L25.6,20.7
			C25.6,20.7,25.6,20.7,25.6,20.7z M12,12.7C12,12.7,12,12.7,12,12.7C12,12.7,12,12.6,12,12.7l0.5-1.1c0,0,0,0,0,0c0,0,0,0,0,0
			L12,12.7C12,12.7,12,12.7,12,12.7z"/>
	</g>
	<g id="_x32_19">
		<path class="st3" d="M11.9,12.7c0.5-0.3,3.8,1.2,7.2,3.3c3.5,2.1,6.8,4.5,6.5,4.9L25.5,21l0,0c0,0,0.1-0.1,0-0.2
			c-0.1-0.5-2.5-2.4-6.4-4.7c-3.8-2.3-7-3.6-7.3-3.2L11.9,12.7L11.9,12.7L11.9,12.7z M26.3,19.8c0.3-0.6-2.8-2.9-6.6-5.1
			c-3.9-2.2-6.7-3.5-7.2-3.1l-0.1,0.2c0,0,0,0,0,0c0.1-0.1,0.2-0.1,0.3-0.1c0.9,0,3.4,1.2,7,3.2c1.6,0.9,6.6,4.1,6.5,5
			c0,0.1,0,0.1,0,0.1L26.3,19.8"/>
	</g>
	<g id="_x32_18">
		<path d="M25.5,21.1C25.5,21.1,25.5,21.1,25.5,21.1C25.4,21,25.4,21,25.5,21.1L25.5,21.1c0,0,0-0.1,0-0.2c-0.2-0.5-2.6-2.4-6.4-4.7
			c-4-2.4-7-3.6-7.3-3.2c0,0,0,0,0,0c0,0,0,0,0,0l0.1-0.2c0,0,0,0,0,0c0.5-0.3,3.8,1.2,7.3,3.3c3.1,1.9,6.4,4.2,6.5,4.8
			c0,0.1,0,0.1,0,0.1L25.5,21.1C25.5,21,25.5,21,25.5,21.1L25.5,21.1L25.5,21.1C25.5,21.1,25.5,21.1,25.5,21.1
			C25.5,21.1,25.5,21.1,25.5,21.1z M12,12.8c0.9,0,3.8,1.4,7.1,3.3c3.8,2.3,6.2,4.2,6.4,4.7c0,0.1,0,0.1,0,0.2l0.1-0.1
			c0,0,0-0.1,0-0.1c-0.1-0.6-3.4-3-6.5-4.8C15.7,13.9,12.4,12.4,12,12.8l-0.2,0C11.9,12.8,11.9,12.8,12,12.8z M26.2,20
			C26.2,20,26.2,20,26.2,20C26.2,20,26.2,20,26.2,20L26.2,20c0-0.1,0-0.1,0-0.1l0,0c0-0.9-5.1-4.2-6.5-5c-3.5-2-6.1-3.2-6.9-3.2l0,0
			c-0.1,0-0.2,0-0.3,0.1c0,0,0,0,0,0c0,0,0,0,0,0c0,0,0,0,0,0c0,0,0,0,0,0l0.1-0.2c0,0,0,0,0,0c0.6-0.5,4.3,1.4,7.3,3.1
			c3.4,2,6.9,4.5,6.6,5.2c0,0,0,0,0,0L26.2,20C26.2,20,26.2,20,26.2,20C26.2,20,26.2,20,26.2,20z M12.7,11.6c0.9,0,3.4,1.2,7,3.2
			c1,0.6,6.6,4.1,6.6,5l0,0l0.1-0.1c0.3-0.5-2.6-2.8-6.6-5.1c-4.2-2.4-6.7-3.5-7.2-3.1l-0.1,0.1C12.5,11.6,12.6,11.6,12.7,11.6
			L12.7,11.6z M26.3,19.8L26.3,19.8L26.3,19.8z"/>
	</g>
	<g id="_x32_17">
		<path class="st4" d="M14.4,16.9c0,1.3,0.5,2.5,1.4,3.3c0.9,0.9,2,1.4,3.3,1.4c1.3,0,2.5-0.5,3.4-1.4c0.9-0.9,1.4-2,1.4-3.4h0v-6.3
			l-9.5,0L14.4,16.9"/>
	</g>
	<g id="_x32_16">
		<path d="M19.2,21.7c-1.3,0-2.4-0.5-3.4-1.4c-0.9-0.9-1.4-2.1-1.4-3.4l0-6.4l0,0l9.5,0v6.4c0,1.3-0.5,2.5-1.4,3.4
			C21.7,21.2,20.5,21.7,19.2,21.7z M14.5,10.6l0,6.3c0,1.2,0.5,2.4,1.4,3.3c0.9,0.9,2.1,1.4,3.3,1.4c1.3,0,2.4-0.5,3.3-1.4
			c0.9-0.9,1.4-2.1,1.4-3.3v-6.3L14.5,10.6z"/>
	</g>
	<g id="_x32_15">
		<path class="st5" d="M14.6,16.9L14.6,16.9c0,1.2,0.5,2.4,1.3,3.2c0.8,0.8,2,1.3,3.2,1.3c1.3,0,2.4-0.5,3.2-1.3
			c0.8-0.8,1.3-2,1.3-3.2v-6.1l-9.1,0L14.6,16.9 M21.9,12.6l0,3.9l0,0.4c0,0.1,0,0.2,0,0.3c-0.1,0.6-0.4,1.2-0.8,1.6
			c-0.5,0.5-1.2,0.8-1.9,0.8c-0.7,0-1.4-0.3-1.9-0.8c-0.5-0.5-0.8-1.2-0.8-1.9l0-4.3L21.9,12.6"/>
	</g>
	<g id="_x32_14">
		<path d="M19.2,21.5c-1.2,0-2.4-0.5-3.2-1.3c-0.9-0.9-1.3-2-1.3-3.2l0,0v0c0,1.2,0.5,2.3,1.3,3.2C16.8,20.9,18,21.4,19.2,21.5
			c1.2,0,2.3-0.5,3.2-1.4c0.9-0.9,1.3-2,1.3-3.2v-6.1l-9.1,0l0,6.1h0l0-6.2l9.1,0v6.2c0,1.2-0.5,2.4-1.3,3.2
			C21.6,21,20.4,21.5,19.2,21.5z M19.2,19.6c-0.7,0-1.4-0.3-1.9-0.8c-0.5-0.5-0.8-1.2-0.8-1.9l0-4.3h0l5.4,0l0.1,0l0,0l0,3.9l0,0.4
			c0,0.1,0,0.2,0,0.3c-0.1,0.6-0.3,1.1-0.8,1.6C20.6,19.4,19.9,19.6,19.2,19.6z M16.5,12.6l0,4.3c0,0.7,0.3,1.4,0.8,1.9
			c0.5,0.5,1.2,0.8,1.9,0.8c0.7,0,1.4-0.3,1.9-0.8c0.4-0.4,0.7-1,0.8-1.6c0-0.1,0-0.2,0-0.3l0-0.4l0-3.9L16.5,12.6z"/>
	</g>
	<g id="_x32_13">
		<path class="st6" d="M18.6,16.2L18.6,16.2c0,0.2,0.1,0.3,0.2,0.5c0.1,0.1,0.3,0.2,0.4,0.2c0.2,0,0.3-0.1,0.4-0.2
			c0.1-0.1,0.2-0.3,0.2-0.5v-0.9l-1.2,0L18.6,16.2"/>
	</g>
	<g id="_x32_12">
		<path class="st6" d="M18.6,18.3L18.6,18.3c0,0.2,0.1,0.3,0.2,0.5c0.1,0.1,0.3,0.2,0.4,0.2c0.2,0,0.3-0.1,0.4-0.2
			c0.1-0.1,0.2-0.3,0.2-0.5v-0.9l-1.2,0L18.6,18.3"/>
	</g>
	<g id="_x32_11">
		<path class="st6" d="M16.9,16.2L16.9,16.2c0,0.2,0.1,0.3,0.2,0.5c0.1,0.1,0.3,0.2,0.4,0.2c0.2,0,0.3-0.1,0.4-0.2
			c0.1-0.1,0.2-0.3,0.2-0.5v-0.9l-1.2,0L16.9,16.2"/>
	</g>
	<g id="_x32_10">
		<path class="st6" d="M20.3,16.2L20.3,16.2c0,0.2,0.1,0.3,0.2,0.5c0.1,0.1,0.3,0.2,0.4,0.2c0.2,0,0.3-0.1,0.4-0.2
			c0.1-0.1,0.2-0.3,0.2-0.5v-0.9l-1.2,0L20.3,16.2"/>
	</g>
	<g id="_x32_09">
		<path class="st6" d="M18.6,14.1L18.6,14.1c0,0.2,0.1,0.3,0.2,0.5c0.1,0.1,0.3,0.2,0.4,0.2c0.2,0,0.3-0.1,0.4-0.2
			c0.1-0.1,0.2-0.3,0.2-0.5v-0.9l-1.2,0L18.6,14.1"/>
	</g>
	<g id="_x32_08">
		<polyline class="st3" points="16.1,11.3 16.1,11.6 15.8,11.6 15.8,11.3 16.1,11.3 		"/>
	</g>
	<g id="_x32_07">
		<path class="st3" d="M15.2,12.4c0-0.4,0.3-0.5,0.3-0.5c0,0,0.3,0.1,0.3,0.6L15.2,12.4"/>
	</g>
	<g id="_x32_06">
		<path class="st3" d="M14.9,11.8l-0.1,0.5l0.3,0c0-0.4,0.3-0.5,0.3-0.5c0,0,0.3,0.1,0.3,0.5h0.3l-0.1-0.5L14.9,11.8"/>
	</g>
	<g id="_x32_05">
		<path d="M15.2,12.3l-0.4,0l0.1-0.5l1.2,0l0.1,0.6h-0.4l0,0c0-0.4-0.3-0.5-0.3-0.5C15.5,11.9,15.2,11.9,15.2,12.3L15.2,12.3z
			 M15.9,12.3h0.3l-0.1-0.5l-0.5,0c0,0,0.1,0,0.1,0.1C15.8,12,15.9,12.1,15.9,12.3z M14.9,12.3l0.3,0c0-0.2,0.1-0.3,0.2-0.4
			c0,0,0.1,0,0.1-0.1l-0.5,0L14.9,12.3z"/>
	</g>
	<g id="_x32_04">
		<path class="st3" d="M14.9,12.3h1.4c0,0,0.1,0,0.1,0.1c0,0,0,0.1-0.1,0.1h-1.4C14.8,12.4,14.8,12.4,14.9,12.3
			C14.8,12.4,14.8,12.3,14.9,12.3"/>
	</g>
	<g id="_x32_03">
		<path d="M16.2,12.5h-1.4c0,0-0.1,0-0.1-0.1c0,0,0-0.1,0.1-0.1h1.4C16.3,12.3,16.3,12.3,16.2,12.5C16.3,12.4,16.3,12.5,16.2,12.5z
			 M14.9,12.3C14.9,12.3,14.8,12.4,14.9,12.3C14.8,12.4,14.9,12.4,14.9,12.3l1.4,0.1c0,0,0,0,0,0c0,0,0,0,0,0H14.9z"/>
	</g>
	<g id="_x32_02">
		<path class="st3" d="M15.4,12.3c0-0.3,0.2-0.3,0.2-0.3c0,0,0.2,0.1,0.2,0.3H15.4"/>
	</g>
	<g id="_x32_01">
		<path d="M15.8,12.3h-0.4l0,0c0-0.3,0.2-0.4,0.2-0.4l0,0C15.6,12,15.7,12,15.8,12.3L15.8,12.3z M15.4,12.3h0.3
			c0-0.2-0.1-0.3-0.2-0.3C15.5,12,15.4,12.1,15.4,12.3z"/>
	</g>
	<g id="_x32_00">
		<path class="st3" d="M14.9,11.6h1.3c0,0,0,0,0,0.1c0,0,0,0.1,0,0.1h-1.3C14.9,11.7,14.8,11.7,14.9,11.6
			C14.8,11.6,14.9,11.6,14.9,11.6"/>
	</g>
	<g id="_x31_99">
		<path d="M16.2,11.7h-1.3c0,0-0.1,0-0.1-0.1c0,0,0-0.1,0.1-0.1h1.3C16.2,11.6,16.3,11.6,16.2,11.7C16.3,11.7,16.2,11.7,16.2,11.7z
			 M14.9,11.6C14.9,11.6,14.9,11.6,14.9,11.6C14.9,11.7,14.9,11.7,14.9,11.6l1.3,0.1c0,0,0,0,0,0c0,0,0,0,0,0H14.9z"/>
	</g>
	<g id="_x31_98">
		<path class="st3" d="M14.9,11.7h1.2c0,0,0,0,0,0.1c0,0,0,0.1,0,0.1h-1.2C14.9,11.8,14.9,11.8,14.9,11.7
			C14.9,11.7,14.9,11.7,14.9,11.7"/>
	</g>
	<g id="_x31_97">
		<path d="M16.2,11.9h-1.2c0,0-0.1,0-0.1-0.1c0,0,0-0.1,0.1-0.1h1.2C16.2,11.7,16.2,11.7,16.2,11.9C16.2,11.8,16.2,11.9,16.2,11.9z
			 M14.9,11.7C14.9,11.7,14.9,11.8,14.9,11.7C14.9,11.8,14.9,11.8,14.9,11.7l1.2,0.1c0,0,0,0,0,0c0,0,0,0,0,0H14.9z"/>
	</g>
	<g id="_x31_96">
		<path class="st3" d="M15.3,10.9L15.3,10.9L15.3,10.9l0.2,0.1v-0.1l0.1,0v0.1h0.1v-0.1l0.1,0l0,0.2c0,0,0,0,0,0h-0.3c0,0,0,0,0,0
			V10.9"/>
	</g>
	<g id="_x31_95">
		<path d="M15.7,11.1h-0.4c0,0-0.1,0-0.1-0.1l0-0.2l0.1,0v0.1h0v-0.1h0.1v0.1h0v-0.1h0.1L15.7,11.1C15.8,11.1,15.8,11.1,15.7,11.1z
			 M15.3,10.9l0,0.1c0,0,0,0,0,0h0.4c0,0,0,0,0,0l0-0.1h-0.1V11h-0.1v-0.1h-0.1V11L15.3,10.9L15.3,10.9L15.3,10.9z"/>
	</g>
	<g id="_x31_94">
		<polyline class="st3" points="15.7,11.1 15.7,11.6 15.4,11.6 15.4,11.1 15.7,11.1 		"/>
	</g>
	<g id="_x31_93">
		<path d="M15.7,11.6l-0.4,0l0-0.6l0.3,0L15.7,11.6z M15.4,11.6l0.3,0l0-0.5l-0.3,0L15.4,11.6z"/>
	</g>
	<g id="_x31_92">
		<path class="st3" d="M15.8,11.1L15.8,11.1L15.8,11.1l0.2,0.1v-0.1l0.1,0v0.1h0.1v-0.1h0.1v0.2c0,0,0,0,0,0h-0.3c0,0,0,0,0,0V11.1"
			/>
	</g>
	<g id="_x31_91">
		<path d="M16.2,11.6h-0.4l0-0.3h0.3v0l0,0L16.2,11.6z M15.8,11.6h0.3l0-0.2h-0.3L15.8,11.6z"/>
	</g>
	<g id="_x31_90">
		<path d="M16.1,11.3h-0.3c0,0-0.1,0-0.1-0.1v-0.2l0.1,0v0.1h0v-0.1l0.1,0v0.1h0v-0.1h0.1L16.1,11.3C16.2,11.3,16.2,11.3,16.1,11.3z
			 M15.8,11.1v0.1c0,0,0,0,0,0h0.3c0,0,0,0,0,0v-0.1h-0.1v0.1H16v-0.1l-0.1,0v0.1L15.8,11.1L15.8,11.1L15.8,11.1z"/>
	</g>
	<g id="_x31_89">
		<path class="st3" d="M14.9,11.1L14.9,11.1L14.9,11.1l0.2,0.1v-0.1l0.1,0v0.1h0.1v-0.1h0.1v0.2c0,0,0,0,0,0h-0.3c0,0,0,0,0,0
			L14.9,11.1"/>
	</g>
	<g id="_x31_88">
		<path d="M15.3,11.3h-0.3c0,0-0.1,0-0.1-0.1l0-0.2l0,0l0.1,0v0.1h0v-0.1l0.1,0v0.1h0v-0.1h0.1L15.3,11.3
			C15.4,11.3,15.3,11.3,15.3,11.3z M14.9,11.1l0,0.1c0,0,0,0,0,0h0.3c0,0,0,0,0,0v-0.1h-0.1v0.1h-0.1v-0.1l-0.1,0v0.1L14.9,11.1
			L14.9,11.1L14.9,11.1z"/>
	</g>
	<g id="_x31_87">
		<polyline class="st3" points="15.3,11.3 15.3,11.6 15,11.6 15,11.3 15.3,11.3 		"/>
	</g>
	<g id="_x31_86">
		<path d="M15.3,11.6h-0.4l0-0.3h0.3l0,0L15.3,11.6z M15,11.6h0.3l0-0.2H15L15,11.6z"/>
	</g>
	<g id="_x31_85">
		<path class="st7" d="M15.5,11.2C15.5,11.2,15.6,11.2,15.5,11.2l0.1,0.1h-0.1V11.2"/>
	</g>
	<g id="_x31_84">
		<path class="st7" d="M15.9,11.4C15.9,11.4,16,11.4,15.9,11.4L15.9,11.4L15.9,11.4L15.9,11.4"/>
	</g>
	<g id="_x31_83">
		<path class="st7" d="M15.1,11.4C15.1,11.4,15.2,11.4,15.1,11.4L15.1,11.4L15.1,11.4L15.1,11.4"/>
	</g>
	<g id="_x31_82">
		<polyline class="st3" points="19.8,11.3 19.8,11.6 19.5,11.6 19.5,11.3 19.8,11.3 		"/>
	</g>
	<g id="_x31_81">
		<path class="st3" d="M18.9,12.4c0-0.4,0.3-0.5,0.3-0.5c0,0,0.3,0.1,0.3,0.6L18.9,12.4"/>
	</g>
	<g id="_x31_80">
		<path class="st3" d="M18.6,11.8l-0.1,0.5l0.3,0c0-0.4,0.3-0.5,0.3-0.5c0,0,0.3,0.1,0.3,0.5h0.3l-0.1-0.5L18.6,11.8"/>
	</g>
	<g id="_x31_79">
		<path d="M18.9,12.3l-0.4,0l0.1-0.5l1.2,0l0.1,0.6h-0.4l0,0c0-0.4-0.3-0.5-0.3-0.5C19.2,11.9,18.9,11.9,18.9,12.3L18.9,12.3z
			 M19.6,12.3h0.3l-0.1-0.5l-0.5,0c0,0,0.1,0,0.1,0.1C19.5,12,19.5,12.1,19.6,12.3z M18.6,12.3l0.3,0c0-0.2,0.1-0.3,0.2-0.4
			c0,0,0.1,0,0.1-0.1l-0.5,0L18.6,12.3z"/>
	</g>
	<g id="_x31_78">
		<path class="st3" d="M18.5,12.3h1.4c0,0,0.1,0,0.1,0.1c0,0,0,0.1-0.1,0.1h-1.4C18.5,12.4,18.5,12.4,18.5,12.3
			C18.5,12.4,18.5,12.3,18.5,12.3"/>
	</g>
	<g id="_x31_77">
		<path d="M19.9,12.5h-1.4c0,0-0.1,0-0.1-0.1c0,0,0-0.1,0.1-0.1h1.4C19.9,12.3,20,12.3,19.9,12.5C20,12.4,19.9,12.5,19.9,12.5z
			 M18.5,12.3C18.5,12.3,18.5,12.4,18.5,12.3C18.5,12.4,18.5,12.4,18.5,12.3l1.4,0.1c0,0,0,0,0,0c0,0,0,0,0,0H18.5z"/>
	</g>
	<g id="_x31_76">
		<path class="st3" d="M19,12.3c0-0.3,0.2-0.3,0.2-0.3c0,0,0.2,0.1,0.2,0.3H19"/>
	</g>
	<g id="_x31_75">
		<path d="M19.4,12.3H19l0,0c0-0.3,0.2-0.4,0.2-0.4l0,0C19.2,12,19.4,12,19.4,12.3L19.4,12.3z M19,12.3h0.3c0-0.2-0.1-0.3-0.2-0.3
			C19.2,12,19,12.1,19,12.3z"/>
	</g>
	<g id="_x31_74">
		<path class="st3" d="M18.6,11.6h1.3c0,0,0.1,0,0.1,0.1c0,0,0,0.1-0.1,0.1h-1.3C18.5,11.7,18.5,11.7,18.6,11.6
			C18.5,11.6,18.5,11.6,18.6,11.6"/>
	</g>
	<g id="_x31_73">
		<path d="M19.9,11.7h-1.3c0,0-0.1,0-0.1-0.1c0,0,0-0.1,0.1-0.1h1.3C19.9,11.6,19.9,11.6,19.9,11.7C19.9,11.7,19.9,11.7,19.9,11.7z
			 M18.6,11.6C18.5,11.6,18.5,11.6,18.6,11.6C18.5,11.7,18.5,11.7,18.6,11.6l1.3,0.1c0,0,0,0,0,0c0,0,0,0,0,0H18.6z"/>
	</g>
	<g id="_x31_72">
		<path class="st3" d="M18.6,11.7h1.2c0,0,0,0,0,0.1c0,0,0,0.1,0,0.1h-1.2C18.6,11.8,18.5,11.8,18.6,11.7
			C18.5,11.7,18.6,11.7,18.6,11.7"/>
	</g>
	<g id="_x31_71">
		<path d="M19.8,11.9h-1.2c0,0-0.1,0-0.1-0.1c0,0,0-0.1,0.1-0.1h1.2C19.9,11.7,19.9,11.7,19.8,11.9C19.9,11.8,19.9,11.9,19.8,11.9z
			 M18.6,11.7C18.6,11.7,18.6,11.8,18.6,11.7C18.6,11.8,18.6,11.8,18.6,11.7l1.2,0.1c0,0,0,0,0,0c0,0,0,0,0,0H18.6z"/>
	</g>
	<g id="_x31_70">
		<path class="st3" d="M19,10.9L19,10.9L19,10.9l0.2,0.1v-0.1l0.1,0v0.1h0.1v-0.1l0.1,0V11c0,0,0,0,0,0H19c0,0,0,0,0,0V10.9"/>
	</g>
	<g id="_x31_69">
		<path d="M19.4,11.1H19c0,0-0.1,0-0.1-0.1l0-0.2l0.1,0v0.1h0v-0.1h0.1v0.1h0v-0.1h0.1L19.4,11.1C19.4,11.1,19.4,11.1,19.4,11.1z
			 M19,10.9l0,0.1c0,0,0,0,0,0h0.4c0,0,0,0,0,0v-0.1h-0.1V11h-0.1v-0.1h-0.1V11L19,10.9L19,10.9L19,10.9z"/>
	</g>
	<g id="_x31_68">
		<polyline class="st3" points="19.4,11.1 19.4,11.6 19,11.6 19.1,11.1 19.4,11.1 		"/>
	</g>
	<g id="_x31_67">
		<path d="M19.4,11.6l-0.4,0l0-0.6l0.3,0L19.4,11.6z M19.1,11.6l0.3,0l0-0.5l-0.3,0L19.1,11.6z"/>
	</g>
	<g id="_x31_66">
		<path class="st3" d="M19.4,11.1L19.4,11.1L19.4,11.1l0.2,0.1v-0.1l0.1,0v0.1h0.1v-0.1h0.1v0.2c0,0,0,0,0,0h-0.3c0,0,0,0,0,0V11.1"
			/>
	</g>
	<g id="_x31_65">
		<path d="M19.8,11.6h-0.4l0-0.3h0.3v0l0,0L19.8,11.6z M19.5,11.6h0.3l0-0.2h-0.3L19.5,11.6z"/>
	</g>
	<g id="_x31_64">
		<path d="M19.8,11.3h-0.3c0,0-0.1,0-0.1-0.1l0-0.2l0.1,0v0.1h0v-0.1l0.1,0v0.1h0v-0.1h0.1L19.8,11.3C19.9,11.3,19.8,11.3,19.8,11.3
			z M19.4,11.1l0,0.1c0,0,0,0,0,0h0.3c0,0,0,0,0,0v-0.1h-0.1v0.1h-0.1v-0.1l-0.1,0v0.1L19.4,11.1L19.4,11.1L19.4,11.1z"/>
	</g>
	<g id="_x31_63">
		<path class="st3" d="M18.6,11.1L18.6,11.1L18.6,11.1l0.2,0.1v-0.1l0.1,0v0.1h0.1v-0.1H19l0,0.2c0,0,0,0,0,0h-0.3c0,0,0,0,0,0
			L18.6,11.1"/>
	</g>
	<g id="_x31_62">
		<path d="M19,11.3h-0.3c0,0-0.1,0-0.1-0.1l0-0.2l0,0l0.1,0v0.1h0v-0.1l0.1,0v0.1h0v-0.1H19L19,11.3C19,11.3,19,11.3,19,11.3z
			 M18.6,11.1l0,0.1c0,0,0,0,0,0H19c0,0,0,0,0,0l0-0.1h-0.1v0.1h-0.1v-0.1l-0.1,0v0.1L18.6,11.1L18.6,11.1L18.6,11.1z"/>
	</g>
	<g id="_x31_61">
		<polyline class="st3" points="18.9,11.3 18.9,11.6 18.6,11.6 18.6,11.3 18.9,11.3 		"/>
	</g>
	<g id="_x31_60">
		<path d="M19,11.6h-0.4l0-0.3h0.3v0l0,0L19,11.6z M18.6,11.6h0.3l0-0.2h-0.3L18.6,11.6z"/>
	</g>
	<g id="_x31_59">
		<path class="st7" d="M19.2,11.2C19.2,11.2,19.2,11.2,19.2,11.2l0.1,0.1h-0.1V11.2"/>
	</g>
	<g id="_x31_58">
		<path class="st7" d="M19.6,11.4C19.6,11.4,19.7,11.4,19.6,11.4L19.6,11.4L19.6,11.4L19.6,11.4"/>
	</g>
	<g id="_x31_57">
		<path class="st7" d="M18.7,11.4C18.7,11.4,18.8,11.4,18.7,11.4L18.7,11.4L18.7,11.4L18.7,11.4"/>
	</g>
	<g id="_x31_56">
		<polyline class="st3" points="23.4,11.3 23.4,11.6 23.1,11.6 23.1,11.3 23.4,11.3 		"/>
	</g>
	<g id="_x31_55">
		<path class="st3" d="M22.5,12.4c0-0.4,0.3-0.5,0.3-0.5c0,0,0.3,0.1,0.3,0.6L22.5,12.4"/>
	</g>
	<g id="_x31_54">
		<path class="st3" d="M22.2,11.8l-0.1,0.5l0.3,0c0-0.4,0.3-0.5,0.3-0.5c0,0,0.3,0.1,0.3,0.5h0.3l-0.1-0.5L22.2,11.8"/>
	</g>
	<g id="_x31_53">
		<path d="M22.5,12.3l-0.4,0l0.1-0.5l1.2,0l0.1,0.6h-0.4l0,0c0-0.4-0.3-0.5-0.3-0.5C22.8,11.9,22.5,11.9,22.5,12.3L22.5,12.3z
			 M23.2,12.3h0.3l-0.1-0.5l-0.5,0c0,0,0.1,0,0.1,0.1C23.1,12,23.2,12.1,23.2,12.3z M22.2,12.3l0.3,0c0-0.2,0.1-0.3,0.2-0.4
			c0,0,0.1,0,0.1-0.1l-0.5,0L22.2,12.3z"/>
	</g>
	<g id="_x31_52">
		<path class="st3" d="M22.1,12.3h1.4c0,0,0.1,0,0.1,0.1c0,0,0,0.1-0.1,0.1h-1.4C22.1,12.4,22.1,12.4,22.1,12.3
			C22.1,12.4,22.1,12.3,22.1,12.3"/>
	</g>
	<g id="_x31_51">
		<path d="M23.5,12.5h-1.4c0,0-0.1,0-0.1-0.1c0,0,0-0.1,0.1-0.1h1.4C23.5,12.3,23.6,12.3,23.5,12.5C23.6,12.4,23.5,12.5,23.5,12.5z
			 M22.1,12.3C22.1,12.3,22.1,12.4,22.1,12.3C22.1,12.4,22.1,12.4,22.1,12.3l1.4,0.1c0,0,0,0,0,0c0,0,0,0,0,0H22.1z"/>
	</g>
	<g id="_x31_50">
		<path class="st3" d="M22.6,12.3c0-0.3,0.2-0.3,0.2-0.3c0,0,0.2,0.1,0.2,0.3H22.6"/>
	</g>
	<g id="_x31_49">
		<path d="M23,12.3h-0.4l0,0c0-0.3,0.2-0.4,0.2-0.4C22.8,12,23,12.1,23,12.3L23,12.3z M22.7,12.3H23c0-0.2-0.1-0.3-0.2-0.3
			C22.8,12,22.7,12.1,22.7,12.3z"/>
	</g>
	<g id="_x31_48">
		<path class="st3" d="M22.2,11.6h1.3c0,0,0.1,0,0.1,0.1c0,0,0,0.1-0.1,0.1h-1.3C22.1,11.7,22.1,11.7,22.2,11.6
			C22.1,11.6,22.1,11.6,22.2,11.6"/>
	</g>
	<g id="_x31_47">
		<path d="M23.5,11.7h-1.3c0,0-0.1,0-0.1-0.1c0,0,0-0.1,0.1-0.1h1.3C23.5,11.6,23.5,11.6,23.5,11.7C23.5,11.7,23.5,11.7,23.5,11.7z
			 M22.2,11.6C22.2,11.6,22.1,11.6,22.2,11.6C22.1,11.7,22.2,11.7,22.2,11.6l1.3,0.1c0,0,0,0,0,0c0,0,0,0,0,0H22.2z"/>
	</g>
	<g id="_x31_46">
		<path class="st3" d="M22.2,11.7h1.2c0,0,0,0,0,0.1c0,0,0,0.1,0,0.1h-1.2C22.2,11.8,22.1,11.8,22.2,11.7
			C22.1,11.7,22.2,11.7,22.2,11.7"/>
	</g>
	<g id="_x31_45">
		<path d="M23.4,11.9h-1.2c0,0-0.1,0-0.1-0.1c0,0,0-0.1,0.1-0.1h1.2C23.5,11.7,23.5,11.7,23.4,11.9C23.5,11.8,23.5,11.9,23.4,11.9z
			 M22.2,11.7C22.2,11.7,22.2,11.8,22.2,11.7C22.2,11.8,22.2,11.8,22.2,11.7l1.2,0.1c0,0,0,0,0,0c0,0,0,0,0,0H22.2z"/>
	</g>
	<g id="_x31_44">
		<path class="st3" d="M22.6,10.9L22.6,10.9L22.6,10.9l0.2,0.1v-0.1l0.1,0v0.1h0.1v-0.1l0.1,0V11c0,0,0,0,0,0h-0.3c0,0,0,0,0,0V10.9
			"/>
	</g>
	<g id="_x31_43">
		<path d="M23,11.1h-0.4c0,0-0.1,0-0.1-0.1l0-0.2l0.1,0v0.1h0v-0.1h0.1v0.1h0v-0.1h0.1L23,11.1C23.1,11.1,23,11.1,23,11.1z
			 M22.6,10.9l0,0.1c0,0,0,0,0,0H23c0,0,0,0,0,0v-0.1H23V11h-0.1v-0.1h-0.1V11L22.6,10.9L22.6,10.9L22.6,10.9z"/>
	</g>
	<g id="_x31_42">
		<polyline class="st3" points="23,11.1 23,11.6 22.6,11.6 22.7,11.1 23,11.1 		"/>
	</g>
	<g id="_x31_41">
		<path d="M23,11.6l-0.4,0l0-0.6l0.3,0L23,11.6z M22.7,11.6l0.3,0l0-0.5l-0.3,0L22.7,11.6z"/>
	</g>
	<g id="_x31_40">
		<path class="st3" d="M23,11.1L23,11.1L23,11.1l0.2,0.1v-0.1l0.1,0v0.1h0.1v-0.1h0.1v0.2c0,0,0,0,0,0h-0.3c0,0,0,0,0,0V11.1"/>
	</g>
	<g id="_x31_39">
		<path d="M23.4,11.6h-0.4l0-0.3h0.3v0l0,0L23.4,11.6z M23.1,11.6h0.3l0-0.2h-0.3L23.1,11.6z"/>
	</g>
	<g id="_x31_38">
		<path d="M23.4,11.3h-0.3c0,0-0.1,0-0.1-0.1v-0.2l0.1,0v0.1h0v-0.1l0.1,0v0.1h0v-0.1h0.1L23.4,11.3C23.5,11.3,23.5,11.3,23.4,11.3z
			 M23,11.1v0.1c0,0,0,0,0,0h0.3c0,0,0,0,0,0v-0.1h-0.1v0.1h-0.1v-0.1l-0.1,0v0.1L23,11.1L23,11.1L23,11.1z"/>
	</g>
	<g id="_x31_37">
		<path class="st3" d="M22.2,11.1L22.2,11.1L22.2,11.1l0.2,0.1v-0.1l0.1,0v0.1h0.1v-0.1h0.1l0,0.2c0,0,0,0,0,0h-0.3c0,0,0,0,0,0
			L22.2,11.1"/>
	</g>
	<g id="_x31_36">
		<path d="M22.6,11.3h-0.3c0,0-0.1,0-0.1-0.1l0-0.2l0,0l0.1,0v0.1h0v-0.1l0.1,0v0.1h0v-0.1h0.1L22.6,11.3
			C22.6,11.3,22.6,11.3,22.6,11.3z M22.2,11.1l0,0.1c0,0,0,0,0,0h0.3c0,0,0,0,0,0l0-0.1h-0.1v0.1h-0.1v-0.1l-0.1,0v0.1L22.2,11.1
			L22.2,11.1L22.2,11.1z"/>
	</g>
	<g id="_x31_35">
		<polyline class="st3" points="22.5,11.3 22.6,11.6 22.2,11.6 22.2,11.3 22.5,11.3 		"/>
	</g>
	<g id="_x31_34">
		<path d="M22.6,11.6h-0.4l0-0.3h0.3v0l0,0L22.6,11.6z M22.3,11.6h0.3l0-0.2h-0.3L22.3,11.6z"/>
	</g>
	<g id="_x31_33">
		<path class="st7" d="M22.8,11.2C22.8,11.2,22.9,11.2,22.8,11.2l0.1,0.1h-0.1V11.2"/>
	</g>
	<g id="_x31_32">
		<path class="st7" d="M23.2,11.4C23.2,11.4,23.3,11.4,23.2,11.4L23.2,11.4L23.2,11.4L23.2,11.4"/>
	</g>
	<g id="_x31_31">
		<path class="st7" d="M22.4,11.4C22.4,11.4,22.4,11.4,22.4,11.4L22.4,11.4L22.4,11.4L22.4,11.4"/>
	</g>
	<g id="_x31_30">
		<polyline class="st3" points="16.1,15 16.1,15.3 15.8,15.3 15.8,15 16.1,15 		"/>
	</g>
	<g id="_x31_29">
		<path class="st3" d="M15.2,16.1c0-0.4,0.3-0.5,0.3-0.5c0,0,0.3,0.1,0.3,0.6L15.2,16.1"/>
	</g>
	<g id="_x31_28">
		<path class="st3" d="M14.9,15.5L14.9,16l0.3,0c0-0.4,0.3-0.5,0.3-0.5c0,0,0.3,0.1,0.3,0.5h0.3l-0.1-0.5L14.9,15.5"/>
	</g>
	<g id="_x31_27">
		<path d="M15.2,16l-0.4,0l0.1-0.5l1.2,0l0.1,0.6h-0.4l0,0c0-0.4-0.3-0.5-0.3-0.5C15.5,15.6,15.2,15.6,15.2,16L15.2,16z M15.9,16
			h0.3l-0.1-0.5l-0.5,0c0,0,0.1,0,0.1,0.1C15.8,15.7,15.9,15.8,15.9,16z M14.9,16l0.3,0c0-0.2,0.1-0.3,0.2-0.4c0,0,0.1-0.1,0.1-0.1
			l-0.5,0L14.9,16z"/>
	</g>
	<g id="_x31_26">
		<path class="st3" d="M14.9,16h1.4c0,0,0.1,0,0.1,0.1c0,0,0,0.1-0.1,0.1h-1.4C14.8,16.2,14.8,16.1,14.9,16
			C14.8,16.1,14.8,16,14.9,16"/>
	</g>
	<g id="_x31_25">
		<path d="M16.2,16.2h-1.4c0,0-0.1,0-0.1-0.1c0,0,0-0.1,0.1-0.1h1.4C16.3,16,16.3,16,16.2,16.2C16.3,16.1,16.3,16.2,16.2,16.2z
			 M14.9,16.1C14.9,16.1,14.8,16.1,14.9,16.1C14.8,16.1,14.9,16.1,14.9,16.1l1.4,0.1c0,0,0,0,0,0c0,0,0,0,0,0H14.9z"/>
	</g>
	<g id="_x31_24">
		<path class="st3" d="M15.4,16c0-0.3,0.2-0.3,0.2-0.3c0,0,0.2,0.1,0.2,0.3H15.4"/>
	</g>
	<g id="_x31_23">
		<path d="M15.8,16h-0.4l0,0c0-0.2,0.1-0.3,0.2-0.3c0,0,0,0,0,0C15.6,15.7,15.7,15.8,15.8,16L15.8,16z M15.4,16h0.3
			c0-0.2-0.1-0.3-0.2-0.3C15.5,15.7,15.4,15.8,15.4,16z"/>
	</g>
	<g id="_x31_22">
		<path class="st3" d="M14.9,15.3h1.3c0,0,0,0,0,0.1c0,0,0,0.1,0,0.1h-1.3C14.9,15.4,14.8,15.4,14.9,15.3
			C14.8,15.3,14.9,15.3,14.9,15.3"/>
	</g>
	<g id="_x31_21">
		<path d="M16.2,15.4h-1.3c0,0-0.1,0-0.1-0.1c0,0,0-0.1,0.1-0.1h1.3C16.2,15.3,16.3,15.3,16.2,15.4C16.3,15.4,16.2,15.4,16.2,15.4z
			 M14.9,15.3C14.9,15.3,14.9,15.3,14.9,15.3C14.9,15.4,14.9,15.4,14.9,15.3l1.3,0.1c0,0,0,0,0,0c0,0,0,0,0,0H14.9z"/>
	</g>
	<g id="_x31_20">
		<path class="st3" d="M14.9,15.4h1.2c0,0,0,0,0,0.1c0,0,0,0.1,0,0.1h-1.2C14.9,15.5,14.9,15.5,14.9,15.4
			C14.9,15.4,14.9,15.4,14.9,15.4"/>
	</g>
	<g id="_x31_19">
		<path d="M16.2,15.6h-1.2c0,0-0.1,0-0.1-0.1c0,0,0-0.1,0.1-0.1h1.2C16.2,15.4,16.2,15.4,16.2,15.6C16.2,15.5,16.2,15.6,16.2,15.6z
			 M14.9,15.4C14.9,15.4,14.9,15.5,14.9,15.4C14.9,15.5,14.9,15.5,14.9,15.4l1.2,0.1c0,0,0,0,0,0c0,0,0,0,0,0H14.9z"/>
	</g>
	<g id="_x31_18">
		<path class="st3" d="M15.3,14.6L15.3,14.6L15.3,14.6l0.2,0.1v-0.1l0.1,0v0.1h0.1v-0.1h0.1l0,0.2c0,0,0,0,0,0h-0.3c0,0,0,0,0,0
			V14.6"/>
	</g>
	<g id="_x31_17">
		<path d="M15.7,14.8h-0.4c0,0-0.1,0-0.1-0.1l0-0.2h0.1v0.1h0v-0.1l0.1,0v0.1h0v-0.1h0.1L15.7,14.8C15.8,14.8,15.8,14.8,15.7,14.8z
			 M15.3,14.6l0,0.1c0,0,0,0,0,0h0.4c0,0,0,0,0,0l0-0.1h-0.1v0.1h-0.1v-0.1l-0.1,0v0.1L15.3,14.6L15.3,14.6L15.3,14.6z"/>
	</g>
	<g id="_x31_16">
		<polyline class="st3" points="15.7,14.8 15.7,15.3 15.4,15.3 15.4,14.8 15.7,14.8 		"/>
	</g>
	<g id="_x31_15">
		<path d="M15.7,15.3l-0.4,0l0-0.6l0.3,0L15.7,15.3z M15.4,15.3l0.3,0l0-0.5l-0.3,0L15.4,15.3z"/>
	</g>
	<g id="_x31_14">
		<path class="st3" d="M15.8,14.8L15.8,14.8L15.8,14.8l0.2,0.1v-0.1l0.1,0v0.1h0.1v-0.1l0.1,0V15c0,0,0,0,0,0h-0.3c0,0,0,0,0,0V14.8
			"/>
	</g>
	<g id="_x31_13">
		<path d="M16.2,15.3h-0.4l0-0.3h0.3L16.2,15.3z M15.8,15.3h0.3l0-0.2h-0.3L15.8,15.3z"/>
	</g>
	<g id="_x31_12">
		<path d="M16.1,15h-0.3c0,0-0.1,0-0.1-0.1v-0.2h0.1v0.1h0v-0.1l0.1,0v0.1h0v-0.1l0.1,0L16.1,15C16.2,15,16.2,15,16.1,15z
			 M15.8,14.8V15c0,0,0,0,0,0h0.3c0,0,0,0,0,0v-0.1l-0.1,0v0.1H16v-0.1l-0.1,0v0.1L15.8,14.8L15.8,14.8L15.8,14.8z"/>
	</g>
	<g id="_x31_11">
		<path class="st3" d="M14.9,14.8L14.9,14.8L14.9,14.8l0.2,0.1v-0.1l0.1,0v0.1h0.1v-0.1l0.1,0V15c0,0,0,0,0,0h-0.3c0,0,0,0,0,0
			L14.9,14.8"/>
	</g>
	<g id="_x31_10">
		<path d="M15.3,15.1h-0.3c0,0-0.1,0-0.1-0.1l0-0.2H15v0.1h0v-0.1l0.1,0v0.1h0v-0.1l0.1,0L15.3,15.1C15.4,15,15.3,15.1,15.3,15.1z
			 M14.9,14.8l0,0.1c0,0,0,0,0,0h0.3c0,0,0,0,0,0v-0.1l-0.1,0v0.1h-0.1v-0.1l-0.1,0v0.1L14.9,14.8L14.9,14.8L14.9,14.8z"/>
	</g>
	<g id="_x31_09">
		<polyline class="st3" points="15.3,15 15.3,15.3 15,15.3 15,15 15.3,15 		"/>
	</g>
	<g id="_x31_08">
		<path d="M15.3,15.3h-0.4l0-0.3h0.3l0,0L15.3,15.3z M15,15.3h0.3l0-0.2H15L15,15.3z"/>
	</g>
	<g id="_x31_07">
		<path class="st7" d="M15.5,15C15.5,14.9,15.6,14.9,15.5,15l0.1,0.1h-0.1V15"/>
	</g>
	<g id="_x31_06">
		<path class="st7" d="M15.9,15.1C15.9,15.1,16,15.1,15.9,15.1L15.9,15.1L15.9,15.1L15.9,15.1"/>
	</g>
	<g id="_x31_05">
		<path class="st7" d="M15.1,15.1C15.1,15.1,15.2,15.1,15.1,15.1L15.1,15.1L15.1,15.1L15.1,15.1"/>
	</g>
	<g id="_x31_04">
		<polyline class="st3" points="22.6,19.4 22.4,19.6 22.2,19.3 22.4,19.1 22.6,19.4 		"/>
	</g>
	<g id="_x31_03">
		<path class="st3" d="M21.3,19.5c0.3-0.3,0.6-0.2,0.6-0.2c0,0,0.2,0.3-0.2,0.6L21.3,19.5"/>
	</g>
	<g id="_x31_02">
		<path class="st3" d="M21.4,18.9l-0.4,0.3l0.2,0.2c0.3-0.3,0.6-0.1,0.6-0.1c0,0,0.2,0.3-0.1,0.6l0.2,0.2l0.3-0.4L21.4,18.9"/>
	</g>
	<g id="_x31_01">
		<path d="M22,20.2l-0.3-0.3l0,0c0.3-0.3,0.1-0.5,0.1-0.6l0,0c0,0-0.3-0.2-0.5,0.1l0,0L21,19.2l0.4-0.3l0,0l0.9,0.9L22,20.2z
			 M21.8,19.9l0.2,0.2l0.3-0.4l-0.4-0.4c0,0,0,0.1,0,0.2C21.9,19.6,21.9,19.8,21.8,19.9z M21.1,19.2l0.2,0.2
			c0.2-0.2,0.3-0.2,0.4-0.2c0,0,0.1,0,0.1,0l-0.4-0.4L21.1,19.2z"/>
	</g>
	<g id="_x31_00">
		<path class="st3" d="M21,19.2l1,1c0,0,0,0.1,0,0.1c0,0-0.1,0-0.1,0L21,19.2C20.9,19.3,20.9,19.2,21,19.2C21,19.2,21,19.2,21,19.2"
			/>
	</g>
	<g id="_x39_9">
		<path d="M21.9,20.3C21.9,20.3,21.9,20.3,21.9,20.3l-1-1c0,0,0,0,0,0c0,0,0,0,0-0.1c0,0,0.1,0,0.1,0h0l1,1
			C22,20.1,22,20.2,21.9,20.3C22,20.2,22,20.2,21.9,20.3C22,20.3,22,20.3,21.9,20.3z M21,19.2C21,19.2,21,19.2,21,19.2
			C21,19.2,21,19.2,21,19.2C21,19.2,21,19.3,21,19.2l0.9,1c0,0,0,0,0.1,0c0,0,0,0,0,0c0,0,0,0,0,0L21,19.2L21,19.2
			C21,19.2,21,19.2,21,19.2z"/>
	</g>
	<g id="_x39_8">
		<path class="st3" d="M21.4,19.5c0.2-0.2,0.4-0.1,0.4-0.1c0,0,0.1,0.2-0.1,0.4L21.4,19.5"/>
	</g>
	<g id="_x39_7">
		<path d="M21.6,19.8l-0.3-0.3l0,0c0.2-0.2,0.4-0.1,0.4-0.1l0,0C21.8,19.4,21.9,19.6,21.6,19.8L21.6,19.8z M21.4,19.5l0.2,0.2
			c0.1-0.2,0.1-0.3,0.1-0.3C21.7,19.4,21.6,19.4,21.4,19.5z"/>
	</g>
	<g id="_x39_6">
		<path class="st3" d="M21.6,18.7l0.9,0.9c0,0,0,0.1,0,0.1c0,0-0.1,0-0.1,0L21.6,18.7C21.5,18.8,21.5,18.7,21.6,18.7
			C21.5,18.7,21.5,18.7,21.6,18.7"/>
	</g>
	<g id="_x39_5">
		<path d="M22.4,19.7C22.4,19.7,22.4,19.7,22.4,19.7l-1-0.9c0,0,0,0,0,0c0,0,0,0,0-0.1c0,0,0.1,0,0.1,0l0,0l0.9,0.9
			C22.5,19.6,22.5,19.6,22.4,19.7C22.5,19.7,22.5,19.7,22.4,19.7C22.5,19.7,22.5,19.7,22.4,19.7z M21.5,18.7
			C21.5,18.7,21.5,18.7,21.5,18.7C21.5,18.7,21.5,18.7,21.5,18.7C21.5,18.8,21.5,18.8,21.5,18.7l0.9,1c0,0,0,0,0,0c0,0,0,0,0,0
			c0,0,0,0,0,0L21.5,18.7C21.5,18.7,21.5,18.7,21.5,18.7z"/>
	</g>
	<g id="_x39_4">
		<path class="st3" d="M21.5,18.8l0.9,0.9c0,0,0,0.1,0,0.1c0,0-0.1,0-0.1,0L21.5,18.8C21.4,18.9,21.4,18.8,21.5,18.8
			C21.5,18.8,21.5,18.8,21.5,18.8"/>
	</g>
	<g id="_x39_3">
		<path d="M22.3,19.8C22.3,19.8,22.3,19.8,22.3,19.8C22.3,19.8,22.3,19.8,22.3,19.8l-0.9-0.9c0,0,0-0.1,0-0.1c0,0,0.1,0,0.1,0
			l0.9,0.9C22.4,19.7,22.4,19.7,22.3,19.8C22.4,19.8,22.4,19.8,22.3,19.8z M21.5,18.8C21.5,18.8,21.5,18.8,21.5,18.8
			C21.4,18.8,21.4,18.9,21.5,18.8l0.8,0.9c0,0,0,0,0,0c0,0,0,0,0,0c0,0,0,0,0,0c0,0,0,0,0,0L21.5,18.8
			C21.5,18.8,21.5,18.8,21.5,18.8z"/>
	</g>
	<g id="_x39_2">
		<path class="st3" d="M22.4,18.5L22.4,18.5l0,0.1l0,0l0.1-0.1l0.1,0.1l-0.1,0.1l0,0l0.1-0.1l0.1,0.1l-0.1,0.1c0,0,0,0-0.1,0
			l-0.2-0.2c0,0,0,0,0-0.1L22.4,18.5"/>
	</g>
	<g id="_x39_1">
		<path d="M22.6,18.9C22.5,18.9,22.5,18.9,22.6,18.9l-0.3-0.3c0,0,0-0.1,0-0.1l0.1-0.1v0l0.1,0.1l0,0l0,0l0.1-0.1l0.1,0.1l0,0l0,0
			l0.1-0.1l0.1,0.1L22.6,18.9C22.6,18.9,22.6,18.9,22.6,18.9z M22.4,18.5L22.4,18.5c-0.1,0.1-0.1,0.1-0.1,0.1l0.2,0.2c0,0,0,0,0,0
			l0.1-0.1l0,0l-0.1,0.1l-0.1-0.1l0.1-0.1l0,0l-0.1,0.1L22.4,18.5L22.4,18.5L22.4,18.5z"/>
	</g>
	<g id="_x39_0">
		<polyline class="st3" points="22.5,18.9 22.1,19.3 21.9,19 22.3,18.7 22.5,18.9 		"/>
	</g>
	<g id="_x38_9">
		<path d="M22.1,19.3L21.9,19l0.4-0.4l0.2,0.2L22.1,19.3z M21.9,19l0.2,0.2l0.3-0.4l-0.2-0.2L21.9,19z"/>
	</g>
	<g id="_x38_8">
		<path class="st3" d="M22.5,19L22.5,19l0,0.1l0,0l0.1-0.1l0.1,0.1l0,0.1l0,0l0.1-0.1l0.1,0.1l-0.1,0.1c0,0,0,0-0.1,0l-0.2-0.2
			c0,0,0,0,0-0.1L22.5,19"/>
	</g>
	<g id="_x38_7">
		<path d="M22.4,19.6l-0.3-0.3l0.2-0.2l0.3,0.3h0L22.4,19.6z M22.2,19.3l0.2,0.2l0.2-0.2l-0.2-0.2L22.2,19.3z"/>
	</g>
	<g id="_x38_6">
		<path d="M22.7,19.4C22.7,19.4,22.6,19.4,22.7,19.4l-0.3-0.3c0,0,0-0.1,0-0.1l0.1-0.1l0.1,0.1l0,0l0,0l0.1-0.1l0.1,0.1l-0.1,0l0,0
			l0.1-0.1l0.1,0.1L22.7,19.4C22.7,19.4,22.7,19.4,22.7,19.4L22.7,19.4z M22.5,19L22.5,19c-0.1,0.1-0.1,0.1-0.1,0.1l0.2,0.2
			c0,0,0,0,0,0l0,0c0,0,0,0,0,0l0.1-0.1l0,0l-0.1,0.1l-0.1-0.1l0.1,0l0,0l-0.1,0.1L22.5,19L22.5,19L22.5,19z"/>
	</g>
	<g id="_x38_5">
		<path class="st3" d="M21.9,18.4L21.9,18.4l0,0.1l0,0l0.1-0.1l0.1,0.1l-0.1,0l0,0.1l0.1-0.1l0.1,0.1l-0.1,0.1c0,0,0,0-0.1,0
			l-0.2-0.2c0,0,0,0,0-0.1L21.9,18.4"/>
	</g>
	<g id="_x38_4">
		<path d="M22.1,18.8C22.1,18.8,22,18.8,22.1,18.8l-0.3-0.3c0,0,0-0.1,0-0.1l0.1-0.1l0.1,0.1l0,0l0,0l0.1-0.1l0.1,0.1l-0.1,0.1l0,0
			l0.1-0.1l0.1,0.1L22.1,18.8C22.1,18.8,22.1,18.8,22.1,18.8z M21.9,18.4L21.9,18.4c-0.1,0.1-0.1,0.1-0.1,0.1l0.2,0.2c0,0,0,0,0,0
			l0.1-0.1l0,0l-0.1,0.1L22,18.6l0.1-0.1l0,0L22,18.6L21.9,18.4L21.9,18.4L21.9,18.4z"/>
	</g>
	<g id="_x38_3">
		<polyline class="st3" points="22,18.8 21.8,19 21.6,18.7 21.8,18.5 22,18.8 		"/>
	</g>
	<g id="_x38_2">
		<path d="M21.8,19l-0.3-0.3l0.2-0.2l0.2,0.2L21.8,19z M21.6,18.7l0.2,0.2l0.2-0.2l-0.2-0.2L21.6,18.7z"/>
	</g>
	<g id="_x38_1">
		<path class="st7" d="M22.2,18.9C22.3,18.8,22.3,18.9,22.2,18.9l0,0.1L22.2,18.9L22.2,18.9"/>
	</g>
	<g id="_x38_0">
		<path class="st7" d="M22.4,19.3C22.5,19.3,22.5,19.3,22.4,19.3l0,0.1L22.4,19.3L22.4,19.3"/>
	</g>
	<g id="_x37_9">
		<path class="st7" d="M21.8,18.7C21.9,18.7,21.9,18.7,21.8,18.7l0,0.1L21.8,18.7L21.8,18.7"/>
	</g>
	<g id="_x37_8">
		<polyline class="st3" points="23.4,15 23.4,15.3 23.1,15.3 23.1,15 23.4,15 		"/>
	</g>
	<g id="_x37_7">
		<path class="st3" d="M22.5,16.1c0-0.4,0.3-0.5,0.3-0.5c0,0,0.3,0.1,0.3,0.6L22.5,16.1"/>
	</g>
	<g id="_x37_6">
		<path class="st3" d="M22.2,15.5L22.2,16l0.3,0c0-0.4,0.3-0.5,0.3-0.5c0,0,0.3,0.1,0.3,0.5h0.3l-0.1-0.5L22.2,15.5"/>
	</g>
	<g id="_x37_5">
		<path d="M22.5,16l-0.4,0l0.1-0.5l0,0l1.2,0l0.1,0.6h-0.4l0,0c0-0.4-0.3-0.5-0.3-0.5C22.8,15.6,22.5,15.6,22.5,16L22.5,16z
			 M23.2,16h0.3l-0.1-0.5l-0.5,0c0,0,0.1,0,0.1,0.1C23.1,15.7,23.2,15.8,23.2,16z M22.2,16l0.3,0c0-0.2,0.1-0.3,0.2-0.4
			c0,0,0.1,0,0.1-0.1l-0.5,0L22.2,16z"/>
	</g>
	<g id="_x37_4">
		<path class="st3" d="M22.1,16h1.4c0,0,0.1,0,0.1,0.1c0,0,0,0.1-0.1,0.1h-1.4C22.1,16.2,22.1,16.1,22.1,16
			C22.1,16.1,22.1,16,22.1,16"/>
	</g>
	<g id="_x37_3">
		<path d="M23.5,16.2h-1.4c0,0-0.1,0-0.1-0.1c0,0,0-0.1,0.1-0.1h1.4C23.5,16,23.6,16,23.5,16.2C23.6,16.1,23.5,16.2,23.5,16.2z
			 M22.1,16.1C22.1,16.1,22.1,16.1,22.1,16.1C22.1,16.1,22.1,16.1,22.1,16.1l1.4,0.1c0,0,0,0,0,0c0,0,0,0,0,0H22.1z"/>
	</g>
	<g id="_x37_2">
		<path class="st3" d="M22.6,16c0-0.3,0.2-0.3,0.2-0.3c0,0,0.2,0.1,0.2,0.3H22.6"/>
	</g>
	<g id="_x37_1">
		<path d="M23,16h-0.4l0,0c0-0.2,0.1-0.3,0.2-0.3c0,0,0,0,0,0l0,0C22.9,15.7,23,15.8,23,16L23,16z M22.6,16H23
			c0-0.2-0.1-0.3-0.2-0.3C22.8,15.7,22.7,15.8,22.6,16z"/>
	</g>
	<g id="_x37_0">
		<path class="st3" d="M22.2,15.3h1.3c0,0,0,0,0,0.1s0,0.1,0,0.1h-1.3C22.1,15.4,22.1,15.4,22.2,15.3C22.1,15.3,22.1,15.3,22.2,15.3
			"/>
	</g>
	<g id="_x36_9">
		<path d="M23.5,15.4h-1.3c0,0-0.1,0-0.1-0.1c0,0,0-0.1,0.1-0.1h1.3C23.5,15.3,23.5,15.3,23.5,15.4C23.5,15.4,23.5,15.4,23.5,15.4z
			 M22.2,15.3C22.1,15.3,22.1,15.3,22.2,15.3C22.1,15.4,22.1,15.4,22.2,15.3l1.3,0.1c0,0,0,0,0,0c0,0,0,0,0,0H22.2z"/>
	</g>
	<g id="_x36_8">
		<path class="st3" d="M22.2,15.4h1.2c0,0,0,0,0,0.1c0,0,0,0.1,0,0.1h-1.2C22.2,15.5,22.1,15.5,22.2,15.4
			C22.1,15.4,22.2,15.4,22.2,15.4"/>
	</g>
	<g id="_x36_7">
		<path d="M23.4,15.6h-1.2c0,0-0.1,0-0.1-0.1c0,0,0-0.1,0.1-0.1h1.2C23.5,15.4,23.5,15.4,23.4,15.6C23.5,15.5,23.5,15.6,23.4,15.6z
			 M22.2,15.4C22.2,15.4,22.2,15.5,22.2,15.4C22.2,15.5,22.2,15.5,22.2,15.4l1.2,0.1c0,0,0,0,0,0c0,0,0,0,0,0H22.2z"/>
	</g>
	<g id="_x36_6">
		<path class="st3" d="M22.6,14.6L22.6,14.6L22.6,14.6l0.2,0.1v-0.1h0.1v0.1h0.1v-0.1H23l0,0.2c0,0,0,0,0,0h-0.3c0,0,0,0,0,0V14.6"
			/>
	</g>
	<g id="_x36_5">
		<path d="M23,14.8h-0.4c0,0-0.1,0-0.1-0.1l0-0.2h0.1v0.1h0v-0.1l0.1,0v0.1h0v-0.1h0.1L23,14.8C23.1,14.8,23,14.8,23,14.8z
			 M22.6,14.6l0,0.1c0,0,0,0,0,0H23c0,0,0,0,0,0v-0.1H23v0.1h-0.1v-0.1l-0.1,0v0.1L22.6,14.6L22.6,14.6L22.6,14.6z"/>
	</g>
	<g id="_x36_4">
		<polyline class="st3" points="23,14.8 23,15.3 22.6,15.3 22.7,14.8 23,14.8 		"/>
	</g>
	<g id="_x36_3">
		<path d="M23,15.3l-0.4,0l0-0.6l0.3,0L23,15.3z M22.7,15.3l0.3,0l0-0.5l-0.3,0L22.7,15.3z"/>
	</g>
	<g id="_x36_2">
		<path class="st3" d="M23,14.8L23,14.8L23,14.8l0.2,0.1v-0.1l0.1,0v0.1h0.1v-0.1l0.1,0V15c0,0,0,0,0,0h-0.3c0,0,0,0,0,0V14.8"/>
	</g>
	<g id="_x36_1">
		<path d="M23.1,15.3l0-0.3h0.3l0,0.3L23.1,15.3z M23.1,15.1l0,0.2l0.3,0l0-0.2H23.1z"/>
	</g>
	<g id="_x36_0">
		<path d="M23.4,15h-0.3c0,0-0.1,0-0.1-0.1v-0.2h0.1v0.1h0v-0.1l0.1,0v0.1h0v-0.1l0.1,0L23.4,15C23.5,15,23.4,15,23.4,15z M23,14.8
			V15c0,0,0,0,0,0h0.3c0,0,0,0,0,0v-0.1l-0.1,0v0.1h-0.1v-0.1l-0.1,0v0.1L23,14.8L23,14.8L23,14.8z"/>
	</g>
	<g id="_x35_9">
		<path class="st3" d="M22.2,14.8L22.2,14.8L22.2,14.8l0.2,0.1v-0.1l0.1,0v0.1h0.1v-0.1l0.1,0V15c0,0,0,0,0,0h-0.3c0,0,0,0,0,0
			L22.2,14.8"/>
	</g>
	<g id="_x35_8">
		<path d="M22.6,15.1h-0.3c0,0-0.1,0-0.1-0.1l0-0.2l0.1,0v0.1h0v-0.1l0.1,0v0.1h0v-0.1l0.1,0L22.6,15.1C22.6,15,22.6,15.1,22.6,15.1
			z M22.2,14.8l0,0.1c0,0,0,0,0,0h0.3c0,0,0,0,0,0v-0.1l-0.1,0v0.1h-0.1v-0.1l-0.1,0v0.1L22.2,14.8L22.2,14.8L22.2,14.8z"/>
	</g>
	<g id="_x35_7">
		<polyline class="st3" points="22.5,15 22.6,15.3 22.2,15.3 22.2,15 22.5,15 		"/>
	</g>
	<g id="_x35_6">
		<path d="M22.2,15.3l0-0.3h0.3l0,0.3L22.2,15.3z M22.3,15.1l0,0.2l0.3,0l0-0.2H22.3z"/>
	</g>
	<g id="_x35_5">
		<path class="st7" d="M22.8,15C22.8,14.9,22.8,14.9,22.8,15l0.1,0.1h-0.1V15"/>
	</g>
	<g id="_x35_4">
		<path class="st7" d="M23.2,15.1C23.2,15.1,23.3,15.1,23.2,15.1L23.2,15.1L23.2,15.1L23.2,15.1"/>
	</g>
	<g id="_x35_3">
		<path class="st7" d="M22.4,15.1C22.4,15.1,22.4,15.1,22.4,15.1L22.4,15.1L22.4,15.1L22.4,15.1"/>
	</g>
	<g id="_x35_2">
		<polyline class="st3" points="16.6,18.5 16.8,18.7 16.5,19 16.4,18.8 16.6,18.5 		"/>
	</g>
	<g id="_x35_1">
		<path class="st3" d="M16.7,19.9c-0.3-0.3-0.2-0.6-0.2-0.6c0,0,0.3-0.2,0.6,0.2L16.7,19.9"/>
	</g>
	<g id="_x35_0">
		<path class="st3" d="M16.1,19.7l0.3,0.4l0.2-0.2c-0.3-0.3-0.1-0.6-0.1-0.6c0,0,0.3-0.2,0.6,0.1l0.2-0.2l-0.4-0.3L16.1,19.7"/>
	</g>
	<g id="_x34_9">
		<path d="M16.4,20.2l-0.3-0.4v0l0,0l0.9-0.9l0.4,0.3l-0.3,0.3l0,0c-0.3-0.3-0.5-0.1-0.6-0.1c0,0-0.2,0.3,0.1,0.5l0,0L16.4,20.2z
			 M16.1,19.7l0.3,0.4l0.2-0.2c-0.2-0.2-0.2-0.3-0.2-0.4c0,0,0-0.1,0-0.1L16.1,19.7z M16.7,19.2c0.1,0,0.2,0,0.4,0.2l0.2-0.2
			l-0.4-0.3l-0.4,0.4C16.6,19.3,16.6,19.3,16.7,19.2C16.7,19.2,16.7,19.2,16.7,19.2z"/>
	</g>
	<g id="_x34_8">
		<path class="st3" d="M16.4,20.1l1-1c0,0,0.1,0,0.1,0c0,0,0,0.1,0,0.1L16.4,20.1C16.5,20.3,16.4,20.2,16.4,20.1
			C16.4,20.2,16.4,20.2,16.4,20.1"/>
	</g>
	<g id="_x34_7">
		<path d="M16.4,20.3C16.4,20.3,16.4,20.3,16.4,20.3C16.4,20.3,16.4,20.3,16.4,20.3c-0.1-0.1-0.1-0.1-0.1-0.1l1-1c0,0,0.1,0,0.1,0
			c0,0,0,0.1,0,0.1L16.4,20.3C16.5,20.3,16.5,20.3,16.4,20.3z M17.4,19.2C17.4,19.2,17.4,19.2,17.4,19.2l-1,1c0,0,0,0,0,0.1
			c0,0,0,0,0,0h0c0,0,0,0,0,0L17.4,19.2C17.4,19.2,17.4,19.2,17.4,19.2C17.4,19.2,17.4,19.2,17.4,19.2z"/>
	</g>
	<g id="_x34_6">
		<path class="st3" d="M16.7,19.8c-0.2-0.2-0.1-0.4-0.1-0.4c0,0,0.2-0.1,0.4,0.1L16.7,19.8"/>
	</g>
	<g id="_x34_5">
		<path d="M16.7,19.8c-0.1-0.1-0.1-0.3-0.1-0.3c0,0,0-0.1,0-0.1c0,0,0.2-0.1,0.4,0.1l0,0L16.7,19.8L16.7,19.8L16.7,19.8z M16.6,19.4
			c0,0,0,0.2,0.1,0.3l0.2-0.2C16.8,19.4,16.7,19.4,16.6,19.4z"/>
	</g>
	<g id="_x34_4">
		<path class="st3" d="M15.9,19.6l0.9-0.9c0,0,0.1,0,0.1,0c0,0,0,0.1,0,0.1L15.9,19.6C16,19.7,15.9,19.7,15.9,19.6
			C15.9,19.7,15.9,19.6,15.9,19.6"/>
	</g>
	<g id="_x34_3">
		<path d="M15.9,19.7C15.9,19.7,15.9,19.7,15.9,19.7C15.9,19.7,15.9,19.7,15.9,19.7c-0.1-0.1-0.1-0.1-0.1-0.1l0.9-0.9c0,0,0,0,0.1,0
			c0,0,0,0,0.1,0c0,0,0,0.1,0,0.1L15.9,19.7C16,19.7,16,19.7,15.9,19.7z M16.9,18.7C16.8,18.7,16.8,18.7,16.9,18.7l-0.9,0.9
			c0,0,0,0,0,0c0,0,0,0,0,0c0,0,0,0,0,0L16.9,18.7C16.9,18.7,16.9,18.7,16.9,18.7C16.9,18.7,16.9,18.7,16.9,18.7
			C16.9,18.7,16.9,18.7,16.9,18.7z"/>
	</g>
	<g id="_x34_2">
		<path class="st3" d="M16,19.7l0.9-0.9c0,0,0.1,0,0.1,0c0,0,0,0.1,0,0.1L16,19.7C16.1,19.8,16,19.8,16,19.7
			C16,19.7,16,19.7,16,19.7"/>
	</g>
	<g id="_x34_1">
		<path d="M16,19.8L16,19.8C16,19.8,16,19.8,16,19.8C16,19.7,16,19.7,16,19.7l0,0l0.9-0.9c0,0,0.1,0,0.1,0c0,0,0,0,0,0.1
			c0,0,0,0,0,0L16,19.8C16.1,19.8,16.1,19.8,16,19.8z M16,19.7C16,19.7,16,19.7,16,19.7C16,19.7,16,19.7,16,19.7L16,19.7
			C16.1,19.7,16.1,19.7,16,19.7l0.9-0.8c0,0,0,0,0,0c0,0,0,0,0,0c0,0,0,0,0,0L16,19.7z"/>
	</g>
	<g id="_x34_0">
		<path class="st3" d="M15.7,18.8L15.7,18.8l0.1,0l0,0l-0.1-0.1l0.1-0.1l0.1,0.1l0,0l-0.1-0.1l0.1-0.1l0.1,0.1c0,0,0,0,0,0.1
			l-0.2,0.2c0,0,0,0-0.1,0L15.7,18.8"/>
	</g>
	<g id="_x33_9">
		<path d="M15.8,18.9C15.8,18.9,15.8,18.9,15.8,18.9l-0.2-0.1v0l0,0l0.1-0.1l0,0l0,0l-0.1-0.1l0.1-0.1l0.1,0.1l0,0l-0.1-0.1l0.1-0.1
			l0.1,0.1c0,0,0,0,0,0c0,0,0,0,0,0L15.8,18.9C15.9,18.9,15.8,18.9,15.8,18.9C15.8,18.9,15.8,18.9,15.8,18.9z M15.7,18.8L15.7,18.8
			c0.1,0.1,0.1,0.1,0.1,0.1l0.2-0.2c0,0,0,0,0,0c0,0,0,0,0,0L16,18.5l0,0l0.1,0.1l-0.1,0.1l-0.1-0.1l0,0l0.1,0.1L15.7,18.8
			L15.7,18.8L15.7,18.8z"/>
	</g>
	<g id="_x33_8">
		<polyline class="st3" points="16.1,18.7 16.5,19 16.2,19.3 15.9,18.9 16.1,18.7 		"/>
	</g>
	<g id="_x33_7">
		<path d="M16.2,19.3l-0.4-0.4l0.2-0.2l0.4,0.4L16.2,19.3z M15.9,18.9l0.3,0.4l0.2-0.2l-0.4-0.3L15.9,18.9z"/>
	</g>
	<g id="_x33_6">
		<path class="st3" d="M16.2,18.7L16.2,18.7l0.1,0l0,0l-0.1-0.1l0.1-0.1l0.1,0.1l0,0l-0.1-0.1l0.1-0.1l0.1,0.1c0,0,0,0,0,0.1
			l-0.2,0.2c0,0,0,0-0.1,0L16.2,18.7"/>
	</g>
	<g id="_x33_5">
		<path d="M16.5,19l-0.2-0.2l0.2-0.2l0.2,0.2L16.5,19z M16.4,18.8l0.2,0.2l0.2-0.2l-0.2-0.2L16.4,18.8z"/>
	</g>
	<g id="_x33_4">
		<path d="M16.3,18.8C16.3,18.8,16.3,18.8,16.3,18.8l-0.2-0.1v0l0,0l0.1-0.1l0,0l0,0l-0.1-0.1l0.1-0.1l0,0.1l0,0l-0.1-0.1l0.1-0.1
			l0.1,0.1c0,0,0,0,0,0c0,0,0,0,0,0L16.3,18.8C16.3,18.8,16.3,18.8,16.3,18.8C16.3,18.8,16.3,18.8,16.3,18.8z M16.2,18.7L16.2,18.7
			c0.1,0.1,0.1,0.1,0.1,0.1l0.2-0.2c0,0,0,0,0,0c0,0,0,0,0,0l-0.1-0.1l0,0l0.1,0.1l-0.1,0.1l0-0.1l0,0l0.1,0.1L16.2,18.7L16.2,18.7
			L16.2,18.7z"/>
	</g>
	<g id="_x33_3">
		<path class="st3" d="M15.6,19.3L15.6,19.3l0.1,0l0,0l-0.1-0.1l0.1-0.1l0.1,0.1l0,0L15.8,19l0.1-0.1l0.1,0.1c0,0,0,0,0,0.1
			l-0.2,0.2c0,0,0,0-0.1,0L15.6,19.3"/>
	</g>
	<g id="_x33_2">
		<path d="M15.7,19.4C15.7,19.4,15.7,19.4,15.7,19.4l-0.2-0.1l0.1-0.1l0,0l0,0l-0.1-0.1l0.1-0.1l0.1,0.1l0,0L15.8,19l0.1-0.1
			l0.1,0.1c0,0,0,0,0,0c0,0,0,0,0,0L15.7,19.4C15.7,19.4,15.7,19.4,15.7,19.4z M15.6,19.3L15.6,19.3c0.1,0.1,0.1,0.1,0.1,0.1
			l0.2-0.2c0,0,0,0,0,0c0,0,0,0,0,0L15.9,19l0,0l0.1,0.1l-0.1,0.1l-0.1-0.1l0,0l0.1,0.1L15.6,19.3L15.6,19.3L15.6,19.3z"/>
	</g>
	<g id="_x33_1">
		<polyline class="st3" points="16,19.1 16.2,19.3 15.9,19.6 15.8,19.4 16,19.1 		"/>
	</g>
	<g id="_x33_0">
		<path d="M15.9,19.6l-0.2-0.2l0.2-0.2l0.2,0.2L15.9,19.6z M15.8,19.4l0.2,0.2l0.2-0.2L16,19.2L15.8,19.4z"/>
	</g>
	<g id="_x32_9">
		<path class="st7" d="M16.1,18.9C16,18.9,16.1,18.8,16.1,18.9l0.1,0L16.1,18.9L16.1,18.9"/>
	</g>
	<g id="_x32_8">
		<path class="st7" d="M16.5,18.8C16.5,18.7,16.5,18.7,16.5,18.8l0.1,0L16.5,18.8L16.5,18.8"/>
	</g>
	<g id="_x32_7">
		<path class="st7" d="M15.9,19.4C15.9,19.3,15.9,19.3,15.9,19.4l0.1,0L15.9,19.4L15.9,19.4"/>
	</g>
	<g id="_x32_6">
		<path class="st8" d="M19.5,18.3c-0.1,0-0.1,0.1-0.1,0.1c0,0.1,0.1,0.1,0.1,0.1c0.1,0,0.1-0.1,0.1-0.1
			C19.7,18.3,19.6,18.3,19.5,18.3"/>
	</g>
	<g id="_x32_5">
		<path class="st8" d="M18.9,18.3c-0.1,0-0.1,0.1-0.1,0.1c0,0.1,0.1,0.1,0.1,0.1c0.1,0,0.1-0.1,0.1-0.1C19,18.3,19,18.3,18.9,18.3"
			/>
	</g>
	<g id="_x32_4">
		<path class="st8" d="M19.2,17.9c-0.1,0-0.1,0.1-0.1,0.1c0,0.1,0.1,0.1,0.1,0.1c0.1,0,0.1-0.1,0.1-0.1C19.3,18,19.3,17.9,19.2,17.9
			"/>
	</g>
	<g id="_x32_3">
		<path class="st8" d="M19.5,17.6c-0.1,0-0.1,0.1-0.1,0.1c0,0.1,0.1,0.1,0.1,0.1c0.1,0,0.1-0.1,0.1-0.1
			C19.7,17.7,19.6,17.6,19.5,17.6"/>
	</g>
	<g id="_x32_2">
		<path class="st8" d="M21.2,16.2c-0.1,0-0.1,0.1-0.1,0.1c0,0.1,0.1,0.1,0.1,0.1c0.1,0,0.1-0.1,0.1-0.1
			C21.3,16.2,21.3,16.2,21.2,16.2"/>
	</g>
	<g id="_x32_1">
		<path class="st8" d="M20.6,16.2c-0.1,0-0.1,0.1-0.1,0.1c0,0.1,0.1,0.1,0.1,0.1c0.1,0,0.1-0.1,0.1-0.1
			C20.7,16.3,20.6,16.2,20.6,16.2"/>
	</g>
	<g id="_x32_0">
		<path class="st8" d="M20.9,15.9c-0.1,0-0.1,0.1-0.1,0.1c0,0.1,0.1,0.1,0.1,0.1c0.1,0,0.1-0.1,0.1-0.1C21,15.9,20.9,15.9,20.9,15.9
			"/>
	</g>
	<g id="_x31_9">
		<path class="st8" d="M21.2,15.5c-0.1,0-0.1,0.1-0.1,0.1c0,0.1,0.1,0.1,0.1,0.1c0.1,0,0.1-0.1,0.1-0.1
			C21.3,15.6,21.3,15.5,21.2,15.5"/>
	</g>
	<g id="_x31_8">
		<path class="st8" d="M20.6,15.5c-0.1,0-0.1,0.1-0.1,0.1c0,0.1,0.1,0.1,0.1,0.1c0.1,0,0.1-0.1,0.1-0.1
			C20.7,15.6,20.6,15.5,20.6,15.5"/>
	</g>
	<g id="_x31_7">
		<path class="st8" d="M19.6,16.2c-0.1,0-0.1,0.1-0.1,0.1c0,0.1,0.1,0.1,0.1,0.1c0.1,0,0.1-0.1,0.1-0.1
			C19.7,16.2,19.6,16.2,19.6,16.2"/>
	</g>
	<g id="_x31_6">
		<path class="st8" d="M18.9,16.2c-0.1,0-0.1,0.1-0.1,0.1c0,0.1,0.1,0.1,0.1,0.1c0.1,0,0.1-0.1,0.1-0.1C19,16.2,19,16.2,18.9,16.2"
			/>
	</g>
	<g id="_x31_5">
		<path class="st8" d="M19.2,15.9c-0.1,0-0.1,0.1-0.1,0.1c0,0.1,0.1,0.1,0.1,0.1c0.1,0,0.1-0.1,0.1-0.1
			C19.3,15.9,19.3,15.9,19.2,15.9"/>
	</g>
	<g id="_x31_4">
		<path class="st8" d="M19.6,15.5c-0.1,0-0.1,0.1-0.1,0.1c0,0.1,0.1,0.1,0.1,0.1c0.1,0,0.1-0.1,0.1-0.1
			C19.7,15.6,19.6,15.5,19.6,15.5"/>
	</g>
	<g id="_x31_3">
		<path class="st8" d="M18.9,15.5c-0.1,0-0.1,0.1-0.1,0.1c0,0.1,0.1,0.1,0.1,0.1c0.1,0,0.1-0.1,0.1-0.1C19,15.6,19,15.5,18.9,15.5"
			/>
	</g>
	<g id="_x31_2">
		<path class="st8" d="M17.9,16.2c-0.1,0-0.1,0.1-0.1,0.1c0,0.1,0.1,0.1,0.1,0.1c0.1,0,0.1-0.1,0.1-0.1C18,16.3,18,16.2,17.9,16.2"
			/>
	</g>
	<g id="_x31_1">
		<path class="st8" d="M17.2,16.2c-0.1,0-0.1,0.1-0.1,0.1c0,0.1,0.1,0.1,0.1,0.1c0.1,0,0.1-0.1,0.1-0.1
			C17.4,16.3,17.3,16.2,17.2,16.2"/>
	</g>
	<g id="_x31_0">
		<path class="st8" d="M17.6,15.9c-0.1,0-0.1,0.1-0.1,0.1c0,0.1,0.1,0.1,0.1,0.1c0.1,0,0.1-0.1,0.1-0.1
			C17.7,15.9,17.6,15.9,17.6,15.9"/>
	</g>
	<g id="_x39_">
		<path class="st8" d="M17.9,15.5c-0.1,0-0.1,0.1-0.1,0.1c0,0.1,0.1,0.1,0.1,0.1c0.1,0,0.1-0.1,0.1-0.1C18,15.6,18,15.5,17.9,15.5"
			/>
	</g>
	<g id="_x38_">
		<path class="st8" d="M18.9,17.6c-0.1,0-0.1,0.1-0.1,0.1c0,0.1,0.1,0.1,0.1,0.1c0.1,0,0.1-0.1,0.1-0.1C19,17.7,19,17.6,18.9,17.6"
			/>
	</g>
	<g id="_x37_">
		<path class="st9" d="M17.2,15.5c-0.1,0-0.1,0.1-0.1,0.1c0,0.1,0.1,0.1,0.1,0.1c0.1,0,0.1-0.1,0.1-0.1
			C17.4,15.6,17.3,15.5,17.2,15.5"/>
	</g>
	<g id="_x36_">
		<path class="st8" d="M18.9,13.5c-0.1,0-0.1,0.1-0.1,0.1c0,0.1,0.1,0.1,0.1,0.1c0.1,0,0.1-0.1,0.1-0.1C19,13.5,19,13.5,18.9,13.5"
			/>
	</g>
	<g id="_x35_">
		<path class="st8" d="M19.5,13.5c-0.1,0-0.1,0.1-0.1,0.1c0,0.1,0.1,0.1,0.1,0.1c0.1,0,0.1-0.1,0.1-0.1
			C19.7,13.5,19.6,13.5,19.5,13.5"/>
	</g>
	<g id="_x34_">
		<path class="st8" d="M19.2,13.8c-0.1,0-0.1,0.1-0.1,0.1c0,0.1,0.1,0.1,0.1,0.1c0.1,0,0.1-0.1,0.1-0.1
			C19.3,13.8,19.3,13.8,19.2,13.8"/>
	</g>
	<g id="_x33_">
		<path class="st8" d="M19.5,14.1c-0.1,0-0.1,0.1-0.1,0.1c0,0.1,0.1,0.1,0.1,0.1c0.1,0,0.1-0.1,0.1-0.1
			C19.7,14.2,19.6,14.1,19.5,14.1"/>
	</g>
	<g id="_x32_">
		<path class="st8" d="M18.9,14.1c-0.1,0-0.1,0.1-0.1,0.1c0,0.1,0.1,0.1,0.1,0.1c0.1,0,0.1-0.1,0.1-0.1C19,14.2,19,14.1,18.9,14.1"
			/>
	</g>
	<g id="_x31_">
		<path class="st8" d="M17.2,15.5c-0.1,0-0.1,0.1-0.1,0.1c0,0.1,0.1,0.1,0.1,0.1c0.1,0,0.1-0.1,0.1-0.1
			C17.4,15.6,17.3,15.5,17.2,15.5"/>
	</g>
</g>
</svg>
