<?xml version="1.0" encoding="utf-8"?>
<!-- Generator: Adobe Illustrator 24.3.0, SVG Export Plug-In . SVG Version: 6.00 Build 0)  -->
<svg version="1.1" id="Layer_1" xmlns="http://www.w3.org/2000/svg" xmlns:xlink="http://www.w3.org/1999/xlink" x="0px" y="0px"
	 viewBox="0 0 200 200" style="enable-background:new 0 0 200 200;" xml:space="preserve">
<style type="text/css">
	.st0{fill:none;stroke:#C82828;stroke-width:3;stroke-miterlimit:10;}
	.st1{fill:none;stroke:#282828;stroke-width:3;stroke-linecap:round;stroke-miterlimit:10;}
</style>
<path class="st0" d="M4.2,102.5c0,0,188.8-58.4,190.4-58.7c1.6-0.3,3.6,0.7,2.2,4.1c-1.5,3.4-3.6,8.2-4.2,9.5
	c-0.6,1.3-0.9,1.6-3.3,3s-36.8,23.6-38.3,25c-1.4,1.3-4.7,4.1-4.2,9.6c0.4,5.6,1.7,14.8-2.1,23.4s-12.8,9.8-22.1,5.7
	c-4.4-2-7-7.9-7.7-10.3c-0.7-2.4-4.1-14.1-4.5-15c-0.4-0.9-2.6-2.7-5.6-1.6s-6.1,4.5-8.1,10.8c-1.9,6.3-3.5,13.6-4.2,15.2
	c-0.7,1.6-1.7,4.3-6.2,8.6c-4.5,4.3-15.5,14.9-17,15.8c-1.5,0.9-33.4,8.3-35.1,8.7c-1.6,0.4-3.7-1.3-2.7-3.5c1-2.2,1.8-4,2.1-4.8
	c0.3-0.8-6.1-3.1-8.3-4c-2.2-0.9-4.5-2.7-6.6-7.1s-3.4-8.8-3.2-9.6s0.4-2.1,4.3-2.6s13.2-1.7,16.3-8.8c1.8-4.2,0-7.8-0.8-9.4
	s-1.3-2.4-4.7-0.8s-9.1,4.8-15.9,5.9s-8.4-0.1-10.8-3.4C1.3,104.9,4.2,102.5,4.2,102.5z"/>
<line class="st1" x1="96.3" y1="69.4" x2="98.9" y2="78"/>
</svg>
