<?xml version="1.0" encoding="utf-8"?>
<!-- Generator: Adobe Illustrator 24.1.1, SVG Export Plug-In . SVG Version: 6.00 Build 0)  -->
<svg version="1.1" id="Layer_1" xmlns="http://www.w3.org/2000/svg" xmlns:xlink="http://www.w3.org/1999/xlink" x="0px" y="0px"
	 viewBox="0 0 200 140" style="enable-background:new 0 0 200 140;" xml:space="preserve">
<style type="text/css">
	.st0{fill:none;stroke:#C82828;stroke-width:2;stroke-miterlimit:10;}
	.st1{fill:none;stroke:#282828;stroke-width:3;stroke-linecap:round;stroke-miterlimit:10;}
</style>
<g>
	<path class="st0" d="M97.5,43.4c48.2-14.9,97-29.9,97.8-30.1c1.6-0.3,3.6,0.7,2.2,4.1c-1.5,3.4-3.6,8.3-4.2,9.6
		c-0.6,1.3-0.9,1.6-3.3,3c-2.4,1.4-37.1,23.8-38.6,25.2c-1.4,1.3-4.7,4.1-4.2,9.7c0.4,5.6,1.7,14.9-2.1,23.6s-12.9,9.9-22.3,5.7
		c-4.4-2-7.1-8-7.8-10.4s-4.1-14.2-4.5-15.1c-0.4-0.9-2.6-2.7-5.6-1.6s-6.1,4.5-8.2,10.9c-1.9,6.4-3.5,13.7-4.2,15.3
		c-0.7,1.6-1.7,4.3-6.2,8.7c-4.5,4.3-15.6,15-17.1,15.9c-1.5,0.9-33.7,8.4-35.4,8.8c-1.6,0.4-3.7-1.3-2.7-3.5s1.8-4,2.1-4.8
		c0.3-0.8-6.1-3.1-8.4-4c-2.2-0.9-4.5-2.7-6.7-7.2s-3.4-8.9-3.2-9.7c0.2-0.8,0.4-2.1,4.3-2.6c3.9-0.5,13.3-1.7,16.4-8.9
		c1.8-4.2,0-7.9-0.8-9.5c-0.8-1.6-1.3-2.4-4.7-0.8c-3.4,1.6-9.2,4.8-16,5.9s-8.5-0.1-10.9-3.4c-2.6-3.3,0.3-5.7,0.3-5.7
		S50.2,58,97.5,43.4"/>
	<line class="st1" x1="96.2" y1="39.1" x2="98.8" y2="47.8"/>
</g>
</svg>
