<?xml version="1.0" encoding="utf-8"?>
<!-- Generator: Adobe Illustrator 24.1.1, SVG Export Plug-In . SVG Version: 6.00 Build 0)  -->
<svg version="1.1" id="Layer_1" xmlns="http://www.w3.org/2000/svg" xmlns:xlink="http://www.w3.org/1999/xlink" x="0px" y="0px"
	 viewBox="0 0 200 140" style="enable-background:new 0 0 200 140;" xml:space="preserve">
<style type="text/css">
	.st0{fill:none;stroke:#C82828;stroke-width:2;stroke-miterlimit:10;}
	.st1{fill:none;stroke:#282828;stroke-width:3;stroke-linecap:round;stroke-miterlimit:10;}
</style>
<g>
	<path class="st0" d="M45.9,109.9c-1.3,0.9-2.5,1.6-3.5,2.2c-8.7,5.4-20.5,9.2-28.6,10.6c-3.5,0.6-3.9,2.9-3.7,5.6
		c0.2,2.8-0.7,6.8-4.7,3.6c-3.9-2.9-3.6-5.2-2.8-11.8c0.7-6.4,3-20.1,6.3-27.1c1.5-3.3,2.9-3.2,4.3-2.7s4,0.6,6.2-3.6
		s5.8-12.3,6.4-15.7c0.7-3.3,2.2-7.4,8.2-10.4c5.9-3,16.8-6.1,18.9-7c2.1-0.9,2.5-2.7,0.6-6.7s-0.9-8,1.3-10.4S69,28,84.7,23.2
		s34.2-5.2,36.2-5.1c2.1,0.1,3.5,2.8,4.5,4.7c0.9,1.9,4.9,2.6,7.8,2.5c2.8-0.1,32.9-0.5,45.2-7.9c12.4-7.4,14-8.8,15.7-9.9
		s3.9-1.2,3.8,1.2c-0.1,2.4-1.4,4.5-4.2,5.3c-2.8,0.9-6.7,1.8-12.3,8.2c0,0-20.5,21-31.3,27.8s-42.6,27.7-50.9,32
		s-11.8,6.6-13.3,6.9s-3,0.3-4.1-0.9c-1.5-1.4-4.1,0.7-4.9,1.3C76.9,89.3,56.5,103.1,45.9,109.9"/>
	<line class="st1" x1="43.3" y1="105.8" x2="49" y2="114.8"/>
</g>
</svg>
