<?xml version="1.0" encoding="utf-8"?>
<!-- Generator: Adobe Illustrator 24.3.0, SVG Export Plug-In . SVG Version: 6.00 Build 0)  -->
<svg version="1.1" id="Layer_1" xmlns="http://www.w3.org/2000/svg" xmlns:xlink="http://www.w3.org/1999/xlink" x="0px" y="0px"
	 viewBox="0 0 200 200" style="enable-background:new 0 0 200 200;" xml:space="preserve">
<style type="text/css">
	.st0{fill:none;stroke:#C82828;stroke-width:3;stroke-miterlimit:10;}
	.st1{fill:none;stroke:#282828;stroke-width:3;stroke-linecap:round;stroke-miterlimit:10;}
</style>
<g>
	<path class="st0" d="M77.1,119.1c0,0-25.6,17.3-34.2,22.7s-20.3,9.1-28.4,10.5c-3.5,0.6-3.9,2.9-3.7,5.6c0.2,2.8-0.7,6.7-4.7,3.6
		c-3.9-2.9-3.6-5.2-2.8-11.7c0.8-6.5,3.1-20.1,6.3-27c1.5-3.3,2.9-3.2,4.3-2.7c1.4,0.5,4,0.6,6.2-3.6c2.2-4.2,5.8-12.2,6.4-15.6
		c0.7-3.3,2.2-7.3,8.1-10.3c5.9-3,16.7-6.1,18.8-6.9c2.1-0.9,2.5-2.7,0.6-6.6c-1.9-3.9-0.9-7.9,1.3-10.3c2.2-2.4,14-8.5,29.6-13.3
		s33.9-5.2,35.9-5.1c2.1,0.1,3.5,2.8,4.5,4.7c0.9,1.9,4.9,2.6,7.7,2.5s32.6-0.5,44.9-7.8s13.9-8.7,15.6-9.8c1.7-1.1,3.9-1.2,3.8,1.2
		c-0.1,2.4-1.4,4.5-4.2,5.3c-2.8,0.9-6.6,1.8-12.2,8.1c0,0-20.3,20.8-31.1,27.6s-42.3,27.4-50.5,31.7s-11.7,6.5-13.2,6.8
		s-3,0.3-4.1-0.9C80.5,116.4,77.9,118.5,77.1,119.1z"/>
	<line class="st1" x1="43.8" y1="135.5" x2="49.4" y2="144.4"/>
</g>
</svg>
