<?xml version="1.0" encoding="utf-8"?>
<!-- Generator: Adobe Illustrator 24.3.0, SVG Export Plug-In . SVG Version: 6.00 Build 0)  -->
<svg version="1.1" id="Layer_1" xmlns="http://www.w3.org/2000/svg" xmlns:xlink="http://www.w3.org/1999/xlink" x="0px" y="0px"
	 viewBox="0 0 200 200" style="enable-background:new 0 0 200 200;" xml:space="preserve">
<style type="text/css">
	.st0{fill:none;stroke:#C82828;stroke-width:3;stroke-miterlimit:10;}
	.st1{fill:none;stroke:#282828;stroke-width:3;stroke-linecap:round;stroke-miterlimit:10;}
</style>
<path class="st0" d="M73.9,121.5c0,0-26.3,0.9-35,0.9s-18.8-2.6-25.3-5.3c-2.8-1.2-4.1,0.3-5.2,2.4S4.9,124,3.4,120
	c-1.5-3.9-0.2-5.4,3.3-9.7C10.2,106,18,97.2,23.5,93.7c2.6-1.7,3.5-1,4.3,0c0.8,1,2.6,2.2,6.1,0.2s9.7-6.2,11.7-8.4
	c2-2.1,4.9-4.3,10.5-3.8s14.8,3.2,16.7,3.5c1.9,0.3,3-0.8,3.4-4.5c0.4-3.7,2.9-6.1,5.6-6.9c2.7-0.7,14,0.2,27.4,3.8
	s26.8,11.6,28.2,12.6c1.5,1,1.3,3.6,1.1,5.4s2.4,4.1,4.4,5.3s23.8,14.4,36,14.7c12.2,0.3,14,0,15.7,0s3.4,0.9,2.2,2.6
	c-1.2,1.7-3,2.6-5.4,1.9c-2.4-0.6-5.6-1.7-12.5,0.3c0,0-24.1,5.8-35,5.8s-43,0.6-50.8,0s-11.4-0.6-12.6-1.1s-2.3-1.1-2.6-2.5
	C77.6,121.1,74.8,121.4,73.9,121.5z"/>
<line class="st1" x1="42.4" y1="118.2" x2="42.4" y2="127.2"/>
</svg>
