<?xml version="1.0" encoding="utf-8"?>
<!-- Generator: Adobe Illustrator 24.3.0, SVG Export Plug-In . SVG Version: 6.00 Build 0)  -->
<svg version="1.1" id="Layer_1" xmlns="http://www.w3.org/2000/svg" xmlns:xlink="http://www.w3.org/1999/xlink" x="0px" y="0px"
	 viewBox="0 0 192.4 204" style="enable-background:new 0 0 192.4 204;" xml:space="preserve">
<style type="text/css">
	.st0{fill:#FFFFFF;}
</style>
<path class="st0" d="M192.8,97.7C192.8,40,136.9,0,96.4,0S0.1,40,0.1,97.7c-0.2,4.4-0.7,46.6,13.1,89.7c3.2,9.9,7,13.6,8.5,14.8
	s5.4,3.7,7.7-1c0,0,11.9-2.2,14.1-2.6s1.9-3.9,0-10.4c-1.9-6.5-14.3-47.4-15.5-51.8c-1.2-4.4-2.9-3.5-6.5-2.7s-3.6-4-3.7-8.9
	c-0.1-4.9,0.3-14.3,5.9-12.9c5.6,1.4,28,7.8,72.7,7.8s67.1-6.5,72.7-7.8c5.6-1.4,6,8,5.9,12.9c-0.1,4.9-0.1,9.7-3.7,8.9
	s-5.3-1.7-6.5,2.7c-1.2,4.4-13.6,45.3-15.5,51.8c-1.9,6.5-2.2,10,0,10.4s14.1,2.6,14.1,2.6c2.2,4.8,6.1,2.2,7.7,1s5.3-4.9,8.5-14.8
	C193.5,144.3,192.9,102.1,192.8,97.7z"/>
</svg>
