<?xml version="1.0" encoding="utf-8"?>
<!-- Generator: Adobe Illustrator 24.3.0, SVG Export Plug-In . SVG Version: 6.00 Build 0)  -->
<svg version="1.1" id="Layer_1" xmlns="http://www.w3.org/2000/svg" xmlns:xlink="http://www.w3.org/1999/xlink" x="0px" y="0px"
	 viewBox="0 0 200 200" style="enable-background:new 0 0 200 200;" xml:space="preserve">
<style type="text/css">
	.st0{fill:none;stroke:#C82828;stroke-width:3;stroke-miterlimit:10;}
	.st1{fill:none;stroke:#282828;stroke-width:3;stroke-linecap:round;stroke-miterlimit:10;}
</style>
<path class="st0" d="M15,72.7c0,0,32.7-30.4,35.2-31.9c2.5-1.4,4.1-3.1,5.9,1.8c1.8,5,1.3,4,1.3,6.4s-0.5,7,3.1,9.5
	c3.6,2.5,28.5,17.9,39.9,20.9c11.4,3.1,20.2,4.3,28.2,4.3s27.6-3.9,38.4-7.7c10.8-3.8,24.4-8.2,26.1-8.8c2.7-0.9,6.2,1.8,1.9,4.3
	S151.3,96.1,150,96.8c-1.2,0.8-3.6,1.4-7.5,0.3s-27.3-5.8-28.9-6c-1.6-0.2-3.6-0.3-3.7,3.1c-0.1,3.4-0.4,6.4-0.3,7.8
	c0.1,1.4,1.6,4.4,2.8,6.2c1.2,1.8,1.7,3.1,1.5,5c-0.2,1.9-0.9,3.1-2.4,4.6c-1.5,1.5-2.9,2.2-5.6,3.9c-2.6,1.7-32.2,18.3-34.5,19.7
	c-2.3,1.4-9.7,3.6-13.5-1.2c-3.8-4.7-18.6-25.4-19.8-26.8s-5.6-2.5-7.4,1.3s-1.2,5.9-0.6,8.3c0.5,2.5,1.4,5.5,2.4,7.3
	s2.6,3.1,4.4,3.6c1.8,0.5,3.9,1.2,5.8,3.8c1.9,2.5,4.7,7.7,5.4,9.2c0.6,1.6,1.6,4.7-1.5,7.7c-3.1,2.9-8.7,6-10.1,6
	c-1.4-0.1-6.8,1.5-9.2-3.9S4.4,99.1,3.6,97.1s-2-5.2,1.8-11.7C9.2,78.9,15,72.7,15,72.7z"/>
<line class="st1" x1="22.1" y1="131.3" x2="13.8" y2="134.9"/>
</svg>
