<?xml version="1.0" encoding="utf-8"?>
<!-- Generator: Adobe Illustrator 24.1.1, SVG Export Plug-In . SVG Version: 6.00 Build 0)  -->
<svg version="1.1" id="Layer_1" xmlns="http://www.w3.org/2000/svg" xmlns:xlink="http://www.w3.org/1999/xlink" x="0px" y="0px"
	 viewBox="0 0 200 140" style="enable-background:new 0 0 200 140;" xml:space="preserve">
<style type="text/css">
	.st0{fill:none;stroke:#C82828;stroke-width:2;stroke-miterlimit:10;}
	.st1{fill:none;stroke:#282828;stroke-width:3;stroke-linecap:round;stroke-miterlimit:10;}
</style>
<g>
	<path class="st0" d="M17.2,103.4C10.7,87,3.2,68.1,2.8,67c-0.8-2-2-5.2,1.8-11.8s9.7-12.8,9.7-12.8s33-30.7,35.5-32.2
		c2.5-1.4,4.1-3.1,6,1.8c1.8,5,1.3,4,1.3,6.5s-0.5,7.1,3.1,9.6c3.6,2.5,28.8,18.1,40.3,21.1c11.5,3.1,20.4,4.3,28.5,4.3
		c8.1,0,27.8-3.9,38.7-7.8c10.9-3.8,24.6-8.3,26.3-8.9c2.7-0.9,6.3,1.8,1.9,4.3c-4.3,2.5-44.1,24.8-45.4,25.5
		c-1.2,0.8-3.6,1.4-7.6,0.3c-3.9-1.1-27.5-5.9-29.2-6.1s-3.6-0.3-3.7,3.1c-0.1,3.4-0.4,6.5-0.3,7.9c0.1,1.4,1.6,4.4,2.8,6.3
		c1.2,1.8,1.7,3.1,1.5,5c-0.2,1.9-0.9,3.1-2.4,4.6c-1.5,1.5-2.9,2.2-5.7,3.9c-2.6,1.7-32.5,18.5-34.8,19.9
		c-2.3,1.4-9.8,3.6-13.6-1.2c-3.8-4.7-18.8-25.6-20-27c-1.2-1.4-5.7-2.5-7.5,1.3s-1.2,6-0.6,8.4c0.5,2.5,1.4,5.5,2.4,7.4
		c1,1.8,2.6,3.1,4.4,3.6s3.9,1.2,5.9,3.8c1.9,2.5,4.7,7.8,5.4,9.3c0.6,1.6,1.6,4.7-1.5,7.8c-3.1,2.9-8.8,6.1-10.2,6.1
		c-1.4-0.1-6.9,1.5-9.3-3.9C25.7,124.9,21.7,114.8,17.2,103.4"/>
	<line class="st1" x1="21.5" y1="101.5" x2="13.1" y2="105.2"/>
</g>
</svg>
