<svg xmlns="http://www.w3.org/2000/svg" viewBox="0 0 735.95 542.2"><defs><style>.cls-1{fill:#282828;}.cls-2{fill:#c82828;}</style></defs><g id="Layer_2" data-name="Layer 2"><g id="Layer_1-2" data-name="Layer 1"><path class="cls-1" d="M704.39,322.21c17.33.85,32.36-7.61,31.52-19.25-.91-12.68-40.75-26.37-48-26.77-4.45-.24-12.86,4.47-18.65,8.11-4.15-25.17-12-68.62-18.52-79.47-9.78-16.38-25.31-23.24-39.1-28.39-19.58-7.3-53.9-18.66-117.28-31.37h0l-.49-.1-.49-.1h0C430,132.25,395,129.75,374.06,129c-14.71-.55-31.69-.18-47,11.18-10.15,7.53-34.12,44.62-47.63,66.26-3.95-5.59-9.9-13.17-14.1-14.65-6.81-2.4-48.85-5.07-54.57,6.28-5.24,10.43,5.38,24,21.71,29.89-24,12.16-32.3,34-38,55.38-7.51,28-16.93,83.13-13.58,109.64l-7.15,35.8a14.93,14.93,0,0,0,11.72,17.57l64.1,12.81a14.94,14.94,0,0,0,17.57-11.72l2.18-10.92c51.86,6.8,124.56,18.4,161.74,25.83S539.77,487,590.26,500.62l-2.18,10.91A14.93,14.93,0,0,0,599.8,529.1l64.09,12.81a15,15,0,0,0,17.58-11.72l7.15-35.8c13.28-23.18,25.75-77.67,29.59-106.44C721.14,366,721.82,342.64,704.39,322.21ZM339.56,157c8.94-6.63,19.13-7.61,33.71-7.06,20.23.75,54.3,3.19,116.52,15.6s95.59,23.49,114.55,30.56c13.68,5.1,22.71,9.92,28.41,19.47,3.52,5.9,10.63,40.67,16.06,73.53-61.95-21.73-174.68-42.62-174.68-42.62s-112.1-24-177.64-27.77C314.12,190.49,334.05,161.11,339.56,157Zm-102,167.29L234.21,309a13.46,13.46,0,0,1,17.56-15.57l54.17,18.81a13.45,13.45,0,0,1,8.93,11l.86,6.83a13.45,13.45,0,0,1-16,14.86l-51.69-10.32A13.44,13.44,0,0,1,237.56,324.31Zm58.32,57.9L243.8,371.8a10,10,0,0,1,3.9-19.53l52.08,10.41a10,10,0,0,1-3.9,19.53Zm256.89,10.57-12,20.8a13.59,13.59,0,0,1-14.46,6.55l-83.55-16.69-83.56-16.69a13.63,13.63,0,0,1-10.83-11.61l-3.06-23.8a13.61,13.61,0,0,1,16.16-15.09l91.08,18.2,91.07,18.19A13.61,13.61,0,0,1,552.77,392.78Zm85.87,57.9-52.08-10.4a10,10,0,0,1,3.9-19.53l52.08,10.4a10,10,0,0,1-3.9,19.53Zm33-54.3-9,12.86a13.46,13.46,0,0,1-13.67,5.5L597.3,404.41a13.46,13.46,0,0,1-9-19.86l3.42-6a13.44,13.44,0,0,1,12.49-6.76l57.24,3.45A13.45,13.45,0,0,1,671.62,396.38Z"/><path class="cls-2" d="M334.25,39.61a37.62,37.62,0,0,0-65.5-27.13L220.82,65.57,172.89,12.48a37.62,37.62,0,0,0-65.5,27.13L111,111,39.61,107.4a37.61,37.61,0,0,0-27.13,65.49l53.09,47.93L12.48,268.75a37.62,37.62,0,0,0,27.13,65.5L111,330.6s4.63,101.94,19.53,108.11c4.77,2,20.56-108.7,20.56-108.7a37.62,37.62,0,0,0-39.49-39.49L44.25,294l50.08-45.21a37.62,37.62,0,0,0,0-55.85L44.25,147.68l67.38,3.44a37.61,37.61,0,0,0,39.5-39.49l-3.45-67.38L192.9,94.33a37.67,37.67,0,0,0,27.92,12.41h0a37.69,37.69,0,0,0,27.93-12.41L294,44.25s0,88.39,7.53,95.91S334.25,39.61,334.25,39.61Z"/></g></g></svg>