<svg xmlns="http://www.w3.org/2000/svg" viewBox="0 0 80 41.94"><defs><style>.cls-1{fill:#282828;}.cls-2{fill:#c82828;}</style></defs><g id="Layer_2" data-name="Layer 2"><g id="Layer_1-2" data-name="Layer 1"><path class="cls-1" d="M77.06,18.13c1.83-.27,3.22-1.47,2.89-2.67s-4.81-1.9-5.57-1.8A4.93,4.93,0,0,0,72.6,14.9C71.64,12.36,69.91,8,69,7a7.43,7.43,0,0,0-4.68-2.15A80.92,80.92,0,0,0,51.41,4H51.3a79.13,79.13,0,0,0-12.8.83A7.43,7.43,0,0,0,33.82,7c-.91,1-2.64,5.38-3.6,7.92a4.93,4.93,0,0,0-1.78-1.24c-.76-.1-5.21.49-5.57,1.8s1.06,2.4,2.89,2.67c-2.25,1.77-2.66,4.23-2.82,6.58-.2,3.09,0,9,.87,11.75v3.89a1.6,1.6,0,0,0,1.6,1.59h7A1.6,1.6,0,0,0,34,40.35V39.16c5.56-.37,13.4-.68,17.44-.68s11.88.31,17.44.68v1.19a1.6,1.6,0,0,0,1.6,1.59h7A1.6,1.6,0,0,0,79,40.35V36.46c.9-2.7,1.07-8.66.87-11.75C79.72,22.36,79.31,19.9,77.06,18.13ZM35.48,8.48A5.27,5.27,0,0,1,38.85,7a76.3,76.3,0,0,1,12.51-.8A78,78,0,0,1,64,7a5.27,5.27,0,0,1,3.37,1.44,49.18,49.18,0,0,1,3.22,7.35c-6.93-1-19.15-.8-19.15-.8s-12.22-.17-19.15.8C33.52,12.51,35,9,35.48,8.48ZM28.31,28.1l-.67-1.53a1.44,1.44,0,0,1,1.51-2l6.05.84a1.44,1.44,0,0,1,1.17,1l.23.69A1.43,1.43,0,0,1,35.24,29H29.62A1.43,1.43,0,0,1,28.31,28.1Zm7.3,4.83H30a1.06,1.06,0,0,1,0-2.12h5.66a1.06,1.06,0,0,1,0,2.12Zm27.07-4.26-.81,2.43a1.45,1.45,0,0,1-1.38,1H42.33a1.45,1.45,0,0,1-1.38-1l-.81-2.43a1.44,1.44,0,0,1,1.37-1.91h19.8A1.44,1.44,0,0,1,62.68,28.67Zm10.19,4.26H67.21a1.06,1.06,0,0,1,0-2.12h5.66a1.06,1.06,0,1,1,0,2.12Zm2.31-6.36-.67,1.53A1.43,1.43,0,0,1,73.2,29H67.58a1.43,1.43,0,0,1-1.36-1.89l.23-.69a1.44,1.44,0,0,1,1.17-1l6-.84A1.44,1.44,0,0,1,75.18,26.57Z"/><path class="cls-2" d="M22.94,24.71a15.46,15.46,0,0,1,.43-2.85H15.19a1.12,1.12,0,0,1-1.07-.77l-.64-1.88a1.13,1.13,0,0,1,1.07-1.49H24.4c-1.09-.52-1.77-1.39-1.53-2.26.36-1.31,4.81-1.9,5.57-1.8a4.93,4.93,0,0,1,1.78,1.24c.65-1.73,1.66-4.31,2.53-6.1-5-.29-10.49-.22-10.49-.22a129.37,129.37,0,0,0-14.91.63,38.34,38.34,0,0,1,2.5-5.72,4.11,4.11,0,0,1,2.63-1.12,58.51,58.51,0,0,1,9.74-.63A59.62,59.62,0,0,1,32,2.37a4.11,4.11,0,0,1,2.63,1.12A11.47,11.47,0,0,1,35.72,5.6,8.54,8.54,0,0,1,37.38,5,13.36,13.36,0,0,0,36,2.32,5.77,5.77,0,0,0,32.31.65a61,61,0,0,0-10-.65h-.09a59.83,59.83,0,0,0-10,.65A5.8,5.8,0,0,0,8.56,2.32c-.7.78-2.05,4.19-2.8,6.17a3.94,3.94,0,0,0-1.38-1C3.78,7.44.32,7.9,0,8.92S.87,10.79,2.29,11C.54,12.38.21,14.29.1,16.13c-.16,2.4,0,7,.67,9.14v3A1.25,1.25,0,0,0,2,29.54H7.44A1.25,1.25,0,0,0,8.68,28.3v-.93c4.33-.29,10.43-.52,13.58-.52h.61C22.88,26.06,22.9,25.33,22.94,24.71ZM4.27,18.76l-.52-1.19A1.11,1.11,0,0,1,4.93,16l4.71.65a1.12,1.12,0,0,1,.91.75l.18.54a1.12,1.12,0,0,1-1.06,1.47H5.29A1.11,1.11,0,0,1,4.27,18.76ZM10,22.52H5.55a.83.83,0,0,1,0-1.65H10a.83.83,0,0,1,0,1.65Z"/></g></g></svg>