<svg xmlns="http://www.w3.org/2000/svg" viewBox="0 0 80 55.35"><defs><style>.cls-1{fill:#282828;}.cls-2{fill:#fff;}.cls-3{fill:#c82828;}</style></defs><g id="Layer_2" data-name="Layer 2"><g id="Layer_1-2" data-name="Layer 1"><path class="cls-1" d="M77,31.36c1.85-.28,3.25-1.49,2.92-2.69s-4.85-1.92-5.62-1.81a4.84,4.84,0,0,0-1.79,1.24c-1-2.56-2.71-7-3.62-8A7.53,7.53,0,0,0,64.2,18a79.82,79.82,0,0,0-13-.83h-.1A78.08,78.08,0,0,0,38.17,18a7.53,7.53,0,0,0-4.72,2.17c-.91,1-2.65,5.42-3.62,8A4.86,4.86,0,0,0,28,26.86c-.76-.11-5.25.49-5.61,1.81s1.07,2.41,2.91,2.69c-2.26,1.78-2.68,4.26-2.84,6.63-.2,3.11,0,9.12.88,11.84v3.92A1.6,1.6,0,0,0,25,55.35h7a1.6,1.6,0,0,0,1.6-1.6v-1.2c5.61-.37,13.51-.68,17.58-.68s12,.31,17.59.68v1.2a1.59,1.59,0,0,0,1.6,1.6h7A1.6,1.6,0,0,0,79,53.75V49.83c.91-2.72,1.08-8.73.88-11.84C79.72,35.62,79.3,33.14,77,31.36ZM35.12,21.63a5.39,5.39,0,0,1,3.41-1.45,75.72,75.72,0,0,1,12.6-.81,77.45,77.45,0,0,1,12.71.81,5.34,5.34,0,0,1,3.4,1.45c.5.55,2,4.06,3.24,7.41-7-1-19.3-.81-19.3-.81s-12.31-.17-19.29.81A49.08,49.08,0,0,1,35.12,21.63ZM27.9,41.4l-.68-1.54a1.45,1.45,0,0,1,1.53-2l6.1.84a1.44,1.44,0,0,1,1.17,1l.24.7a1.45,1.45,0,0,1-1.37,1.9H29.22A1.44,1.44,0,0,1,27.9,41.4Zm7.36,4.88h-5.7a1.07,1.07,0,0,1,0-2.14h5.7a1.07,1.07,0,0,1,0,2.14ZM62.55,42l-.83,2.45a1.45,1.45,0,0,1-1.38,1H42a1.45,1.45,0,0,1-1.38-1L39.82,42a1.47,1.47,0,0,1,1.39-1.93H61.16A1.47,1.47,0,0,1,62.55,42Zm10.26,4.3h-5.7a1.07,1.07,0,1,1,0-2.14h5.7a1.07,1.07,0,0,1,0,2.14Zm2.33-6.42-.67,1.54a1.44,1.44,0,0,1-1.32.87H67.48a1.45,1.45,0,0,1-1.37-1.9l.24-.7a1.44,1.44,0,0,1,1.17-1l6.1-.84A1.44,1.44,0,0,1,75.14,39.86Z"/><rect class="cls-2" x="19.98" y="12.63" width="24.24" height="18.18" transform="translate(3.17 47.5) rotate(-75.8)"/><rect class="cls-1" x="31.3" y="9.87" width="6.06" height="6.06" transform="translate(55.26 -17.21) rotate(104.2)"/><rect class="cls-1" x="23.94" y="14.26" width="6.06" height="6.06" transform="translate(50.35 -4.61) rotate(104.2)"/><rect class="cls-1" x="28.32" y="21.62" width="6.06" height="6.06" transform="translate(62.95 0.31) rotate(104.2)"/><rect class="cls-1" x="35.69" y="17.24" width="6.06" height="6.06" transform="translate(67.86 -12.29) rotate(104.2)"/><rect class="cls-1" x="32.71" y="28.98" width="6.06" height="6.06" transform="translate(75.55 5.22) rotate(104.2)"/><rect class="cls-1" x="20.96" y="26.01" width="6.06" height="6.06" transform="translate(58.03 12.91) rotate(104.2)"/><rect class="cls-2" x="6.47" y="6.71" width="24.24" height="18.18" transform="translate(-1.28 29.95) rotate(-75.8)"/><rect class="cls-1" x="23.67" y="5.44" width="6.06" height="6.06" transform="translate(41.46 -15.33) rotate(104.2)"/><rect class="cls-1" x="20.69" y="17.19" width="6.06" height="6.06" transform="translate(49.15 2.18) rotate(104.2)"/><rect class="cls-1" x="16.31" y="9.83" width="6.06" height="6.06" transform="translate(36.55 -2.73) rotate(104.2)"/><rect class="cls-1" x="13.33" y="21.58" width="6.06" height="6.06" transform="translate(44.23 14.78) rotate(104.2)"/><rect class="cls-1" x="11.92" y="2.47" width="6.06" height="6.06" transform="translate(23.95 -7.64) rotate(104.2)"/><rect class="cls-1" x="8.95" y="14.22" width="6.06" height="6.06" transform="translate(31.63 9.87) rotate(104.2)"/><path class="cls-3" d="M1.37,46.79A1.81,1.81,0,0,1,.06,44.58L11,1.37a1.82,1.82,0,0,1,3.53.89L3.58,45.48A1.81,1.81,0,0,1,1.37,46.79Z"/><polygon class="cls-3" points="24.43 29.78 20.31 31.23 20.91 28.88 24.43 29.78"/></g></g></svg>