<?xml version="1.0" encoding="utf-8"?>
<!-- Generator: Adobe Illustrator 24.3.0, SVG Export Plug-In . SVG Version: 6.00 Build 0)  -->
<svg version="1.1" id="Layer_1" xmlns="http://www.w3.org/2000/svg" xmlns:xlink="http://www.w3.org/1999/xlink" x="0px" y="0px"
	 viewBox="0 0 200 200" style="enable-background:new 0 0 200 200;" xml:space="preserve">
<style type="text/css">
	.st0{fill:none;stroke:#C82828;stroke-width:3;stroke-miterlimit:10;}
	.st1{fill:none;stroke:#282828;stroke-width:3;stroke-linecap:round;stroke-miterlimit:10;}
</style>
<path class="st0" d="M24.5,62.6c0,0,126.6,0,130.1,0s41.8,10.1,42.5,10.6c0.7,0.5-10.2,18.7-13.1,21.7s-14.7,15.2-15.7,16.2
	c-1.1,1.1-15.5,11.7-16.9,12s-5.5,0-5.5,0s0.4,9,0.2,9.9s-18.9-1.1-20.7-1.1c-1.8,0-24.5,5.1-27.9,5.5c-3.4,0.4-16.1-2.3-18.7-3.5
	c-2.6-1.2-4.9-3.4-6.4-3.4s-2.5-0.2-4.2-0.5c-1.8-0.4-27.4-7.8-31.4-9.2c-4.1-1.4-17.3-4.8-19.9-8.8s-6.7-10.4-7.1-18.9
	C9.5,84.6,7.9,83.6,6,82.7c-1.9-0.9-3.2-5.5-3.2-9.5c0-4.1-0.2-4.9,1.6-5.5C6.2,67.1,22.2,62.6,24.5,62.6z"/>
<line class="st1" x1="43.4" y1="118.3" x2="41.5" y2="127.1"/>
</svg>
