<?xml version="1.0" encoding="utf-8"?>
<!-- Generator: Adobe Illustrator 24.3.0, SVG Export Plug-In . SVG Version: 6.00 Build 0)  -->
<svg version="1.1" id="Layer_1" xmlns="http://www.w3.org/2000/svg" xmlns:xlink="http://www.w3.org/1999/xlink" x="0px" y="0px"
	 viewBox="0 0 200 200" style="enable-background:new 0 0 200 200;" xml:space="preserve">
<style type="text/css">
	.st0{fill:none;stroke:#C82828;stroke-width:3;stroke-miterlimit:10;}
	.st1{fill:none;stroke:#282828;stroke-width:3;stroke-linecap:round;stroke-miterlimit:10;}
</style>
<g>
	<path class="st0" d="M21.3,105.9c0,0,125.3-57.5,128.7-59.1c3.5-1.6,46-9,46.9-8.8s-1.6,23.1-3.1,27.4s-7.6,21.7-8.2,23.2
		c-0.6,1.6-10,18.6-11.3,19.6c-1.2,0.9-5.4,2.5-5.4,2.5s4.5,8.7,4.7,9.7c0.2,1-19.2,7.5-21,8.3c-1.8,0.8-21.9,16.2-25.1,18.1
		c-3.2,1.9-17,5-20.1,5c-3.1,0-6.4-1.1-7.9-0.5c-1.5,0.7-2.6,0.9-4.4,1.4c-2,0.4-30.7,4.7-35.3,5.2c-4.7,0.5-19.3,3.1-23.7,0.3
		s-11.4-7.2-15.6-15.5c-4.2-8.3-6.2-8.5-8.5-8.6c-2.3,0-5.7-4-7.5-7.9c-1.9-4.1-2.4-4.8-0.9-6.2C5.2,118.7,19,107,21.3,105.9z"/>
	<line class="st1" x1="65.3" y1="152.5" x2="67.5" y2="162"/>
</g>
</svg>
