<?xml version="1.0" encoding="utf-8"?>
<!-- Generator: Adobe Illustrator 24.1.1, SVG Export Plug-In . SVG Version: 6.00 Build 0)  -->
<svg version="1.1" id="Layer_1" xmlns="http://www.w3.org/2000/svg" xmlns:xlink="http://www.w3.org/1999/xlink" x="0px" y="0px"
	 viewBox="0 0 200 140" style="enable-background:new 0 0 200 140;" xml:space="preserve">
<style type="text/css">
	.st0{fill:none;stroke:#C82828;stroke-width:2;stroke-miterlimit:10;}
	.st1{fill:none;stroke:#282828;stroke-width:3;stroke-linecap:round;stroke-miterlimit:10;}
</style>
<g>
	<path class="st0" d="M66.1,127.5c-3.1,0.4-5.5,0.8-6.7,0.9c-4.7,0.5-19.5,3.1-23.9,0.3c-4.4-2.8-11.5-7.3-15.7-15.6
		s-6.3-8.6-8.6-8.7c-2.3,0-5.7-4-7.6-8c-1.9-4.1-2.4-4.8-0.9-6.3c1.6-1.3,15.5-13.1,17.8-14.2c0,0,126.4-58,129.8-59.6
		c3.5-1.6,46.4-9.1,47.3-8.9c0.9,0.2-1.6,23.3-3.1,27.6s-7.7,21.9-8.3,23.4c-0.6,1.6-10.1,18.8-11.4,19.8c-1.2,0.9-5.4,2.5-5.4,2.5
		s4.5,8.8,4.7,9.8s-19.4,7.6-21.2,8.4s-22.1,16.3-25.3,18.3c-3.2,1.9-17.1,5-20.3,5s-6.5-1.1-8-0.5c-1.5,0.7-2.6,0.9-4.4,1.4
		C93.5,123.4,76.2,126.1,66.1,127.5"/>
	<line class="st1" x1="65" y1="122.9" x2="67.2" y2="132.5"/>
</g>
</svg>
