<?xml version="1.0" encoding="utf-8"?>
<!-- Generator: Adobe Illustrator 24.3.0, SVG Export Plug-In . SVG Version: 6.00 Build 0)  -->
<svg version="1.1" id="Layer_1" xmlns="http://www.w3.org/2000/svg" xmlns:xlink="http://www.w3.org/1999/xlink" x="0px" y="0px"
	 viewBox="0 0 200 140" style="enable-background:new 0 0 200 140;" xml:space="preserve">
<style type="text/css">
	.st0{fill:none;stroke:#C82828;stroke-width:2;stroke-miterlimit:10;}
	.st1{fill:none;stroke:#282828;stroke-width:3;stroke-linecap:round;stroke-miterlimit:10;}
</style>
<path class="st0" d="M48.9,119.3c-5.5-0.1-12.4-0.2-14.1-0.6c-2.6-0.6-6.4-0.5-8.7-5.2c-1.4-2.9-2.9-2.9-3.8-2.9c0,0-1.1-0.1-2-1.9
	c-0.9-1.9-1.9-3.9-3.6-5.1c-1.7-1.2-4.9-2.6-4.5-6.1c0.4-3.5-0.1-4-1.5-5c-1.4-1-2.2-0.5-3-0.6s-1.4,0.3-3.2-3.7S2,82.3,2,81.2
	c0-1.1,2.8-5.4,4.6-6.9s7.9-5.9,12.2-8.1c4.3-2.2,49-16.1,50.2-16.6c1.2-0.5,1.6-0.4,2.5,0.3c0.9,0.7,2.4,0.2,3.4-1.2
	s2.2-1.6,4.9-2.5c2.7-0.9,55.2-17.8,56.6-18.2s1.9-1.9,2.3-2.6s1.7-0.2,2.6,0c0.8,0.2,1.3,0.2,2,0.2s7.8-2.2,9.4-2.6
	c1.6-0.4,37.9-2.3,38.9-2.3c1,0,5.3,1,6,1.4c0.7,0.4,0.1,1.4-0.4,3.3c-0.5,1.9-6.2,21.6-6.6,23.5s-12.3,26-21.2,34
	c-0.6,0.5-1.7,1.8-5.5,2.6c-1.6,0.4-2.3,1.4-1.5,3.5c0.8,2.1,2.8,6.7,2.9,7.2c0.2,0.5,0.7,1.3-0.7,1.6c-1.4,0.3-17.2,4-18.5,4.3
	c-1.3,0.3-15.7,7.2-16.9,8.1c-1.2,1-5.2,3.6-5.9,3.9c-0.7,0.4-1,0.8-3.3,0.8s-2.9-0.2-4.2-1.7c-1.3-1.4-2.9-3.1-4.3-3.1
	s-3.9,0-4.9,0s-2.3,1.1-4.4,3.4c-1.4,1.6-2.8,1.4-4.4,1.4s-2.6-0.4-3.7-1.7c-1.1-1.3-2.6-2.5-4.2-2.5c-1.6,0-3.8,1.1-7.5,1.1
	c-1.8,0-2.5-0.7-3.6-0.7c-1.1,0-15.9,4.2-16.4,4.5c-0.5,0.3,0.1,2-1.9,2s-2.6,0.1-2.9,0.9c-0.3,0.8-0.1,0.8-1.7,0.8
	C55.3,119.3,52.4,119.3,48.9,119.3"/>
<line class="st1" x1="48.9" y1="114.3" x2="48.9" y2="124.3"/>
</svg>
