<?xml version="1.0" encoding="utf-8"?>
<!-- Generator: Adobe Illustrator 24.1.1, SVG Export Plug-In . SVG Version: 6.00 Build 0)  -->
<svg version="1.1" id="Layer_1" xmlns="http://www.w3.org/2000/svg" xmlns:xlink="http://www.w3.org/1999/xlink" x="0px" y="0px"
	 viewBox="0 0 200 140" style="enable-background:new 0 0 200 140;" xml:space="preserve">
<style type="text/css">
	.st0{fill:none;stroke:#C82828;stroke-width:2;stroke-miterlimit:10;}
	.st1{fill:none;stroke:#282828;stroke-width:3;stroke-linecap:round;stroke-miterlimit:10;}
</style>
<g>
	<path class="st0" d="M89.6,131.6c-32.8,0-65.2,0-67.2,0c-4.1,0-20.4-3.6-20.4-19c0-5.1-0.1-9.8,2.4-13.4s5-5.8,10.9-5.8
		s11.9,3,27,3c6.4,0,7.3-0.3,8.6-1.1c1.3-0.9,5.7-4.2,6.8-6.9c1-2.6,1.9-5.2,1.9-9s-3.6-9.6-4.6-11.1c-1-1.6-3.1-6.3-3.1-10.8
		s1.5-7.5,3.6-9.6c2.2-2.1,15.9-16.5,17.3-17.7c1.4-1.2,12.7-3.8,22.7-7.8S126.4,6,128.1,5c1.7-1,3.2-1.1,5.4-1.1s6.2-0.1,11.1,3.9
		s44.6,36.5,47.5,39.4c2.9,2.9,5.8,6,5.8,15.6c0,5.6-1.8,9.9-2.8,12.9c-1,3-10.9,33-12.4,35.9c-1.5,2.7-8.4,20-24,20
		C158.8,131.6,124,131.6,89.6,131.6"/>
	<line class="st1" x1="89.6" y1="127.1" x2="89.6" y2="136.1"/>
</g>
</svg>
