<?xml version="1.0" encoding="utf-8"?>
<!-- Generator: Adobe Illustrator 24.3.0, SVG Export Plug-In . SVG Version: 6.00 Build 0)  -->
<svg version="1.1" id="Layer_1" xmlns="http://www.w3.org/2000/svg" xmlns:xlink="http://www.w3.org/1999/xlink" x="0px" y="0px"
	 viewBox="0 0 200 200" style="enable-background:new 0 0 200 200;" xml:space="preserve">
<style type="text/css">
	.st0{fill:none;stroke:#C82828;stroke-width:3;stroke-miterlimit:10;}
	.st1{fill:none;stroke:#282828;stroke-width:3;stroke-linecap:round;stroke-miterlimit:10;}
</style>
<path class="st0" d="M158.3,163.4c0,0-131.2,0-135.3,0s-20.2-3.6-20.2-18.8c0-5.1-0.1-9.7,2.4-13.3c2.5-3.6,5-5.8,10.8-5.8
	s11.8,3,26.8,3c6.3,0,7.2-0.3,8.5-1.1c1.3-0.9,5.7-4.2,6.7-6.8c1-2.6,1.9-5.2,1.9-8.9s-3.6-9.5-4.6-11c-1-1.6-3.1-6.2-3.1-10.7
	s1.5-7.4,3.6-9.5C58,78.4,71.6,64.1,73,62.9c1.4-1.2,12.6-3.8,22.5-7.7s30.7-16.4,32.4-17.4s3.2-1.1,5.4-1.1c2.2,0,6.1-0.1,11,3.9
	s44.2,36.2,47.1,39.1c2.9,2.9,5.8,6,5.8,15.5c0,5.6-1.8,9.8-2.8,12.8c-1,3-10.8,32.7-12.3,35.6C180.6,146.3,173.8,163.4,158.3,163.4
	z"/>
<line class="st1" x1="89.7" y1="158.9" x2="89.7" y2="167.9"/>
</svg>
