<?xml version="1.0" encoding="utf-8"?>
<!-- Generator: Adobe Illustrator 24.3.0, SVG Export Plug-In . SVG Version: 6.00 Build 0)  -->
<svg version="1.1" id="Layer_1" xmlns="http://www.w3.org/2000/svg" xmlns:xlink="http://www.w3.org/1999/xlink" x="0px" y="0px"
	 viewBox="0 0 200 200" style="enable-background:new 0 0 200 200;" xml:space="preserve">
<style type="text/css">
	.st0{fill:none;stroke:#C82828;stroke-width:3;stroke-miterlimit:10;}
	.st1{fill:none;stroke:#282828;stroke-width:3;stroke-linecap:round;stroke-miterlimit:10;}
</style>
<path class="st0" d="M41.7,91.7c0,0,34.9,6.1,36.6,6.5c1.7,0.4,2.7,0.8,4.7,3.4c2.1,2.5,1.9,3.2,4,3.4c2.1,0.3,2.9,0,3.9,0
	c1,0,2.5-0.3,3.2-2.5c0.6-2.2,0.7-4.4,1.7-4.8c1-0.4,4.1-0.6,6.1-0.7c2.1-0.1,9,1.1,14.9,1.5c5.8,0.4,29.1,2.6,48.7-7.3
	c11.7-5.9,13.7-10.6,15.3-12.8c1.5-2.3,19.1-32.5,19.8-33.9c0.6-1.4,1.4-3.7-3.2-4.4c-4.6-0.8-6.4-0.7-7.5-0.7s-2.4-0.1-2.7,3.2
	c-0.3,3.4-1,7.6-1.1,8.6s-2.4,6.1-5.1,4.7c-2.7-1.3-2.7-5.8-2.6-7.3c0-1.5,0.2-9.4,0.4-10.6c0.2-1.2,2.2-5.5,2-8.7
	c-0.1-3.2-2.2-4.5-5.2-2.5c-2.9,2-29.5,22.1-31.6,24.1c-2.1,2-4.7,5-1.8,11.6c3,6.7,6.3,14.1,1.5,19.9c-4.8,5.8-10.1,6.1-16,5.3
	c-5.8-0.9-14.7-2.5-19-2.6S97.2,86,93.4,85.8c-3.8-0.2-55-4.8-56.4-5.3c-1.4-0.4-6-2.6-8-2c-2,0.6-3.2,5.6-4.4,8.7
	c-1,2.8-13.1,33.3-14.4,39s-4.4,18.4-3.4,26s3.6,14.6,4.1,17.1c0.5,2.6,0.9,5.2,0.1,6.9c-0.7,1.7-1.8,3.4-0.8,5
	c0.9,1.6,0.4,2.4,5.8,3.2c5.5,1,15,2.3,16.3,2.5c1.4,0.2,5.7,0.2,5.8-3.5c-0.1-3.6-5.1-5.9-7.3-8s-6.7-8-8.6-13
	c-1.7-5-3.7-12.1-3.5-15.2c0.2-3.1,2.5-3.8,4.1-3.6c1.6,0.3,3.5,0.9,4.4-3.2c0.9-4.1,3.3-14.2,3.5-16c0.2-1.8-0.3-2.8-2.1-4.9
	c-1.6-2.1-2.4-3.7-1.3-6.8c1.2-3,7.2-16.7,8.3-18.4C37.1,92.8,39.8,91.3,41.7,91.7z"/>
<line class="st1" x1="5.8" y1="125.3" x2="14.7" y2="126.9"/>
</svg>
