<?xml version="1.0" encoding="utf-8"?>
<!-- Generator: Adobe Illustrator 24.3.0, SVG Export Plug-In . SVG Version: 6.00 Build 0)  -->
<svg version="1.1" id="Layer_1" xmlns="http://www.w3.org/2000/svg" xmlns:xlink="http://www.w3.org/1999/xlink" x="0px" y="0px"
	 viewBox="0 0 200 200" style="enable-background:new 0 0 200 200;" xml:space="preserve">
<style type="text/css">
	.st0{fill:none;stroke:#C82828;stroke-width:3;stroke-miterlimit:10;}
	.st1{fill:none;stroke:#282828;stroke-width:3;stroke-linecap:round;stroke-miterlimit:10;}
</style>
<g>
	<path class="st0" d="M38.6,85.4c0,0,34.7,6.1,36.4,6.5s2.7,0.8,4.7,3.4c2.1,2.5,1.9,3.2,4,3.4c2.1,0.3,2.9,0,3.9,0s2.5-0.3,3.2-2.5
		c0.6-2.2,0.7-4.4,1.7-4.8s4.1-0.6,6.1-0.7c2.1-0.1,9,1.1,14.8,1.5c5.8,0.4,28.9,2.6,48.4-7.3c11.6-5.9,13.6-10.5,15.2-12.7
		c1.5-2.3,19-32.3,19.7-33.7c0.6-1.4,1.4-3.7-3.2-4.4c-4.6-0.8-6.4-0.7-7.5-0.7s-2.4-0.1-2.7,3.2c-0.3,3.4-1,7.6-1.1,8.6
		s-2.4,6.1-5.1,4.7c-2.7-1.3-2.7-5.8-2.6-7.3c0-1.5,0.2-9.4,0.4-10.5c0.2-1.2,2.2-5.5,2-8.7c-0.1-3.2-2.2-4.5-5.2-2.5
		c-2.9,2-29.3,22-31.4,24c-2.1,2-4.7,5-1.8,11.5c3,6.7,6.3,14,1.5,19.8c-4.8,5.8-10,6.1-15.9,5.3c-5.8-0.9-14.6-2.5-18.9-2.6
		S93.8,79.7,90,79.5c-3.8-0.2-54.7-4.8-56.1-5.3c-1.4-0.4-6-2.6-8-2s-3.2,5.6-4.4,8.7c-1,2.8-13,33.1-14.3,38.8S2.9,138,3.9,145.6
		s3.6,14.5,4.1,17c0.5,2.6,0.9,5.2,0.1,6.9c-0.7,1.7-1.8,3.4-0.8,5c0.9,1.6,0.4,2.4,5.8,3.2c5.5,1,14.9,2.3,16.2,2.5
		c1.4,0.2,5.7,0.2,5.8-3.5c-0.1-3.6-5.1-5.9-7.3-8s-6.7-8-8.6-12.9c-1.7-5-3.7-12-3.5-15.1c0.2-3.1,2.5-3.8,4.1-3.6
		c1.6,0.3,3.5,0.9,4.4-3.2c0.9-4.1,3.3-14.1,3.5-15.9s-0.3-2.8-2.1-4.9c-1.6-2.1-2.4-3.7-1.3-6.8c1.2-3,7.2-16.6,8.3-18.3
		C34,86.5,36.7,85,38.6,85.4z"/>
	<line class="st1" x1="2.9" y1="118.8" x2="11.7" y2="120.4"/>
</g>
</svg>
