<?xml version="1.0" encoding="utf-8"?>
<!-- Generator: Adobe Illustrator 24.1.1, SVG Export Plug-In . SVG Version: 6.00 Build 0)  -->
<svg version="1.1" id="Layer_1" xmlns="http://www.w3.org/2000/svg" xmlns:xlink="http://www.w3.org/1999/xlink" x="0px" y="0px"
	 viewBox="0 0 200 140" style="enable-background:new 0 0 200 140;" xml:space="preserve">
<style type="text/css">
	.st0{fill:none;stroke:#C82828;stroke-width:2;stroke-miterlimit:10;}
	.st1{fill:none;stroke:#282828;stroke-width:3;stroke-linecap:round;stroke-miterlimit:10;}
</style>
<g>
	<path class="st0" d="M35,41.9c-4.2,2.6-13.5,8.3-17.4,13.5s-6.5,10.8-7.7,12.6c-1.3,1.8-2.6,3.6-4,4.2c-1.4,0.6-3.1,1-3.5,2.5
		C2,76.1,1.2,76.3,4,80c2.7,3.9,7.5,10.2,8.2,11.1c0.7,1,3.3,3.5,5.5,1.4c2.1-2.2,0.5-6.5,0.4-9.1s0.8-8.8,2.6-12.8
		c2-4,4.9-9.3,6.9-11.1s3.8-0.8,4.6,0.3c0.8,1.1,1.5,2.6,4.5,0.7c3-1.9,10.4-6.4,11.6-7.4c1.2-1,1.5-1.8,1.7-4.2
		c0.3-2.2,0.8-3.6,3.3-4.8c2.5-1.1,14.2-5.6,15.8-6c1.7-0.1,4.2,0.7,5.1,2c0,0,17,24.3,17.8,25.5c0.8,1.3,1.1,2.1,0.8,4.8
		c-0.2,2.7-0.8,3,0.4,4.4c1.1,1.4,1.7,1.7,2.3,2.3c0.6,0.6,1.7,1.3,3.4,0.4c1.7-1,3-2.2,3.9-1.8c0.8,0.4,2.8,2.1,4,3.2
		c1.3,1.2,4.7,6,7.9,9.7c3.2,3.7,15.7,18.8,33.2,24.5c10.4,3.4,14.3,1.8,16.6,1.5c2.3-0.5,30.5-7.9,31.8-8.3c1.2-0.5,3-1.4,0.7-4.5
		c-2.3-3.2-3.4-4.2-4-4.9c-0.7-0.7-1.4-1.5-3.5,0.3c-2.2,1.8-5.1,3.9-5.8,4.5c-0.7,0.5-5.1,2.2-5.8-0.2c-0.8-2.4,1.8-5.1,2.8-5.9
		c0.9-0.9,5.7-5.5,6.5-6c0.8-0.6,4.6-2,6.4-4c1.8-2,1.4-4-1.6-4.6c-2.9-0.5-30.5-4.3-33-4.4c-2.4-0.1-5.8,0.2-7.9,5.8
		c-2.2,5.8-4.6,12.1-10.9,12.7c-6.3,0.6-9.6-2.3-12.6-6.3c-2.9-4-7.2-10.2-9.7-12.8s-7.3-6.3-9.4-8.7c-2.1-2.4-29.7-35.4-30.2-36.6
		c-0.6-1.1-2-5.1-3.6-6c-1.5-0.8-5.2,1.4-7.8,2.6C64.4,28.4,39.2,39.3,35,41.9"/>
	<line class="st1" x1="33" y1="38.8" x2="37.3" y2="45"/>
</g>
</svg>
