<?xml version="1.0" encoding="utf-8"?>
<!-- Generator: Adobe Illustrator 24.1.1, SVG Export Plug-In . SVG Version: 6.00 Build 0)  -->
<svg version="1.1" id="Layer_1" xmlns="http://www.w3.org/2000/svg" xmlns:xlink="http://www.w3.org/1999/xlink" x="0px" y="0px"
	 viewBox="0 0 200 140" style="enable-background:new 0 0 200 140;" xml:space="preserve">
<style type="text/css">
	.st0{fill:none;stroke:#C82828;stroke-width:2;stroke-miterlimit:10;}
	.st1{fill:none;stroke:#282828;stroke-width:3;stroke-linecap:round;stroke-miterlimit:10;}
</style>
<g id="Layer_2_1_">
	<g id="Layer_1-2">
		<path class="st0" d="M167.2,115.2c-28.1,0.6-87,1.7-88.6,1.7c-1.7,0,0.5-5.3-1.7-4.2c-7.4,3.3-15.4,5-23.5,4.9
			c-12.3,0-26.9-3.2-31.1-27.8s-4.9-28.3-5-29.3c-0.2-1-1.9-1.4-2.7-1.4c-0.9,0-3.6-6.4-7.4-14.9S2,34.1,2,31.7s3.4-6.2,15.8-8.4
			s12.8-0.3,13.7,1c0,0,14.4,22.7,26.8,33.8c12.4,11.2,30.3,29.8,33.3,30.3c2.9,0.5,2.9,0,6.2,0s5.4-0.2,6.9,1.5
			c1.4,1.7,0.5,2.9,9.3,2.9h75.8c3.2,0,8.3,1.7,8.3,7.6s-1.2,14.1-27.9,14.7C169.2,115.2,168.2,115.2,167.2,115.2"/>
	</g>
</g>
<line class="st1" x1="167.2" y1="110.7" x2="167.2" y2="119.8"/>
</svg>
