<?xml version="1.0" encoding="utf-8"?>
<!-- Generator: Adobe Illustrator 24.3.0, SVG Export Plug-In . SVG Version: 6.00 Build 0)  -->
<svg version="1.1" id="Layer_1" xmlns="http://www.w3.org/2000/svg" xmlns:xlink="http://www.w3.org/1999/xlink" x="0px" y="0px"
	 viewBox="0 0 200 200" style="enable-background:new 0 0 200 200;" xml:space="preserve">
<style type="text/css">
	.st0{fill:none;stroke:#C82828;stroke-width:3;stroke-miterlimit:10;}
</style>
<g id="Layer_2_1_">
	<g id="Layer_1-2">
		<path class="st0" d="M32.1,54.7c0,0,14.3,22.5,26.6,33.5c12.3,11.1,30.1,29.6,33,30.1s2.9,0,6.1,0s5.4-0.2,6.8,1.5
			s0.5,2.9,9.2,2.9H189c3.2,0,8.2,1.7,8.2,7.5s-1.2,14-27.7,14.6s-89,1.7-90.7,1.7s0.5-5.3-1.7-4.2c-7.3,3.3-15.3,5-23.3,4.9
			c-12.2,0-26.7-3.2-30.8-27.6S18.1,91.5,18,90.5c-0.2-1-1.9-1.4-2.7-1.4c-0.9,0-3.6-6.3-7.3-14.8S2.8,64.4,2.8,62s3.4-6.1,15.7-8.3
			S31.2,53.4,32.1,54.7z"/>
	</g>
</g>
</svg>
