<?xml version="1.0" encoding="utf-8"?>
<!-- Generator: Adobe Illustrator 24.1.1, SVG Export Plug-In . SVG Version: 6.00 Build 0)  -->
<svg version="1.1" id="Layer_1" xmlns="http://www.w3.org/2000/svg" xmlns:xlink="http://www.w3.org/1999/xlink" x="0px" y="0px"
	 viewBox="0 0 200 140" style="enable-background:new 0 0 200 140;" xml:space="preserve">
<style type="text/css">
	.st0{fill:none;stroke:#C82828;stroke-width:2;stroke-miterlimit:10;}
	.st1{fill:none;stroke:#282828;stroke-width:3;stroke-linecap:round;stroke-miterlimit:10;}
</style>
<g>
	<path class="st0" d="M58.5,135.3c0.4,0.8,0.8,1.5,1,1.8c0.5,0.7,2.2,1,2.9,0.9c0.7-0.1,1.1-0.2,1.6-0.1c0.5,0,2.3,0.2,2.8-1.5
		c0.6-1.6,0.6-1.6,1.3-2.2c0.7-0.5,3.2-2.2,5.3-4.4c2-2.1,6.9-6.7,13-9c6.1-2.2,51.3-20.4,52.8-21c1.6-0.8,1.8-2.2,1.9-2.9
		c0.2-0.7,0.2-4.3-1.6-5.5c-1.8-1-5.1-3.3-5.8-4.2c-0.8-1-1.5-2.3-0.4-3s3.7-2,5.1-1.8s2.3,1.4,3,2.2c0.6,0.8,1,1.1,2.1,1.3
		c1.1,0.2,9.6-0.8,11.2-1.1c1.6-0.4,3.3-1.3,4-1.8c0.7-0.5,3-2,4.1-3.8c1.2-1.8,4.4-4.3,5.4-4.7c1-0.4,2.8-0.5,3.8-0.7
		c1.1-0.2,2.1-0.6,2.5-2c0.3-1.3,1.1-6.3,1.3-7.3c0.2-1.1,4.1-5.1,4.5-5.8c0.4-0.7,0.6-1.3,1-1.8s0.6-0.6,3.1,0.1
		c2.4,0.7,2.6,0.6,3.1,0.7c0.5,0,2.3,0.2,2.5-1.4c0.3-1.5,0.8-3.7,0.5-4.4c-0.3-0.7-3-2.1-3.4-2.9c-0.5-0.7-0.4-1.1-0.3-2.3
		s1.3-3.5,1.8-4.3c0.4-0.8,0.6-1.8-0.4-3.7c-1-2-1.8-2.8-2.8-3.4c-1-0.6-1.8-1.4-2.5-2.4c-0.6-1.1-5.4-4.3-7.2-4.7
		c-1.7-0.4-3.7-0.5-4.4,0.8c-0.7,1.4-1.2,2-1.4,2.6c0,0.6,0.2,1,0.1,1.6c0,0.6-0.3,1.2-1.3,2.2c-1,1-3.2,3.2-4.3,3.2
		c-1.2-0.1-8.7,0.2-10.5,2.4c-0.7,0.9-1.4,1.4-2.3,1.2c-0.9-0.2-1.7-0.9-1.5-1.9c0.1-1,1.2-1.6,1.9-1.5c0.7,0.2,2.2-0.6,3.9-1.6
		c1.7-0.9,3.7-1.7,3.9-2.8c0.2-1.1-0.8-2.1-2.5-1.6c-1.6,0.4-2.5,0.6-4,0.3c-1.6-0.3-3.5-0.4-4.7,0.4c-1.2,0.8-5.9,4.5-9.7,3.8
		c-3.8-0.7-5.9-3.2-8.4-6.4c-2.5-3.2-7.8-3.8-9.9-4.1c-2.2-0.4-5-0.9-6.4-1.1c-1.3-0.2-6-2.9-7.9-6.4c-1.9-3.6-1.5-6.4-1.2-8.7
		c0.4-2.3,0.8-4.5,1-5.6c0.2-1.1-1.3-4.1-4.3-2.4c-3,1.7-4.2,2.6-6.1,2.5s-7.2-0.5-8.6,0.2c-1.4,0.6-4.3,0.9-4.4,1.9
		s-0.5,2.7-0.6,3.1c0,0.3-0.6,1.3-1.7,1.6c-1.2,0.4-3.2-0.3-4.2-1s-4.7-1.6-5.8-1.2c-1.1,0.5-2.4,1.2-2.9,1.5
		c-0.6,0.4-1.4,0.2-1.7-0.7c-0.2-0.8-2.3-3.5-3.4-4.3c-1.3-0.9-2.3-1.6-3.8-1.8S54.1,6,53.8,8.1c-0.2,1.1-0.1,1.7-1.7,2.4
		c-1.5,0.6-4.1,1.5-5,1.8c-0.8,0.3-1.6,1.4-0.5,2.9c1.1,1.4,2,2.3,2.5,2.6c0.5,0.3,0.9,0.4,1.8,0.5c0.8,0.1,1.5,0.5,1.9,2.5
		c0.4,1.9,0.5,4.9-1.7,6.5c-2.2,1.6-6.5,4.9-7.9,5.8c-1.5,0.8-5.3,2.9-5.8,3.6c-0.4,0.7-0.1,2-0.2,3c-0.1,1-1.8,1.6-2.2,2
		s-0.5,3-0.6,3.7c-0.1,0.7-2.1,5.5-5.3,7.4s-9.9,6.7-14.1,7.5s-5.7,1-5.8,2.3c-0.1,1.4,1.6,1.7,3.1,3.1c1.4,1.4,3.3,2.6,4.4,6.9
		c1.1,4.3,2.3,9.3,2.8,11.5c0.5,2.3-0.1,5-0.6,7.6c-0.4,2.6-1.3,5-2.1,6.6c-0.8,1.4-1.7,3.2-2,4.8c-0.3,1.6,1.5,4.2,2.4,5.8
		c0.9,1.6,5.8,7.4,7.1,9c1.3,1.6,2.7,3.1,2.9,4.6s0.9,2.1,2.1,2.3c1.1,0.2,2,0,2.9,1.5c1,1.6,3.1,5.9,3.7,6.6
		c1.2,1.3,2.6,0.1,4.3,0.3c1.7,0.3,3.4,1,4.5,1.9c1.1,0.9,0.9,0.9,2.8,1.3c1.9,0.3,3.2,0,5.1-1.8c1.7-1.6,3.3-3.6,4.8-1.6
		C57.3,133,57.9,134.2,58.5,135.3"/>
	<line class="st1" x1="62" y1="133.1" x2="55" y2="137.5"/>
</g>
</svg>
