<?xml version="1.0" encoding="utf-8"?>
<!-- Generator: Adobe Illustrator 24.3.0, SVG Export Plug-In . SVG Version: 6.00 Build 0)  -->
<svg version="1.1" id="Layer_1" xmlns="http://www.w3.org/2000/svg" xmlns:xlink="http://www.w3.org/1999/xlink" x="0px" y="0px"
	 viewBox="0 0 200 200" style="enable-background:new 0 0 200 200;" xml:space="preserve">
<style type="text/css">
	.st0{fill:none;stroke:#C82828;stroke-width:3;stroke-miterlimit:10;}
	.st1{fill:none;stroke:#282828;stroke-width:3;stroke-linecap:round;stroke-miterlimit:10;}
</style>
<image style="overflow:visible;" width="745" height="568" xlink:href="8EF18F8C.jpg"  transform="matrix(1 0 0 1 -7652 -7652)">
</image>
<path class="st0" d="M177.4,101.7c-4.5,1.9-28.9,11.1-36.2,14.2c-7.3,3.1-107.9,45.8-113.1,48s-7.3-0.8-8.1-2.4
	c-0.8-1.6,1-5,1.5-6.3s2.3-3.9-2.4-4.8s-9.1-1.6-10.2-1.9s-5.7-0.6-5-8.1c0.6-7.5,2.5-17.4,2.9-20.3c0.4-2.9,3.1-6.7,8-0.2
	c5,6.5,6.3,8.8,8,10.3c1.7,1.5,6.3,3.6,14,0.7s41.1-15.3,51-19.5s26-11.1,28-11.9s4.7-6.7-2.6-6.9c-7.3-0.1-30.2,1.1-32.3,1.1
	c-2.2,0-4.7,0.1-7.9,2c-3.2,1.9-21.1,13-23.1,14.5c-2,1.5-6.9,4-10.3,2.2c-3.4-1.8-13.1-9.4-14.7-10.9c-1.6-1.5-3-5.3-0.1-7.2
	c2.9-2,8.2-3.6,11.3-4.3c3-0.7,34.5-6.2,37.7-6.8c3.2-0.6,7.7-1.9,10.2-5.9c2.5-4,5.2-11.2,8.6-20.1s4.8-15.5,11.8-18.7
	s10.2-2.2,11.9,2s9.3,22,10.6,25.1c1.3,3.1,3,6.4,9.3,7.3c6.3,0.9,24.3,0.9,26,0.9c1.8,0,8-0.8,4.9-8c-0.6-1.5-1.8-2.5-6.6-5.2
	c-4.8-2.7-14.9-9.4-16.4-10.5c-1.5-1-7.2-9.2,3.9-13.9c7.5-3.2,12.4,1.3,16.4,3.7c0,0,21.4,14.8,23.8,16.5c2.4,1.8,9.3,13,7.5,21.3
	C194.1,86.3,192.5,95.3,177.4,101.7z"/>
<line class="st1" x1="151.3" y1="116.6" x2="147.8" y2="108.3"/>
</svg>
