<?xml version="1.0" encoding="utf-8"?>
<!-- Generator: Adobe Illustrator 24.3.0, SVG Export Plug-In . SVG Version: 6.00 Build 0)  -->
<svg version="1.1" id="Layer_1" xmlns="http://www.w3.org/2000/svg" xmlns:xlink="http://www.w3.org/1999/xlink" x="0px" y="0px"
	 viewBox="0 0 272 271.1" style="enable-background:new 0 0 272 271.1;" xml:space="preserve">
<style type="text/css">
	.st0{fill:#FFFFFF;}
</style>
<path class="st0" d="M200,15.1h63.9c4.4,0,8-3.6,8-8s-3.6-8-8-8h-80c-4.4,0-8,3.6-8,8v80c0,4.4,3.6,8,8,8s8-3.6,8-8V28.9
	C231.2,49.5,256,90.1,256,135.1c0,66.2-53.8,120-120,120s-120-53.8-120-120c0-66.2,53.8-120,120-120c4.4,0,8-3.6,8-8s-3.6-8-8-8
	c-75,0-136,61-136,136s61,136,136,136c75,0,136-61,136-136C272,84.4,244.1,38.6,200,15.1z"/>
</svg>
