<?xml version="1.0" encoding="utf-8"?>
<!-- Generator: Adobe Illustrator 24.3.0, SVG Export Plug-In . SVG Version: 6.00 Build 0)  -->
<svg version="1.1" id="Layer_1" xmlns="http://www.w3.org/2000/svg" xmlns:xlink="http://www.w3.org/1999/xlink" x="0px" y="0px"
	 viewBox="0 0 200 200" style="enable-background:new 0 0 200 200;" xml:space="preserve">
<style type="text/css">
	.st0{fill:none;stroke:#C82828;stroke-width:3;stroke-miterlimit:10;}
	.st1{fill:none;stroke:#282828;stroke-width:3;stroke-linecap:round;stroke-miterlimit:10;}
</style>
<image style="overflow:visible;" width="745" height="568" xlink:href="C914BFC3.jpg"  transform="matrix(1 0 0 1 -7652 -7652)">
</image>
<path class="st0" d="M82.6,52c0,0-51.9,35.4-59.3,44.4c-1.4,1.8-2.7,3.5-2.7,4.9s2.2,3.9,5.4,4.8s4.6,1.5,5.7,2.1
	c1.1,0.6,2.8,2.1,2.8,5.9c0,3.9-2.8,5.7-5.5,5.7s-3.7-0.3-7.2-3.1S7.4,104.8,3.8,96.2c-1.5-3.6-0.9-7.4-0.7-9.8s6.7-45.2,7.2-47.8
	s5.2-9.1,15-9c9.8,0.1,10.6,0,14.2,0s11.2,0.3,26.2,4.5c4.1,1.1,6.6,1.5,8.7,1.5c2.1,0,9.3-2.1,10.4-2.4c1-0.3,2.9-0.8,6,2.1
	s8.1,6.9,13.5,6.9s6.4-1.5,9.1-3.1c1.1-0.6,9.7-0.3,11.2,5.8c1.5,6.1,1.8,6.9,2.4,8.4c0.6,1.5,2.5,4.7,6.8,8.9s28.1,24.7,40.7,36.6
	s22.7,21,22.7,27.8c0,6.8-4.9,9.5-9.1,10.6c-4.2,1.1-7.4,0.1-12.4,2.8c-5,2.7-23.2,11.3-24.4,12.1c-1.2,0.8-2.5,2.3-1,4.4
	c1.5,2.2,1.8,3.4,1.8,5.1c0,1.7-2.9,9-11,9s-11.3-6.5-13.9-9.8c-2.6-3.3-32.7-35.7-33.4-37c-0.7-1.3-2-4.6,0.5-8.7
	c2.4-4.1,8.6-13.5,8.6-19.3s-3-11.6-5.9-15.1c-2.9-3.5-5.9-8.3-6.9-9.3c-0.9-1-1.8-5.1,2.1-5.1s10.4,0.4,13.2-2.3s-4.1-7.3-6.1-8.7
	S88.7,47.8,82.6,52z"/>
<line class="st1" x1="131" y1="158.3" x2="124" y2="163.9"/>
</svg>
