<?xml version="1.0" encoding="utf-8"?>
<!-- Generator: Adobe Illustrator 24.1.1, SVG Export Plug-In . SVG Version: 6.00 Build 0)  -->
<svg version="1.1" id="Layer_1" xmlns="http://www.w3.org/2000/svg" xmlns:xlink="http://www.w3.org/1999/xlink" x="0px" y="0px"
	 viewBox="0 0 200 140" style="enable-background:new 0 0 200 140;" xml:space="preserve">
<style type="text/css">
	.st0{fill:none;stroke:#C82828;stroke-width:2;stroke-miterlimit:10;}
	.st1{fill:none;stroke:#282828;stroke-width:3;stroke-linecap:round;stroke-miterlimit:10;}
</style>
<g>
	<path class="st0" d="M132.7,126.7c-2.9-3-36.2-31.6-37-32.8s-2.5-4.3-0.5-8.6c1.9-4.3,7-14.3,6.3-20c-0.6-5.7-4.2-11.1-7.5-14.2
		c-3.2-3.1-6.7-7.5-7.8-8.4c-1-0.9-2.3-4.8,1.5-5.3c3.8-0.4,10.3-0.8,12.8-3.7c2.5-3-4.9-6.7-7-7.9c-2.1-1.2-11.3-6.2-16.8-1.4
		c0,0-47.3,40.7-53.6,50.4c-1.2,1.9-2.3,3.8-2.1,5.1c0.2,1.4,2.6,3.6,5.9,4.1s4.7,1,5.9,1.4c1.2,0.5,3,1.8,3.4,5.5
		c0.4,3.8-2.1,5.9-4.8,6.2c-2.7,0.3-3.7,0.1-7.4-2.3C20,92.5,8.3,84.7,3.8,76.6C1.9,73.2,2.1,69.4,2,67c-0.1-2.4,1.6-45.3,1.8-47.9
		C4,16.5,7.9,9.5,17.6,8.6s10.5-1.2,14-1.6S42.7,6,58,8.5c4.2,0.6,6.7,0.7,8.7,0.5c2.1-0.2,8.9-3.1,10-3.5c1-0.4,2.8-1.1,6.2,1.4
		s8.8,5.9,14.1,5.3c5.3-0.6,6.1-2.2,8.6-4.1c1-0.7,9.5-1.4,11.7,4.5c2.2,5.9,2.5,6.6,3.3,8c0.8,1.4,3,4.4,7.7,8
		c4.7,3.7,30.5,21.3,44.2,31.6s24.7,18.2,25.5,24.9c0.8,6.7-3.8,9.9-7.8,11.5c-4,1.6-7.3,0.9-11.9,4.1c-4.6,3.2-21.6,13.7-22.7,14.6
		c-1.1,0.9-2.2,2.5-0.5,4.5c1.7,2,2.2,3.2,2.3,4.8c0.2,1.7-1.9,9.2-9.9,10.1S135.6,129.6,132.7,126.7"/>
	<line class="st1" x1="136.1" y1="123.8" x2="129.8" y2="130.1"/>
</g>
</svg>
