<?xml version="1.0" encoding="utf-8"?>
<!-- Generator: Adobe Illustrator 24.1.1, SVG Export Plug-In . SVG Version: 6.00 Build 0)  -->
<svg version="1.1" id="Layer_1" xmlns="http://www.w3.org/2000/svg" xmlns:xlink="http://www.w3.org/1999/xlink" x="0px" y="0px"
	 viewBox="0 0 200 140" style="enable-background:new 0 0 200 140;" xml:space="preserve">
<style type="text/css">
	.st0{fill:none;stroke:#C82828;stroke-width:2;stroke-miterlimit:10;}
	.st1{fill:none;stroke:#282828;stroke-width:3;stroke-linecap:round;stroke-miterlimit:10;}
</style>
<g>
	<path class="st0" d="M29.6,101.1C18.8,108.3,6,116.8,5,117.6c-1.9,1.3-4.7,1.9-1.4-4.9c3.3-6.9,9.3-18.9,11.2-20.9
		c1.9-2,20.9-21.1,22.2-22.6c1.3-1.5,2.7-5.9,6.2-8.6c4.3-3.4,7.5-1.7,10.2-3.4C56,55.4,78.3,39,81,37.5
		c2.6-1.5,68.8-26.1,71.7-26.9c2.8-0.8,4,0.1,6.2,2.6c2.1,2.5,6,2.9,9.4,0.9s7.1-4,11.6,1.2c4.5,5.1,16.4,19.2,17.5,20.4
		s1.1,3.5-0.5,4.6c-1.6,1.1-4.3,2.5-7.9-1.8c-3.5-4.3-7.3-10.1-10.3-10.1s-8.8,3.4-15.5,6c-6.7,2.5-21.8,6.6-26.7,7.5
		c-4.8,0.9-9.8,2.7-9.6,10.7c0.2,8,1,14.6,7.5,17.4c6.4,2.7,28.5,8.3,32.4,10c3.9,1.7,5.7,2.3,5.6,6.1s-1.7,6.4-2,7.7
		c-0.3,1.3-1.2,4.8,1.7,7.1c2.9,2.3,15.4,7.9,18,9.6c2.5,1.6,4.5,3.4,2.4,6.9c-2.1,3.4-5.6,9.7-7.6,10.8c-2,1.2-5.6,3-12.3,0.4
		c-6.9-2.6-13.1-4.9-18.6-10.7c-5.5-5.8-12.4-15.9-16.7-21.3c-4.2-5.5-6.9-9.2-10.8-10.7c-4-1.5-18.1-7.9-24.4-7.3
		C95.5,79,92,81.9,87,84.8c-4.9,2.8-7.3,3.7-14.1,5.7C66,92.3,56.7,94,54.6,94.6c-2.1,0.5-4.8,1.6-4.2-1.8c1-3.5-1.2-4.6-5.8-1.6
		C44.6,91.1,37.7,95.7,29.6,101.1"/>
	<line class="st1" x1="26.8" y1="97.4" x2="32.3" y2="104.6"/>
</g>
</svg>
