<?xml version="1.0" encoding="utf-8"?>
<!-- Generator: Adobe Illustrator 24.3.0, SVG Export Plug-In . SVG Version: 6.00 Build 0)  -->
<svg version="1.1" id="Layer_1" xmlns="http://www.w3.org/2000/svg" xmlns:xlink="http://www.w3.org/1999/xlink" x="0px" y="0px"
	 viewBox="0 0 200 200" style="enable-background:new 0 0 200 200;" xml:space="preserve">
<style type="text/css">
	.st0{fill:none;stroke:#C82828;stroke-width:3;stroke-miterlimit:10;}
	.st1{fill:none;stroke:#282828;stroke-width:3;stroke-linecap:round;stroke-miterlimit:10;}
</style>
<path class="st0" d="M45,111.4c0,0-37.4,24.9-39.3,26.2s-4.7,1.9-1.4-4.9c3.3-6.8,9.2-18.7,11.1-20.7c1.9-2,20.7-20.9,22-22.4
	s2.7-5.8,6.1-8.5c4.3-3.4,7.4-1.7,10.1-3.4c2.7-1.7,24.8-17.9,27.4-19.4s68.2-25.9,71-26.7s4,0.1,6.1,2.6s5.9,2.9,9.3,0.9
	c3.4-2,7-4,11.5,1.2c4.5,5.1,16.2,19,17.3,20.2s1.1,3.5-0.5,4.6c-1.6,1.1-4.3,2.5-7.8-1.8s-7.2-10-10.2-10c-3,0-8.7,3.4-15.4,5.9
	c-6.6,2.5-21.6,6.5-26.5,7.4c-4.8,0.9-9.7,2.7-9.5,10.6s1,14.5,7.4,17.2c6.3,2.7,28.2,8.2,32.1,9.9c3.9,1.7,5.6,2.3,5.5,6
	s-1.7,6.3-2,7.6s-1.2,4.8,1.7,7c2.9,2.3,15.3,7.8,17.8,9.5c2.5,1.6,4.5,3.4,2.4,6.8c-2.1,3.4-5.5,9.6-7.5,10.7
	c-2,1.2-5.5,3-12.2,0.4c-6.8-2.6-13-4.9-18.4-10.6c-5.4-5.7-12.3-15.8-16.5-21.1c-4.2-5.4-6.8-9.1-10.7-10.6
	c-4-1.5-17.9-7.8-24.2-7.2c-6.3,0.6-9.8,3.5-14.7,6.3c-4.9,2.8-7.2,3.7-14,5.6s-16,3.6-18.1,4.1s-4.8,1.6-4.2-1.8
	C51.7,109.5,49.5,108.4,45,111.4z"/>
<line class="st1" x1="27.3" y1="117.6" x2="32.8" y2="124.8"/>
</svg>
