<?xml version="1.0" encoding="utf-8"?>
<!-- Generator: Adobe Illustrator 24.3.0, SVG Export Plug-In . SVG Version: 6.00 Build 0)  -->
<svg version="1.1" id="Layer_1" xmlns="http://www.w3.org/2000/svg" xmlns:xlink="http://www.w3.org/1999/xlink" x="0px" y="0px"
	 viewBox="0 0 200 140" style="enable-background:new 0 0 200 140;" xml:space="preserve">
<style type="text/css">
	.st0{fill:none;stroke:#C82828;stroke-width:2;stroke-miterlimit:10;}
	.st1{fill:none;stroke:#282828;stroke-width:3;stroke-linecap:round;stroke-miterlimit:10;}
</style>
<g>
	<path class="st0" d="M73.2,126.9c-20.1,2.4-54.6,6.4-56.9,6.4c0,0-5.1,0.7-9-2.2c-4.2-2.6-5-3.4-5.4-7.5c-0.4-4.1,2.7-6.1,4.3-6.3
		c1.6-0.2,12.9-0.2,17.5-0.1c4.6,0,7.4-2.8,9.5-6s3.9-3,5.2-2.9c1.3,0.1,8.1,2,11.8,2.7c3.7,0.7,4.4-0.4,5.4-1.3
		c0.9-0.7,0.8-0.7,4.1-5.3c3.1-4.5,5.7-4.6,8.8-4.4c3,0.2,4.8,2.8,6.1,4.8c1.3,2,3.2,4,5.2,5.7c1.9,1.7,5.8,1.5,12.5-0.7
		c6.6-2.2,8.9-8.5,10.2-14.8c1.3-6.4-6.7-24.9-7.5-26.6c-0.8-1.7-2.8-6.3,0.4-11.4s8.8-4,11.3-3.2c2.5,0.8,13.7,4.8,18.9,6.7
		c5.1,1.9,8.6,3.8,10.1,5.2c1.5,1.4,4,5.2,5.4,7.4c1.5,2.3,2.2,1.9,3.3,1.4c1.1-0.6,1.4-1.6,1-2.8c-0.4-1.1-6-11.3-7.9-15.5
		c-2-4.3-0.8-7.7-0.4-8.8c0.4-1,0.6-1.6,5.2-9.1c7.8-12.6,18.4-13.2,20.8-13.2c2.5,0.1,21.6,3.3,25.6,3.4s6.2-3.4,6.7-4.7
		c0.4-1.4,1.6-4.6,2.2-7.3c0.5-2.7,1.3-3.6-0.6-6.5c-1.8-3-4.4-3.6-6.2-3.5c-5.3,0.3-17.9,5.7-22.7,7.7s-13.7,7.2-16.1,9.1
		s-41.2,32.6-43.5,34.9c-2.3,2.3-4.7,7.4-4.5,8.9c0.3,1.6,3.8,21.3,4.4,25.1c0.5,3.8,2.8,11.6-1.3,18c-8.7,13.8-15.9,14.4-19.6,14.8
		C86.3,125.3,80.8,125.9,73.2,126.9"/>
	<line class="st1" x1="73.7" y1="130.7" x2="72.8" y2="122.6"/>
</g>
</svg>
