<?xml version="1.0" encoding="utf-8"?>
<!-- Generator: Adobe Illustrator 24.1.1, SVG Export Plug-In . SVG Version: 6.00 Build 0)  -->
<svg version="1.1" id="Layer_1" xmlns="http://www.w3.org/2000/svg" xmlns:xlink="http://www.w3.org/1999/xlink" x="0px" y="0px"
	 viewBox="0 0 200 140" style="enable-background:new 0 0 200 140;" xml:space="preserve">
<style type="text/css">
	.st0{fill:none;stroke:#C82828;stroke-width:2;stroke-miterlimit:10;}
	.st1{fill:none;stroke:#282828;stroke-width:3;stroke-linecap:round;stroke-miterlimit:10;}
</style>
<g>
	<path class="st0" d="M36.3,67.7c4.3-6.3,7.4-10.9,8-11.7c2.1-3.1,5.9-9.3,22.2-10.7c7.6-0.7,13.5,4.9,16.6,7.1
		c3.1,2.2,19,14.4,20.3,15.4c1.3,0.9,6.9,1.1,10,0.1c3.1-1,48.2-21.4,51-22.7c2.8-1.3,11.5-6.8,15.5-10.2c4-3.4,14.6-12.1,17.3-16.7
		c0.9-1.5,1.5-4.1-0.3-7.1c-1.7-3-2.9-2.7-5.5-3.5c-2.7-0.7-6.1-1.1-7.5-1.4c-1.4-0.2-5.6,0.1-7.3,3.8s-7.6,22.1-8.7,24.4
		c-1.1,2.2-6.5,11.3-21.3,12.5c-8.8,0.7-9.4,0.6-10.5,0.5c-1.1-0.2-4.7-0.7-7.6-4.4c-2.9-3.7-9.4-13.3-10.2-14.2
		c-0.8-0.9-1.9-1.1-2.9-0.4c-1,0.8-1.6,1.2-0.3,3.6c1.3,2.3,3.5,6.2,4.1,8.2c0.6,2,0.6,6,0,11.4c-0.7,5.5-2.3,17.3-2.7,19.9
		s-2,8.1-8,8.6s-9.2-3.4-10.3-4.9S84.3,58.2,78,56.4c-6.3-1.7-12.9-2.6-17.9,2.3s-6.9,8.3-6.3,10.8c0.6,2.5,1.5,5.1,2.7,7.2
		c1.2,2,2.7,4.8,1.5,7.6c-1.2,2.8-2.5,5.1-7.9,5.8c-5.6,0.8-5.5,0.7-6.6,1.2c-1.2,0.5-2.5,0.6-3.6,4.2c-1.1,3.6-2.5,10.5-3,11.7
		c-0.5,1.2-1.2,2.9-5,3.3s-7.6,1.6-9.7,5.7c-2,4.1-7.2,14.2-8.1,15.5c-0.9,1.3-4.1,3.1-7.6,0.9c-3.5-2.2-3.8-3.3-4.2-8.2
		c-0.7-4.8,2.2-9,2.2-9C5.5,113.4,24.9,84.5,36.3,67.7"/>
	<line class="st1" x1="39.9" y1="70" x2="33.1" y2="65.5"/>
</g>
</svg>
