<?xml version="1.0" encoding="utf-8"?>
<!-- Generator: Adobe Illustrator 24.3.0, SVG Export Plug-In . SVG Version: 6.00 Build 0)  -->
<svg version="1.1" id="Layer_1" xmlns="http://www.w3.org/2000/svg" xmlns:xlink="http://www.w3.org/1999/xlink" x="0px" y="0px"
	 viewBox="0 0 200 200" style="enable-background:new 0 0 200 200;" xml:space="preserve">
<style type="text/css">
	.st0{fill:none;stroke:#C82828;stroke-width:3;stroke-miterlimit:10;}
	.st1{fill:none;stroke:#282828;stroke-width:3;stroke-linecap:round;stroke-miterlimit:10;}
</style>
<image style="overflow:visible;" width="745" height="568" xlink:href="D647806C.jpg"  transform="matrix(1 0 0 1 -7652 -7652)">
</image>
<path class="st0" d="M4.3,164.8c1.3-3.2,31.4-67.6,33.2-71.2c1.8-3.7,4.8-11.1,22.2-15.4c8.1-2,15.5,3,19.2,4.9
	c3.7,1.9,23,12.4,24.6,13.2s7.7,0,10.9-1.6c3.2-1.6,48.6-31.4,51.4-33.3c2.8-1.9,11.3-9.3,15-13.7c3.7-4.4,13.7-15.6,15.9-21
	c0.7-1.8,0.9-4.7-1.5-7.6s-3.6-2.4-6.6-2.8c-3-0.3-6.8-0.1-8.4-0.2c-1.6,0-6.1,1.1-7.2,5.4s-4.5,25.3-5.3,27.9
	c-0.8,2.6-5.1,13.3-20.9,17.2c-9.4,2.3-10.1,2.3-11.3,2.3s-5.2,0-9-3.5c-3.8-3.5-12.5-12.8-13.5-13.6c-1-0.8-2.2-0.9-3.2,0.1
	c-1,1-1.5,1.6,0.3,4c1.8,2.3,4.8,6.1,5.8,8.2s1.7,6.4,1.9,12.4c0.2,6.1,0.5,19.1,0.5,22c0,2.9-0.8,9.1-7.2,10.7
	c-6.4,1.6-10.5-2.1-12-3.5c-1.5-1.4-17.9-16.5-25-17.4c-7.1-0.8-14.4-0.6-19,5.6s-6.1,10.2-5,12.8c1.1,2.6,2.5,5.3,4.1,7.3
	c1.6,2,3.7,4.8,2.9,8c-0.8,3.2-1.8,5.9-7.6,7.6c-5.9,1.8-5.8,1.7-7,2.4c-1.2,0.7-2.6,1.1-3.2,5.2s-0.9,11.8-1.2,13.2
	c-0.3,1.4-0.8,3.4-4.9,4.4s-8,3-9.5,7.8c-1.5,4.8-5.4,16.6-6.1,18.2c-0.7,1.6-3.9,4.1-8.1,2.3c-4.2-1.8-4.7-2.9-6-8.2
	C1.9,169.8,4.3,164.8,4.3,164.8z"/>
<line class="st1" x1="35.2" y1="109.6" x2="27" y2="105.9"/>
</svg>
