<?xml version="1.0" encoding="utf-8"?>
<!-- Generator: Adobe Illustrator 24.3.0, SVG Export Plug-In . SVG Version: 6.00 Build 0)  -->
<svg version="1.1" id="Layer_1" xmlns="http://www.w3.org/2000/svg" xmlns:xlink="http://www.w3.org/1999/xlink" x="0px" y="0px"
	 viewBox="0 0 200 200" style="enable-background:new 0 0 200 200;" xml:space="preserve">
<style type="text/css">
	.st0{fill:none;stroke:#C82828;stroke-width:3;stroke-miterlimit:10;}
	.st1{fill:none;stroke:#282828;stroke-width:3;stroke-linecap:round;stroke-miterlimit:10;}
</style>
<image style="overflow:visible;" width="745" height="568" xlink:href="5398F8A.jpg"  transform="matrix(1 0 0 1 -7652 -7652)">
</image>
<path class="st0" d="M126.8,75.3c0,0,41.3-49.7,51.6-59.3s16.8,1.1,16.1,9.2s6.2,57.8,0.1,72.7s-16.5,24.1-27.6,17.6
	c-11.1-6.5-12.2-12.6-20.3-6.5c-8,6.1-35.2,39-37.1,50.9s3.1,20.7-5.7,21.8c-8.8,1.1-12.6-1.9-14.9,5.4s-75.4-35.6-83-60.8
	s0-60.8,11.9-70s15.7-3.4,19.1,3.8S38.4,72.6,35,76s-5.4,5-1.9,10.1s13,5.5,27.2,9.7c14.2,4.2,27.5,6.5,24.5,27.2
	c-3.1,20.7-0.8,17.2,5,17.8c5.7,0.6,31.8-33.1,31.4-44.2S121.1,82.1,126.8,75.3z"/>
<line class="st1" x1="150.8" y1="53.6" x2="143.3" y2="48.6"/>
</svg>
