<?xml version="1.0" encoding="utf-8"?>
<!-- Generator: Adobe Illustrator 24.1.1, SVG Export Plug-In . SVG Version: 6.00 Build 0)  -->
<svg version="1.1" id="Layer_1" xmlns="http://www.w3.org/2000/svg" xmlns:xlink="http://www.w3.org/1999/xlink" x="0px" y="0px"
	 viewBox="0 0 200 140" style="enable-background:new 0 0 200 140;" xml:space="preserve">
<style type="text/css">
	.st0{fill:none;stroke:#C82828;stroke-width:2;stroke-miterlimit:10;}
	.st1{fill:none;stroke:#282828;stroke-width:3;stroke-linecap:round;stroke-miterlimit:10;}
</style>
<g>
	<path class="st0" d="M148.3,24.1c3.6-4.2,7-8,9.7-10.7C181.5-10,203.1,56.8,196.9,72s-16.8,24.5-28.1,17.9
		c-11.3-6.6-12.4-12.8-20.6-6.6c-8.1,6.2-35.8,6.1-37.7,18.2s3.2,21.1-5.8,22.2s-12.8-1.9-15.2,5.5c-2.3,7.4-76.7-2.6-84.4-28.3
		s0-61.8,12.1-71.2s16-3.5,19.4,3.9c3.5,7.3,1.4,12.7-2,16.2s-5.5,5.1-1.9,10.3c3.6,5.2,19.3,22.4,27.7,9.9
		c6.2-9.2,34.5,11.5,40.4,12.1c5.8,0.6,21.9,0,21.5-11.3S122.2,55.9,128,49C128,49,138.6,35.4,148.3,24.1"/>
	<line class="st1" x1="152" y1="27.4" x2="145.2" y2="21.3"/>
</g>
</svg>
