<?xml version="1.0" encoding="utf-8"?>
<!-- Generator: Adobe Illustrator 24.3.0, SVG Export Plug-In . SVG Version: 6.00 Build 0)  -->
<svg version="1.1" id="Layer_1" xmlns="http://www.w3.org/2000/svg" xmlns:xlink="http://www.w3.org/1999/xlink" x="0px" y="0px"
	 viewBox="0 0 360 360" style="enable-background:new 0 0 360 360;" xml:space="preserve">
<g>
	<path d="M130.6,237c-0.5,0.2-1,0.4-1.3,0.6L130.6,237z"/>
	<path d="M320.8,354.1c-0.6-3-14.5-74.3-19-91.1c-9.4-35-37.8-46.1-80.5-51.6V196c10.8-8.7,19.3-19.1,24.1-27
		c2.1-3.5,6-14.7,9.1-29.1c4.2-3.5,7.7-9,9.8-15.3c3.9-11.7,2-22.7-4.3-27.6c1-33.4-6.7-59.6-22.4-76C224.1,7.1,205,0,180.8,0
		c-24.2,0-43.3,7.1-56.7,21.1c-15.6,16.3-23.3,42.4-22.4,75.6c-1.8,1.3-3.3,3.1-4.4,5.3c-3,5.9-3.1,14.3-0.4,22.6
		c2.1,6.5,5.9,12.2,10.3,15.8c3.2,14.4,6.9,25.3,9,28.6c4.8,7.8,13.2,18.2,23.9,26.8v15.4c-43.5,5.4-72.4,16.5-81.9,51.8
		c-4.5,16.8-18.4,88.1-19,91.1c-0.5,2.7,1.2,5.3,3.9,5.8c2.7,0.5,5.3-1.2,5.8-3.9c0.1-0.7,14.4-74,18.8-90.4
		c7.2-26.6,26.3-38.5,72.4-44.4v3.8c0,1.2,0.4,2.3,1.2,3.2c10.4,12.4,24.4,19.3,39.4,19.5c0.1,0,0.2,0,0.3,0c0.5,0,1,0,1.4,0
		c0.4,0,0.8,0,1.2,0c0.6,0,1.2-0.1,1.8-0.2c0.3,0,0.6,0,0.9-0.1c0.7-0.1,1.4-0.2,2.1-0.3c0.2,0,0.4-0.1,0.6-0.1
		c0.8-0.1,1.5-0.3,2.3-0.5c0.1,0,0.3-0.1,0.4-0.1c0.8-0.2,1.6-0.4,2.5-0.6c0.1,0,0.1,0,0.2-0.1c0.9-0.3,1.7-0.5,2.6-0.8c0,0,0,0,0,0
		c5.2-1.9,10.1-4.6,14.6-8.2c0,0,0.1,0,0.1-0.1c0.7-0.6,1.4-1.1,2-1.7c0.1-0.1,0.1-0.1,0.2-0.2c0.6-0.6,1.2-1.1,1.8-1.7
		c0.1-0.1,0.2-0.2,0.3-0.3c0.6-0.5,1.1-1.1,1.6-1.7c0.1-0.2,0.3-0.3,0.4-0.5c0.7-0.7,1.3-1.5,2-2.3c0.7-0.9,1.1-2,1.1-3.1v-3.7
		c45.1,6.1,63.9,17.9,71,44.2c4.4,16.5,18.7,89.7,18.8,90.4c0.5,2.4,2.5,4,4.8,4c0.3,0,0.6,0,0.9-0.1
		C319.5,359.4,321.3,356.8,320.8,354.1z M124.6,163.8c-1.2-1.9-4.9-12.1-8.1-27.3c-0.3-1.3-1-2.4-2.1-3.1c-2.6-1.7-6.1-5.7-8.1-11.9
		c-1.9-5.7-1.9-11.6-0.2-15c0.4-0.8,1-1.8,2-2.1c0,0,0.1,0,0.1,0c0.8-0.2,1.5-0.7,2.1-1.3c0.9-1,1.4-2.3,1.4-3.6
		c-1-22.3,1.6-52.8,19.5-71.6c11.5-12,28.1-18.1,49.6-18.1c21.4,0,38.1,6.1,49.5,18c18,18.8,20.6,49.4,19.6,71.7
		c-0.1,2.2,1.2,4.1,3.2,4.9c2.7,1,4.7,8.1,1.7,17.1c-1.7,5.1-4.5,9.4-7.7,11.5c-1,0.7-1.8,1.8-2,3c-3.2,15.3-6.9,25.6-8.2,27.7
		c-4.4,7-12.7,17.4-23.4,25.6c-0.1,0-0.1,0.1-0.2,0.1c-2,1.5-4.1,3-6.1,4.2c-0.1,0.1-0.2,0.1-0.3,0.2c-0.5,0.3-1.1,0.6-1.6,0.9
		c-0.4,0.2-0.8,0.4-1.2,0.6c-0.3,0.1-0.5,0.3-0.8,0.4c-0.6,0.3-1.3,0.7-1.9,1c0,0,0,0-0.1,0c-3.6,1.7-7.3,3.1-11.1,4
		c0,0-0.1,0-0.1,0c-0.7,0.2-1.4,0.3-2,0.4c-0.2,0-0.3,0.1-0.5,0.1c-0.6,0.1-1.2,0.2-1.7,0.3c-0.2,0-0.4,0.1-0.6,0.1
		c-0.6,0.1-1.1,0.1-1.7,0.1c-0.2,0-0.4,0-0.6,0c-0.7,0-1.5,0.1-2.2,0.1c-0.8,0-1.5,0-2.2-0.1c-0.2,0-0.4,0-0.6,0
		c-0.6,0-1.1-0.1-1.7-0.2c-0.2,0-0.4,0-0.6-0.1c-0.6-0.1-1.2-0.2-1.8-0.3c-0.1,0-0.3,0-0.4-0.1c-0.7-0.1-1.4-0.3-2.1-0.4
		c0,0-0.1,0-0.1,0c-4.6-1.1-9-2.8-13.2-5.1c-0.1-0.1-0.2-0.1-0.3-0.2c-0.6-0.3-1.1-0.6-1.7-0.9c-0.4-0.3-0.9-0.5-1.3-0.8
		c-0.2-0.1-0.4-0.2-0.6-0.4c-2-1.3-4.1-2.7-6.1-4.2c-0.1,0-0.1-0.1-0.2-0.1C137.2,181.2,128.9,170.8,124.6,163.8z M150,223.2v-7.6
		v-12.8c2.4,1.5,5,2.8,7.6,4c0.2,0.1,0.4,0.2,0.7,0.3c0.5,0.2,0.9,0.4,1.4,0.6c0.7,0.3,1.4,0.6,2.2,0.8c0.2,0.1,0.4,0.1,0.5,0.2
		c0.7,0.2,1.3,0.5,2,0.7c0.1,0,0.3,0.1,0.4,0.1c1.7,0.5,3.3,1,5,1.3c0.1,0,0.2,0,0.2,0c0.8,0.2,1.6,0.3,2.3,0.4c0.1,0,0.2,0,0.3,0.1
		c0.9,0.1,1.7,0.3,2.6,0.4c0.1,0,0.1,0,0.2,0c0.8,0.1,1.5,0.1,2.3,0.2c0.2,0,0.4,0,0.6,0c0.8,0,1.7,0.1,2.5,0.1c0.8,0,1.7,0,2.5-0.1
		c0.2,0,0.4,0,0.6,0c0.8,0,1.6-0.1,2.4-0.2c0,0,0.1,0,0.1,0c0.9-0.1,1.7-0.2,2.6-0.4c0.1,0,0.2,0,0.4-0.1c0.8-0.1,1.5-0.3,2.3-0.4
		c0.1,0,0.2,0,0.2,0c1.7-0.4,3.3-0.8,5-1.3c0.2-0.1,0.3-0.1,0.5-0.2c0.6-0.2,1.3-0.4,1.9-0.6c0.2-0.1,0.4-0.1,0.6-0.2
		c0.7-0.3,1.4-0.5,2.1-0.8c0.5-0.2,1-0.4,1.5-0.6c0.2-0.1,0.4-0.2,0.5-0.2c2.6-1.2,5.1-2.5,7.5-3.9v12.9v7.4
		c-2.6,2.9-5.4,5.5-8.4,7.6c-6.6,4.6-14.2,7-22,7c-0.1,0-0.2,0-0.2,0C169.3,237.6,158.4,232.4,150,223.2z"/>
</g>
</svg>
