<?xml version="1.0" encoding="utf-8"?>
<!-- Generator: Adobe Illustrator 24.3.0, SVG Export Plug-In . SVG Version: 6.00 Build 0)  -->
<svg version="1.1" id="Layer_1" xmlns="http://www.w3.org/2000/svg" xmlns:xlink="http://www.w3.org/1999/xlink" x="0px" y="0px"
	 viewBox="0 0 194.9 195.1" style="enable-background:new 0 0 194.9 195.1;" xml:space="preserve">
<style type="text/css">
	.st0{fill:#FFFFFF;}
</style>
<g>
	<path class="st0" d="M166.5,28.6C148.1,10.1,123.6,0,97.6,0C71.5,0,47,10.1,28.6,28.6S0,71.5,0,97.6s10.1,50.6,28.6,69
		s42.9,28.6,69,28.6c26.1,0,50.6-10.1,69-28.6s28.6-42.9,28.6-69S185,47,166.5,28.6z M97.6,17.8c38.6,0,70.9,27.6,78.2,64.1
		l-56.9-5.7c-5.5-5.5-13-8.9-21.4-8.9c-8.3,0-15.8,3.3-21.2,8.7l-57,5.7C26.7,45.3,59,17.8,97.6,17.8z M166.5,97.6
		c0,3.7-3,6.7-6.7,6.7c-3.7,0-6.7-3-6.7-6.7c0-3.7,3-6.7,6.7-6.7C163.6,90.9,166.5,93.9,166.5,97.6z M144.8,97.6
		c0,3.7-3,6.7-6.7,6.7c-3.7,0-6.7-3-6.7-6.7c0-3.7,3-6.7,6.7-6.7C141.8,90.9,144.8,93.9,144.8,97.6z M97.6,80.6
		c9.3,0,16.9,7.6,16.9,16.9c0,9.3-7.6,16.9-16.9,16.9c-9.3,0-16.9-7.6-16.9-16.9C80.6,88.2,88.2,80.6,97.6,80.6z M90.9,160.4
		c0-3.7,3-6.7,6.7-6.7c3.7,0,6.7,3,6.7,6.7c0,3.7-3,6.7-6.7,6.7C93.9,167.1,90.9,164.1,90.9,160.4z M97.6,145.3
		c-3.7,0-6.7-3-6.7-6.7c0-3.7,3-6.7,6.7-6.7c3.7,0,6.7,3,6.7,6.7C104.2,142.3,101.2,145.3,97.6,145.3z M62.6,97.6
		c0,3.7-3,6.7-6.7,6.7c-3.7,0-6.7-3-6.7-6.7c0-3.7,3-6.7,6.7-6.7C59.6,90.9,62.6,93.9,62.6,97.6z M40.8,97.6c0,3.7-3,6.7-6.7,6.7
		c-3.7,0-6.7-3-6.7-6.7c0-3.7,3-6.7,6.7-6.7C37.9,90.9,40.8,93.9,40.8,97.6z M19.3,113.3l56.8,5.7l5.7,56.8
		C50.4,169.5,25.7,144.7,19.3,113.3z M113.3,175.8l5.7-56.9l56.8-5.7C169.5,144.7,144.7,169.5,113.3,175.8z"/>
	<g>
		<path class="st0" d="M144.5,38.4L144.5,38.4c2.8,3.3,7.7,3.7,11,0.9L170,26.9c3.3-2.8,3.7-7.7,0.9-11l0,0c-2.8-3.3-7.7-3.7-11-0.9
			l-14.6,12.4C142.1,30.2,141.7,35.1,144.5,38.4z"/>
		<path class="st0" d="M169.2,30.3L169.2,30.3c2.9-4.2,1.9-10-2.4-12.9l-13.2-9.1c-4.2-2.9-10-1.9-12.9,2.4l0,0
			c-2.9,4.2-1.9,10,2.4,12.9l13.2,9.1C160.5,35.6,166.3,34.5,169.2,30.3z"/>
		<path class="st0" d="M151.5,46.5L151.5,46.5c2.6,3.4,7.5,4,10.9,1.4l18.8-14.5c3.4-2.6,4-7.5,1.4-10.9l0,0
			c-2.6-3.4-7.5-4-10.9-1.4l-18.8,14.5C149.5,38.2,148.9,43.1,151.5,46.5z"/>
		<path class="st0" d="M158.3,54.5L158.3,54.5c2.4,3.6,7.2,4.6,10.8,2.2l16-10.5c3.6-2.4,4.6-7.2,2.2-10.8v0
			c-2.4-3.6-7.2-4.6-10.8-2.2l-16,10.5C157,46,156,50.9,158.3,54.5z"/>
		<path class="st0" d="M166.2,64L166.2,64c2.1,3.7,6.9,5,10.6,2.8l14.4-8.3c3.7-2.1,5-6.9,2.8-10.6l0,0c-2.1-3.7-6.9-5-10.6-2.8
			l-14.4,8.3C165.4,55.6,164.1,60.3,166.2,64z"/>
	</g>
	<g>
		<path class="st0" d="M50.7,38.4L50.7,38.4c-2.8,3.3-7.7,3.7-11,0.9L25.1,26.9c-3.3-2.8-3.7-7.7-0.9-11l0,0c2.8-3.3,7.7-3.7,11-0.9
			l14.6,12.4C53,30.2,53.4,35.1,50.7,38.4z"/>
		<path class="st0" d="M25.9,30.3L25.9,30.3c-2.9-4.2-1.9-10,2.4-12.9l13.2-9.1c4.2-2.9,10-1.9,12.9,2.4l0,0
			c2.9,4.2,1.9,10-2.4,12.9l-13.2,9.1C34.6,35.6,28.8,34.5,25.9,30.3z"/>
		<path class="st0" d="M43.6,46.5L43.6,46.5c-2.6,3.4-7.5,4-10.9,1.4L13.9,33.5c-3.4-2.6-4-7.5-1.4-10.9l0,0c2.6-3.4,7.5-4,10.9-1.4
			l18.8,14.5C45.6,38.2,46.3,43.1,43.6,46.5z"/>
		<path class="st0" d="M36.8,54.5L36.8,54.5C34.4,58,29.6,59,26,56.7L10,46.1c-3.6-2.4-4.6-7.2-2.2-10.8l0,0
			c2.4-3.6,7.2-4.6,10.8-2.2l16,10.5C38.2,46,39.1,50.9,36.8,54.5z"/>
		<path class="st0" d="M28.9,64L28.9,64c-2.1,3.7-6.9,5-10.6,2.8L3.9,58.6C0.2,56.5-1.1,51.7,1,48l0,0c2.1-3.7,6.9-5,10.6-2.8
			L26,53.4C29.8,55.6,31,60.3,28.9,64z"/>
	</g>
</g>
</svg>
