<?xml version="1.0" encoding="utf-8"?>
<!-- Generator: Adobe Illustrator 24.3.0, SVG Export Plug-In . SVG Version: 6.00 Build 0)  -->
<svg version="1.1" id="Layer_1" xmlns="http://www.w3.org/2000/svg" xmlns:xlink="http://www.w3.org/1999/xlink" x="0px" y="0px"
	 viewBox="0 0 200 200" style="enable-background:new 0 0 200 200;" xml:space="preserve">
<style type="text/css">
	.st0{fill:none;stroke:#C82828;stroke-width:3;stroke-miterlimit:10;}
	.st1{fill:none;stroke:#282828;stroke-width:3;stroke-linecap:round;stroke-miterlimit:10;}
</style>
<path class="st0" d="M112.3,117.3c0,0-63.1-26.6-65.6-27.4c-2.5-0.8-6-1.8-8.1,1.7c-2.1,3.5-2.1,3.9-3.3,7.3
	c-1.2,3.4-6.2,19.6-6.8,21.4c-0.6,1.7-3.8,8.2-9.9,8.2c-2.8,0-5.2-2-6.6-3.2s-9.1-6.3-9.1-17c0-5.4,3.6-12.4,5.3-15.5
	s6.8-12.2,7.7-13.7c0.9-1.5,3.7-4.9,10.4-4.9c4.6,0,9.4,2.3,11.5,3.2c2.1,0.9,59,21.9,59.8,22.3s1.4,0,1.8-1.1
	c0.4-1.1,0.6-1.3,1.7-1.3c1.1,0,17.5-0.6,21-0.9c3.5-0.3,16.5-1.7,21.9-4.7c5.4-3,8.5-5.4,12.1-10.5c3.6-5.1,6-9.2,6.7-9.9
	c0.7-0.7,1.6-0.6,2.5,0c0.9,0.6,1.3,0.9,2.7-0.9c1.3-1.8,3-4.1,3.8-4.9c0.8-0.7,2.7-1.6,5.6-0.4c3,1.2,9.6,3.4,11.1,4.4
	c1.5,0.9,5,2.7,4.4,8.6c-0.7,5.9-2.8,15.5-2.5,19s2.3,20.2,4.2,25.9s3.1,9.4,2.5,11.4c-0.6,2-1.8,2-4.8,0.9s-10.9-3.3-11.5-3.5
	c-0.6-0.2-4.1-0.3-4.5-0.3c-0.4,0-44-15.5-48.1-17.1c-4.1-1.7-5.7-2.3-6.8-0.1s-2.6,4-3.8,4.5C116.3,118.9,115.3,118.6,112.3,117.3z
	"/>
<line class="st1" x1="76.7" y1="97.6" x2="73.3" y2="106"/>
</svg>
