<?xml version="1.0" encoding="utf-8"?>
<!-- Generator: Adobe Illustrator 24.1.1, SVG Export Plug-In . SVG Version: 6.00 Build 0)  -->
<svg version="1.1" id="Layer_1" xmlns="http://www.w3.org/2000/svg" xmlns:xlink="http://www.w3.org/1999/xlink" x="0px" y="0px"
	 viewBox="0 0 200 140" style="enable-background:new 0 0 200 140;" xml:space="preserve">
<style type="text/css">
	.st0{fill:none;stroke:#C82828;stroke-width:2;stroke-miterlimit:10;}
	.st1{fill:none;stroke:#282828;stroke-width:3;stroke-linecap:round;stroke-miterlimit:10;}
</style>
<g>
	<path class="st0" d="M68.6,85.5c-16,1.1-30.8,2.1-32,2.3c-2.7,0.4-6.4,1.1-6.8,5.4c-0.3,4.3-0.1,4.6,0.3,8.4
		c0.5,3.7,3.4,21.2,3.7,23.2c0.2,1.9,0.3,9.4-5.4,12.3c-2.6,1.3-5.8,0.6-7.7,0.1s-11.4-1.6-16.5-11.6c-2.5-5-2.4-13.3-2.3-17
		c0.1-3.7,0.6-14.6,0.8-16.4c0.1-1.8,1.2-6.3,7.4-9.4c4.3-2.2,9.9-2.3,12.2-2.4c2.4-0.1,65.4-7.2,66.3-7.2c0.9,0,1.3-0.7,1.2-1.9
		c-0.1-1.2,0-1.5,1-2c1-0.5,16.1-8.8,19.2-10.7s14.6-9.3,18.2-14.6c3.6-5.3,5.4-9,6.4-15.5S136,17,136.3,16c0.3-1,1.2-1.3,2.3-1.2
		c1.1,0.1,1.6,0.2,2.1-2.1c0.4-2.3,0.9-5.2,1.3-6.4c0.4-1,1.8-2.8,5-3c3.4-0.3,10.6-1.3,12.4-1.1c1.8,0.1,5.9,0.2,8.1,6
		c2.1,5.8,4.6,15.8,6.6,18.9s11.6,17.8,16.1,22.2s7.3,7.3,7.7,9.5s-0.7,2.7-4.1,3.1s-11.7,2-12.4,2.1c-0.7,0.1-4,1.6-4.3,1.8
		s-48.3,6.1-52.9,6.6c-4.6,0.3-6.4,0.5-6.4,3.1c0,2.6-0.6,5-1.4,6c-1.2,0.7-2.2,0.9-5.7,1.1C110.7,82.6,88.7,84.1,68.6,85.5"/>
	<line class="st1" x1="68.3" y1="80.9" x2="69" y2="90.4"/>
</g>
</svg>
