<?xml version="1.0" encoding="utf-8"?>
<!-- Generator: Adobe Illustrator 24.3.0, SVG Export Plug-In . SVG Version: 6.00 Build 0)  -->
<svg version="1.1" id="Layer_1" xmlns="http://www.w3.org/2000/svg" xmlns:xlink="http://www.w3.org/1999/xlink" x="0px" y="0px"
	 viewBox="0 0 76.1 60" style="enable-background:new 0 0 76.1 60;" xml:space="preserve">
<style type="text/css">
	.st0{fill:#282828;}
	.st1{fill:#FFFFFF;}
	.st2{fill:#C82828;}
</style>
<g>
	<polygon class="st0" points="16.1,0 10.7,20 30.7,20 36.1,0 	"/>
	<polygon class="st1" points="36.1,0 30.7,20 50.7,20 56.1,0 	"/>
	<polygon class="st1" points="25.4,40 20,60 40,60 45.4,40 	"/>
	<polygon class="st1" points="50.7,20 45.4,40 65.4,40 70.7,20 	"/>
	<polygon class="st1" points="10.7,20 5.4,40 25.4,40 30.7,20 	"/>
	<polygon class="st0" points="30.7,20 25.4,40 45.4,40 50.7,20 	"/>
	<polygon class="st0" points="0,60 20,60 25.4,40 5.4,40 	"/>
	<polygon class="st0" points="76.1,0 56.1,0 50.7,20 70.7,20 	"/>
	<polygon class="st0" points="40,60 60,60 65.4,40 45.4,40 	"/>
</g>
<path class="st2" d="M49.8,38c0-1.3-0.1-2.4-0.5-3.2c-0.4-0.8-0.9-1.5-1.5-1.9c-0.6-0.5-1.2-0.8-1.9-0.9l0.1-0.3
	c2-0.2,3.7-0.8,5-1.6c1.4-0.9,2.5-2,3.4-3.5c0.9-1.5,1.6-3.2,2.2-5.3c0.8-3.2,1-5.6,0.5-7.4c-0.5-1.7-1.7-3-3.7-3.7
	C51.4,9.4,48.7,9,45.2,9c-2.4,0-4.4,0-6.1,0c-1.7,0-3.2,0.1-4.7,0.2c-1.4,0.1-3,0.2-4.6,0.4L18.8,51h7.4l4.5-16.7c0.3,0,0.7,0,1,0
	c1.8,0,4.1,0,6.7,0c1.3,0,2.3,0.3,2.9,0.9c0.6,0.6,0.9,1.6,1,3l0,12.8h7.9L49.8,38z M44.3,27.8c-1.1,0.4-2.6,0.6-4.4,0.6h-7.7
	L35.8,15c2.2,0,4.8,0,7.7,0c1.8,0,3.2,0.2,4.1,0.6c0.9,0.4,1.5,1.1,1.7,2c0.2,1,0,2.3-0.4,4.1c-0.5,1.8-1.1,3.2-1.8,4.2
	C46.4,26.7,45.4,27.4,44.3,27.8z"/>
</svg>
